<svg xmlns="http://www.w3.org/2000/svg" viewBox="0 0 3580 768"><defs><style>.cls-1,.cls-4{fill:#bf5b04;}.cls-1{opacity:0.2;isolation:isolate;}.cls-2{fill:#100001;}.cls-3{fill:#160063;}.cls-5{fill:#591404;}.cls-6{fill:#e2dead;}.cls-7{fill:#f2f0d5;}.cls-8{fill:#2703a6;}.cls-9{fill:#ffb9b9;}.cls-10{fill:#f2b705;}.cls-11{opacity:0.5;}</style></defs><title>animacion-frame</title><g id="caminata_frente" data-name="caminata frente"><g id="Capa_5_copia_3" data-name="Capa 5 copia 3"><path class="cls-1" d="M279.78,669.69c17.13-2.69,27.72-6.41,27.72-10.54,0-8.29-42.52-15.07-95-15.15s-95,6.57-95,14.85c0,5.82,21,10.9,51.66,13.44-18.84,3.7-30.66,9.05-30.66,15,0,11.32,42.52,20.59,95,20.7s95-9,95-20.3C328.51,680,308.85,673.26,279.78,669.69Z"/><path class="cls-2" d="M219.45,608.53S207,654,212,668s12,17,19,13,9-15.67,5.5-33.83S233,606,233,606Z"/><path class="cls-2" d="M201,606a32.78,32.78,0,0,1-5,30c-5,19-11,29,0,36s31,0,31,0V609.57Z"/><path class="cls-3" d="M189.5,333S180,348,171,364s-4,71,15,133c-3,46,5,118,12,124s2,10,17,1c8-17,21.5-223,21.5-223l-8-68Z"/><path class="cls-4" d="M166.2,278.85a78,78,0,0,0,2.48,23.87c-8.13,8.88-13.77,41.64-12,77.66-11,10.19-5.43,34.75.68,45.17,7.75-2.82,8.56-24,12.36-45.52C178.24,356,184,334.3,183,314.3s3-29.46,3-29.46Z"/><path class="cls-5" d="M279.43,290.33s.21,16.42-3.5,25.1c5.34,8.27,27.45,46.33,24.77,81.15,6.88,18.16,2.86,24.86-8,26.55s-6.3-40.51-6.3-40.51-18.17-37.94-26.59-50.15,2.56-39.22,2.56-39.22Z"/><path class="cls-6" d="M273.5,237s23,31,10,51-27,13-27,13Z"/><path class="cls-7" d="M177.44,244s-24,20.71-11,38.41S199,285.91,199,285.91Z"/><path class="cls-8" d="M207.5,333.79s12,24.21-7,30.21c-10-3-19,1-5,8S219,389,220,398c-2,16-5,73-5,109V622c3-11,12-18,19-1,6-7,22-68,14-110,7-37,44-127,12.5-181C240.5,332,207.5,333.79,207.5,333.79Z"/><circle id="Ellipse_6" data-name="Ellipse 6" class="cls-2" cx="224.75" cy="183.9" r="43.8"/><path id="Path_7" data-name="Path 7" class="cls-9" d="M209.22,212.17s3.91,21.66-7.91,27.55S223.43,257,223.43,257l14.77-3.92,9.38-20.17s-11.81-1-8.84-18.71Z"/><path id="Path_8" data-name="Path 8" class="cls-5" d="M209.22,212.17s3.91,21.66-7.91,27.55S223.43,257,223.43,257l14.77-3.92,9.38-20.17s-11.81-1-8.84-18.71Z"/><circle id="Ellipse_7" data-name="Ellipse 7" class="cls-4" cx="223.26" cy="195.7" r="28.05"/><path id="Path_10" data-name="Path 10" class="cls-7" d="M265.15,313.13c4.91,8-6.75,17.56-12.16,17.56H202.3l-10.94-6.8s-4.42-6.55-1.46-10.75-2.93-17.3-2.93-17.3l-11.26-51,5.91-1.76,9.84-2.93L202.3,237s7.37,10.29,25.58,7c0,0,11.32,1.41,17.73-12.6a19.48,19.48,0,0,1,4.1.5,5.37,5.37,0,0,1,3.28,1.85c.6.94,4.06,1.58,8,2,5.83.64,12.69.82,12.69.82l-5.48,51.87S260.24,305.18,265.15,313.13Z"/><circle id="Ellipse_8" data-name="Ellipse 8" class="cls-2" cx="235.58" cy="131.84" r="35.81"/><circle id="Ellipse_12" data-name="Ellipse 12" class="cls-2" cx="215.32" cy="96.03" r="35.81"/><ellipse id="Ellipse_13" data-name="Ellipse 13" class="cls-2" cx="203.76" cy="131.84" rx="28.47" ry="29.18"/><ellipse id="Ellipse_9" data-name="Ellipse 9" class="cls-2" cx="221.6" cy="168.66" rx="15.28" ry="25.82" transform="translate(52.67 390.05) rotate(-89.93)"/><path id="Path_14" data-name="Path 14" class="cls-2" d="M232.18,328l1.26,10.21-30.5-.46-13.3-4.86.47-10.3,11.63,2.67Z"/><path id="Path_15" data-name="Path 15" class="cls-2" d="M263.5,334l-53.22,5.68-2.42-12.57,52.27-.4a5.36,5.36,0,0,1-1.28,3.59C258,331.07,263.2,330.06,263.5,334Z"/><circle id="Ellipse_14" data-name="Ellipse 14" class="cls-10" cx="216.99" cy="332.79" r="2.46"/><circle id="Ellipse_15" data-name="Ellipse 15" class="cls-10" cx="228.29" cy="332.51" r="2.46"/></g><g id="Capa_5" data-name="Capa 5"><path class="cls-1" d="M741.28,669.69C758.41,667,769,663.28,769,659.15c0-8.29-42.52-15.07-95-15.15s-95,6.57-95,14.85c0,5.82,21,10.9,51.66,13.44-18.84,3.7-30.66,9.05-30.66,15,0,11.32,42.52,20.59,95,20.7s95-9,95-20.3C790,680,770.35,673.26,741.28,669.69Z"/><path class="cls-2" d="M665,586a32.78,32.78,0,0,1-5,30c-5,19-11,29,0,36s31,0,31,0V589.57Z"/><path class="cls-3" d="M651,333a200.16,200.16,0,0,1-14,31c-9,16-5,68,14,130-3,46,4,90,11,96s10,20,25,11c8-17,11-202,11-202l-8-68Z"/><path class="cls-4" d="M629,278a78.18,78.18,0,0,0,0,24c-9,8-18,40-20,76-12,9-9,34-4,45,8-2,11-23,17-44,11-23,19-44,20-64s6-29,6-29Z"/><path class="cls-5" d="M742.32,291.74S740,308,735,316c4,9,20,50,12,84,4,19-1,25-12,25s0-41,0-41-12.12-40.28-18.56-53.64S725,292,725,292Z"/><path class="cls-6" d="M735,237s23,31,10,51-27,13-27,13Z"/><path class="cls-7" d="M640.13,244S614,262,625,281s32,7,32,7Z"/><path class="cls-2" d="M687.09,611.79s2.34,22.43-9.38,43.32C673.29,682.89,671,695,678,698s20,0,20,0l-3-18s8,7,14-4,23-46,6-45-10,0-10,0l10-36Z"/><path class="cls-8" d="M669,333.79S681,358,662,364c-10-3-19,1-5,8s34,18,35,27c-2,16-11,89-11,125s-10,72,0,96c3-11,27-22,34-5,6-7,11-66,3-108,7-37,46-137,4-177C702,332,669,333.79,669,333.79Z"/><circle id="Ellipse_6-2" data-name="Ellipse 6" class="cls-2" cx="686.25" cy="183.9" r="43.8"/><path id="Path_7-2" data-name="Path 7" class="cls-9" d="M670.72,212.17s3.91,21.66-7.91,27.55S684.93,257,684.93,257l14.77-3.92,9.38-20.17s-11.81-1-8.84-18.71Z"/><path id="Path_8-2" data-name="Path 8" class="cls-5" d="M670.72,212.17s3.91,21.66-7.91,27.55S684.93,257,684.93,257l14.77-3.92,9.38-20.17s-11.81-1-8.84-18.71Z"/><circle id="Ellipse_7-2" data-name="Ellipse 7" class="cls-4" cx="684.76" cy="195.7" r="28.05"/><path id="Path_10-2" data-name="Path 10" class="cls-7" d="M726.65,313.13c4.91,8-6.75,17.56-12.16,17.56H663.8l-10.94-6.8s-4.42-6.55-1.46-10.75-2.93-17.3-2.93-17.3l-11.26-51,5.91-1.76,9.84-2.93L663.8,237s7.37,10.29,25.58,7c0,0,11.32,1.41,17.73-12.6a19.48,19.48,0,0,1,4.1.5,5.37,5.37,0,0,1,3.28,1.85c.6.94,4.06,1.58,8,2,5.83.64,12.69.82,12.69.82l-5.48,51.87S721.74,305.18,726.65,313.13Z"/><circle id="Ellipse_8-2" data-name="Ellipse 8" class="cls-2" cx="701.08" cy="131.84" r="35.81"/><circle id="Ellipse_12-2" data-name="Ellipse 12" class="cls-2" cx="671.82" cy="96.03" r="35.81"/><ellipse id="Ellipse_13-2" data-name="Ellipse 13" class="cls-2" cx="662.26" cy="131.84" rx="28.47" ry="29.18"/><ellipse id="Ellipse_9-2" data-name="Ellipse 9" class="cls-2" cx="683.1" cy="168.66" rx="15.28" ry="25.82" transform="translate(513.6 851.55) rotate(-89.93)"/><path id="Path_14-2" data-name="Path 14" class="cls-2" d="M693.68,328l1.26,10.21-30.5-.46-13.3-4.86.47-10.3,11.63,2.67Z"/><path id="Path_15-2" data-name="Path 15" class="cls-2" d="M725,334l-53.22,5.68-2.42-12.57,52.27-.4a5.36,5.36,0,0,1-1.28,3.59C719.49,331.07,724.7,330.06,725,334Z"/><circle id="Ellipse_14-2" data-name="Ellipse 14" class="cls-10" cx="678.49" cy="332.79" r="2.46"/><circle id="Ellipse_15-2" data-name="Ellipse 15" class="cls-10" cx="689.79" cy="332.51" r="2.46"/></g><g id="Capa_5_copia" data-name="Capa 5 copia"><path class="cls-8" d="M1086.5,333s-25.5,45-15.5,88,20.5,81,37.5,81,13.83-41,13.83-41l.17-128Z"/><path class="cls-1" d="M1176.28,669.69c17.13-2.69,32.72-6.41,32.72-10.54,0-8.29-42.52-15.07-95-15.15s-95,6.57-95,14.85c0,5.82,16,10.9,46.66,13.44-18.84,3.7-37.66,9.05-37.66,15,0,11.32,42.52,20.59,95,20.7s95-9,95-20.3C1218,680,1205.35,673.26,1176.28,669.69Z"/><path class="cls-2" d="M1113.5,632a35.91,35.91,0,0,1-5,23c-7,11-3,17,0,21s24,5,27,0,0-13-3-25,0-35,0-35Z"/><path class="cls-2" d="M1097.5,586s4,14-3,28c-4,9-5.72,30,4.14,30s14.86,1,16.86-19,10.14-46.57,10.14-46.57Z"/><path class="cls-4" d="M1171.63,287.45s-2.19,11.84-4.27,22.69c3.88,11.44,6,20.69,8.78,63.18,2.39,16.32,9.95,21.09,8.86,32s-5,19.61-10,20.11c-4.08.6-5.37-6.57-4.18-18.51,1.58-5.87-3.89-11.44-7.87-21.89s-20.5-59.53-20.5-59.53l4.34-40.56,23.68-5.68Z"/><path class="cls-4" d="M1063.53,277s.46,25.07-1,32-5.92,14.66-15,64.2c-4.79,12.73-13.76,28.21-6.45,39.68,5.5,8.35,11.49,8.72,12.08-17.29-1.07-15.1,9.75-44.49,16.54-57.09s12.07-33.33,11.68-43.37S1094,270.84,1094,270.84Z"/><path class="cls-7" d="M1074.15,241.23s-22.52,22.24-13.71,42.91c3.81,7.71,23,7.79,23,7.79l3.75-41.94Z"/><path class="cls-7" d="M1170,242s14.37,42.63.58,47.53-22.79-3.11-22.79-3.11L1156,249.1Z"/><path class="cls-8" d="M1157.5,333s23,15,10,87-18,66-18,91,5,45-17,121c-20,1-19,0-19,0s-4-80,0-115,10-108,5-119c2,0,0-65,0-65Z"/><path class="cls-3" d="M1118.5,398s7,77,0,119c7-6,10-29,9-46s-7-73-4-73,12-14,12-14Z"/><circle id="Ellipse_6-3" data-name="Ellipse 6" class="cls-2" cx="1121.25" cy="183.9" r="43.8"/><path id="Path_8-3" data-name="Path 8" class="cls-5" d="M1107.17,210.82s1.59,22-10.78,26.55,20.17,19.51,20.17,19.51l15.1-2.34,11.46-19s-11.64-2.25-6.81-19.55Z"/><circle id="Ellipse_7-3" data-name="Ellipse 7" class="cls-4" cx="1119.76" cy="195.7" r="28.05"/><path id="Path_10-3" data-name="Path 10" class="cls-7" d="M1157.08,315c4.52,8.18-7.58,17.22-13,17s-50.64-2.41-50.64-2.41l-10.6-7.32s-4.1-6.75-.95-10.8S1079.8,294,1079.8,294l-11.3-52,6-2,12-3,11.42-1.05s6.87,14.63,25.22,12.25c0,0,11.23,0,18.31-13.74a20,20,0,0,1,4.07.69,5.39,5.39,0,0,1,3.19,2c.55,1,4,1.77,7.88,2.39,5.79.91,12.63,1.42,12.63,1.42l-7.94,49.55S1152.55,306.85,1157.08,315Z"/><circle id="Ellipse_8-3" data-name="Ellipse 8" class="cls-2" cx="1122.08" cy="131.84" r="35.81"/><circle id="Ellipse_12-3" data-name="Ellipse 12" class="cls-2" cx="1117.82" cy="96.03" r="35.81"/><ellipse id="Ellipse_13-3" data-name="Ellipse 13" class="cls-2" cx="1101.26" cy="131.84" rx="28.47" ry="29.18"/><ellipse id="Ellipse_9-3" data-name="Ellipse 9" class="cls-2" cx="1118.1" cy="168.66" rx="15.28" ry="25.82" transform="translate(948.07 1286.55) rotate(-89.93)"/><path id="Path_14-3" data-name="Path 14" class="cls-2" d="M1128.68,328l1.26,10.21-30.5-.46-13.3-4.86.47-10.3,11.63,2.67Z"/><path id="Path_15-3" data-name="Path 15" class="cls-2" d="M1160,334l-53.22,5.68-2.42-12.57,52.27-.4a5.36,5.36,0,0,1-1.28,3.59C1154.49,331.07,1159.7,330.06,1160,334Z"/><circle id="Ellipse_14-3" data-name="Ellipse 14" class="cls-10" cx="1113.49" cy="332.79" r="2.46"/><circle id="Ellipse_15-3" data-name="Ellipse 15" class="cls-10" cx="1124.79" cy="332.51" r="2.46"/><path class="cls-3" d="M1123,489s6-49-11-69-38.79,6.88-37,16,18.58,55.46,18.58,55.46S1077.5,505,1081.5,536a191.12,191.12,0,0,0,16,55s11.5,11,18.5,0c0,0,7.12-95.29,6.56-111.14"/></g><g id="Capa_5_copia_5" data-name="Capa 5 copia 5"><path class="cls-8" d="M2941.5,333s25.5,45,15.5,88-20.5,81-37.5,81-13.83-41-13.83-41l-.17-128Z"/><path class="cls-1" d="M2851.72,669.69c-17.13-2.69-32.72-6.41-32.72-10.54,0-8.29,42.52-15.07,95-15.15s95,6.57,95,14.85c0,5.82-16,10.9-46.66,13.44,18.84,3.7,37.66,9.05,37.66,15,0,11.32-42.52,20.59-95,20.7s-95-9-95-20.3C2810,680,2822.65,673.26,2851.72,669.69Z"/><path class="cls-2" d="M2914.5,632a35.91,35.91,0,0,0,5,23c7,11,3,17,0,21s-24,5-27,0,0-13,3-25,0-35,0-35Z"/><path class="cls-2" d="M2930.5,586s-4,14,3,28c4,9,5.72,30-4.14,30s-14.86,1-16.86-19-10.14-46.57-10.14-46.57Z"/><path class="cls-4" d="M2856.37,287.45s2.19,11.84,4.27,22.69c-3.88,11.44-6,20.69-8.78,63.18-2.39,16.32-10,21.09-8.86,32s5,19.61,10,20.11c4.08.6,5.37-6.57,4.18-18.51-1.58-5.87,3.89-11.44,7.87-21.89s20.5-59.53,20.5-59.53L2881.25,285l-23.68-5.68Z"/><path class="cls-4" d="M2964.47,277s-.46,25.07,1,32,5.92,14.66,15,64.2c4.79,12.73,13.76,28.21,6.45,39.68-5.5,8.35-11.49,8.72-12.08-17.29,1.07-15.1-9.75-44.49-16.54-57.09s-12.07-33.33-11.68-43.37S2934,270.84,2934,270.84Z"/><path class="cls-7" d="M2953.85,241.23s22.52,22.24,13.71,42.91c-3.81,7.71-23,7.79-23,7.79L2940.76,250Z"/><path class="cls-7" d="M2858,242s-14.37,42.63-.58,47.53,22.79-3.11,22.79-3.11l-8.12-37.31Z"/><path class="cls-8" d="M2870.5,333s-23,15-10,87,18,66,18,91-5,45,17,121c20,1,19,0,19,0s4-80,0-115-10-108-5-119c-2,0,0-65,0-65Z"/><path class="cls-3" d="M2909.5,398s-7,77,0,119c-7-6-10-29-9-46s7-73,4-73-12-14-12-14Z"/><circle id="Ellipse_6-4" data-name="Ellipse 6" class="cls-2" cx="2906.75" cy="183.9" r="43.8"/><path id="Path_8-4" data-name="Path 8" class="cls-5" d="M2891.69,215.94c4.83,17.3-6.81,19.55-6.81,19.55l11.46,19,15.1,2.34s32.55-14.9,20.17-19.51-10.78-26.55-10.78-26.55Z"/><circle id="Ellipse_7-4" data-name="Ellipse 7" class="cls-4" cx="2908.24" cy="195.7" r="28.05"/><path id="Path_10-4" data-name="Path 10" class="cls-7" d="M2866.72,290.52,2858.78,241s6.84-.51,12.63-1.42c3.91-.62,7.33-1.42,7.88-2.39a5.39,5.39,0,0,1,3.19-2,20,20,0,0,1,4.07-.69c7.08,13.69,18.31,13.74,18.31,13.74,18.35,2.38,25.22-12.25,25.22-12.25L2941.5,237l12,3,6,2-11.3,52s-5.26,13.36-2.11,17.42-1,10.8-1,10.8l-10.6,7.32s-45.23,2.14-50.64,2.41-17.5-8.78-13-17S2866.72,290.52,2866.72,290.52Z"/><circle id="Ellipse_8-4" data-name="Ellipse 8" class="cls-2" cx="2905.92" cy="131.84" r="35.81"/><circle id="Ellipse_12-4" data-name="Ellipse 12" class="cls-2" cx="2910.18" cy="96.03" r="35.81"/><ellipse id="Ellipse_13-4" data-name="Ellipse 13" class="cls-2" cx="2926.74" cy="131.84" rx="28.47" ry="29.18"/><ellipse id="Ellipse_9-4" data-name="Ellipse 9" class="cls-2" cx="2909.9" cy="168.66" rx="25.82" ry="15.28" transform="translate(-0.2 3.56) rotate(-0.07)"/><path id="Path_14-4" data-name="Path 14" class="cls-2" d="M2929.76,325.22l11.63-2.67.47,10.3-13.3,4.86-30.5.46,1.26-10.21Z"/><path id="Path_15-4" data-name="Path 15" class="cls-2" d="M2872.65,330.3a5.36,5.36,0,0,1-1.28-3.59l52.27.4-2.42,12.57L2868,334C2868.3,330.06,2873.51,331.07,2872.65,330.3Z"/><circle id="Ellipse_14-4" data-name="Ellipse 14" class="cls-10" cx="2914.51" cy="332.79" r="2.46"/><circle id="Ellipse_15-4" data-name="Ellipse 15" class="cls-10" cx="2903.21" cy="332.51" r="2.46"/><path class="cls-3" d="M2905,489s-6-49,11-69,38.79,6.88,37,16-18.58,55.46-18.58,55.46S2950.5,505,2946.5,536a191.12,191.12,0,0,1-16,55s-11.5,11-18.5,0c0,0-7.12-95.29-6.56-111.14"/></g><g id="Capa_5_copia_4" data-name="Capa 5 copia 4"><path class="cls-1" d="M1619.78,669.69c17.13-2.69,32.72-6.41,32.72-10.54,0-8.29-42.52-15.07-95-15.15s-95,6.57-95,14.85c0,5.82,16,10.9,46.66,13.44-18.84,3.7-37.66,9.05-37.66,15,0,11.32,42.52,20.59,95,20.7s95-9,95-20.3C1661.51,680,1648.85,673.26,1619.78,669.69Z"/><path class="cls-2" d="M1557,632a35.91,35.91,0,0,1-5,23c-7,11-3,17,0,21s24,5,27,0,0-13-3-25,0-35,0-35Z"/><path class="cls-2" d="M1541,586s4,14-3,28c-4,9-5.72,30,4.14,30s14.86,1,16.86-19,10.14-46.57,10.14-46.57Z"/><path class="cls-3" d="M1537.08,491.46S1521,505,1525,536a191.12,191.12,0,0,0,16,55s18,15,25,4,5-124,5-124Z"/><path class="cls-4" d="M1615,286s-1,12-2,23c5,11,8,20,15,62,4,16,12,20,12,31s-3,20-8,21c-4,1-6-6-6-18,1-6-5-11-10-21s-26.3-57.21-26.3-57.21L1590,286l23-8Z"/><path class="cls-4" d="M1511,283s2,25,1,32-5,15-11,65c-4,13-12,29-4,40,6,8,12,8,11-18-2-15,7-45,13-58s10-34,9-44,11-25,11-25Z"/><path class="cls-7" d="M1513.67,241.44S1495,267,1507,286c5,7,24,4,24,4l-3-42Z"/><path class="cls-7" d="M1613,241s20,40.3,7,47-23,0-23,0l3-38Z"/><path class="cls-8" d="M1601,333s23,15,10,87-18,66-18,91,5,45-17,121c-20,1-19,0-19,0s-4-80,0-115,10-108,5-119c2,0,0-65,0-65Z"/><path class="cls-8" d="M1530,333s-28,44-18,87,23,82,40,82,13.83-41,13.83-41l.17-128Z"/><path class="cls-3" d="M1562,398s7,77,0,119c7-6,10-29,9-46s-7-73-4-73,12-14,12-14Z"/><circle id="Ellipse_6-5" data-name="Ellipse 6" class="cls-2" cx="1564.75" cy="183.9" r="43.8"/><path id="Path_8-5" data-name="Path 8" class="cls-5" d="M1550.67,210.82s1.59,22-10.78,26.55,20.17,19.51,20.17,19.51l15.1-2.34,11.46-19s-11.64-2.25-6.81-19.55Z"/><circle id="Ellipse_7-5" data-name="Ellipse 7" class="cls-4" cx="1563.26" cy="195.7" r="28.05"/><path id="Path_10-5" data-name="Path 10" class="cls-7" d="M1600.58,315c4.52,8.18-7.58,17.22-13,17s-50.64-2.41-50.64-2.41l-10.6-7.32s-4.1-6.75-.95-10.8S1523.3,294,1523.3,294L1512,242l6-2,12-3,11.42-1.05s6.87,14.63,25.22,12.25c0,0,11.23,0,18.31-13.74a20,20,0,0,1,4.07.69,5.39,5.39,0,0,1,3.19,2c.55,1,4,1.77,7.88,2.39,5.79.91,12.63,1.42,12.63,1.42l-7.94,49.55S1596.05,306.85,1600.58,315Z"/><circle id="Ellipse_8-5" data-name="Ellipse 8" class="cls-2" cx="1565.58" cy="131.84" r="35.81"/><circle id="Ellipse_12-5" data-name="Ellipse 12" class="cls-2" cx="1561.32" cy="96.03" r="35.81"/><ellipse id="Ellipse_13-5" data-name="Ellipse 13" class="cls-2" cx="1544.76" cy="131.84" rx="28.47" ry="29.18"/><ellipse id="Ellipse_9-5" data-name="Ellipse 9" class="cls-2" cx="1561.6" cy="168.66" rx="15.28" ry="25.82" transform="translate(1391.03 1730.05) rotate(-89.93)"/><path id="Path_14-5" data-name="Path 14" class="cls-2" d="M1572.18,328l1.26,10.21-30.5-.46-13.3-4.86.47-10.3,11.63,2.67Z"/><path id="Path_15-5" data-name="Path 15" class="cls-2" d="M1603.5,334l-53.22,5.68-2.42-12.57,52.27-.4a5.36,5.36,0,0,1-1.28,3.59C1598,331.07,1603.2,330.06,1603.5,334Z"/><circle id="Ellipse_14-5" data-name="Ellipse 14" class="cls-10" cx="1556.99" cy="332.79" r="2.46"/><circle id="Ellipse_15-5" data-name="Ellipse 15" class="cls-10" cx="1568.29" cy="332.51" r="2.46"/></g><g id="Capa_6" data-name="Capa 6"><path class="cls-1" d="M1957.22,669.69c-17.13-2.69-27.72-6.41-27.72-10.54,0-8.29,42.52-15.07,95-15.15s95,6.57,95,14.85c0,5.82-21,10.9-51.66,13.44,18.84,3.7,30.66,9.05,30.66,15,0,11.32-42.52,20.59-95,20.7s-95-9-95-20.3C1908.49,680,1928.15,673.26,1957.22,669.69Z"/><path class="cls-2" d="M1994,594s-4,25-8,31,0,33,8,34,23-7,20-29-8-43-8-43Z"/><path class="cls-2" d="M2026,596s0,26,4,33,2,18-10,18-22,6-19-9,13.13-31.45,12.06-43.73S2026,596,2026,596Z"/><path class="cls-3" d="M2047.5,333s10.19,16.69,11.5,35c2,28-3,64-22,126,3,46-2.44,104.58-11,108-5,2-8,2-14.5-1-8-17-11-202-11-202l8-68Z"/><path class="cls-4" d="M2067.27,282.8a78.09,78.09,0,0,1-2.43,23.88c8.14,8.87,13.85,41.62,12.2,77.63,11,10.17,5.5,34.74-.59,45.18-7.75-2.8-8.61-24-12.45-45.5-8.61-24-14.44-45.7-13.41-65.7s-3-29.46-3-29.46Z"/><path class="cls-5" d="M1957,283.23s-.45,16.42,3.13,25.14c-5.45,8.2-28.11,45.93-25.94,80.79-7.14,18.06-3.22,24.81,7.63,26.66s6.89-40.41,6.89-40.41,18.71-37.68,27.31-49.76-2-39.26-2-39.26Z"/><path class="cls-6" d="M1964.31,237.1S1937.1,260.33,1949,281s28,15,28,15Z"/><path class="cls-7" d="M2059.2,243.67s24.57,20.07,12.05,38.1-32.47,4.35-32.47,4.35Z"/><path class="cls-8" d="M2044,333s12,21,13,29c2,22,6,22-15.5,10-13.67-7.63-34,18-35,27,2,16,11,89,11,125s-.5,46-5.5,77c-11,2-16,1-23-2-3-17-17-67-9-109-7-37-40-108-3.5-160C1996.5,332,2044,333,2044,333Z"/><circle id="Ellipse_6-6" data-name="Ellipse 6" class="cls-2" cx="2012.25" cy="183.9" r="43.8"/><path id="Path_7-3" data-name="Path 7" class="cls-9" d="M1998.26,214.18c3,17.71-8.84,18.71-8.84,18.71l9.38,20.17,14.77,3.92s33.94-11.36,22.12-17.26-7.91-27.55-7.91-27.55Z"/><path id="Path_8-6" data-name="Path 8" class="cls-5" d="M1998.26,214.18c3,17.71-8.84,18.71-8.84,18.71l9.38,20.17,14.77,3.92s33.94-11.36,22.12-17.26-7.91-27.55-7.91-27.55Z"/><circle id="Ellipse_7-6" data-name="Ellipse 7" class="cls-4" cx="2013.74" cy="195.7" r="28.05"/><path id="Path_10-6" data-name="Path 10" class="cls-7" d="M1968.82,288.46l-5.48-51.87s6.86-.18,12.69-.82c3.92-.43,7.38-1.07,8-2a5.37,5.37,0,0,1,3.28-1.85,19.48,19.48,0,0,1,4.1-.5c6.41,14,17.73,12.6,17.73,12.6,18.21,3.25,25.58-7,25.58-7l10.84,3.22,9.84,2.93,5.91,1.76-11.26,51s-5.88,13.09-2.93,17.3-1.46,10.75-1.46,10.75l-10.94,6.8H1984c-5.41,0-17.07-9.6-12.16-17.56S1968.82,288.46,1968.82,288.46Z"/><circle id="Ellipse_8-6" data-name="Ellipse 8" class="cls-2" cx="2001.42" cy="131.84" r="35.81"/><circle id="Ellipse_12-6" data-name="Ellipse 12" class="cls-2" cx="2022.68" cy="96.03" r="35.81"/><ellipse id="Ellipse_13-6" data-name="Ellipse 13" class="cls-2" cx="2038.24" cy="131.84" rx="28.47" ry="29.18"/><ellipse id="Ellipse_9-6" data-name="Ellipse 9" class="cls-2" cx="2015.4" cy="168.66" rx="25.82" ry="15.28" transform="translate(-0.2 2.46) rotate(-0.07)"/><path id="Path_14-6" data-name="Path 14" class="cls-2" d="M2035.26,325.22l11.63-2.67.47,10.3-13.3,4.86-30.5.46,1.26-10.21Z"/><path id="Path_15-6" data-name="Path 15" class="cls-2" d="M1978.15,330.3a5.36,5.36,0,0,1-1.28-3.59l52.27.4-2.42,12.57L1973.5,334C1973.8,330.06,1979,331.07,1978.15,330.3Z"/><circle id="Ellipse_14-6" data-name="Ellipse 14" class="cls-10" cx="2020.01" cy="332.79" r="2.46"/><circle id="Ellipse_15-6" data-name="Ellipse 15" class="cls-10" cx="2008.71" cy="332.51" r="2.46"/></g><g id="Capa_6_copia" data-name="Capa 6 copia"><path class="cls-1" d="M2405.22,669.69c-17.13-2.69-27.72-6.41-27.72-10.54,0-8.29,42.52-15.07,95-15.15s95,6.57,95,14.85c0,5.82-21,10.9-51.66,13.44,18.84,3.7,30.66,9.05,30.66,15,0,11.32-42.52,20.59-95,20.7s-95-9-95-20.3C2356.49,680,2376.15,673.26,2405.22,669.69Z"/><path class="cls-2" d="M2481.5,586a32.78,32.78,0,0,0,5,30c5,19,11,29,0,36s-31,0-31,0V589.57Z"/><path class="cls-3" d="M2495.5,333a200.16,200.16,0,0,0,14,31c9,16,5,68-14,130,3,46-4,90-11,96s-10,20-25,11c-8-17-11-202-11-202l8-68Z"/><path class="cls-4" d="M2517.5,278a78.18,78.18,0,0,1,0,24c9,8,18,40,20,76,12,9,9,34,4,45-8-2-11-23-17-44-11-23-19-44-20-64s-6-29-6-29Z"/><path class="cls-5" d="M2404.18,291.74S2406.5,308,2411.5,316c-4,9-20,50-12,84-4,19,1,25,12,25s0-41,0-41,12.12-40.28,18.56-53.64S2421.5,292,2421.5,292Z"/><path class="cls-6" d="M2411.5,237s-23,31-10,51,27,13,27,13Z"/><path class="cls-7" d="M2506.37,244s26.13,18,15.13,37-32,7-32,7Z"/><path class="cls-2" d="M2459.41,611.79s-2.34,22.43,9.38,43.32c4.42,27.78,6.71,39.89-.29,42.89s-20,0-20,0l3-18s-8,7-14-4-23-46-6-45,10,0,10,0l-10-36Z"/><path class="cls-8" d="M2477.5,333.79s-12,24.21,7,30.21c10-3,19,1,5,8s-34,18-35,27c2,16,11,89,11,125s10,72,0,96c-3-11-27-22-34-5-6-7-11-66-3-108-7-37-46-137-4-177C2444.5,332,2477.5,333.79,2477.5,333.79Z"/><circle id="Ellipse_6-7" data-name="Ellipse 6" class="cls-2" cx="2460.25" cy="183.9" r="43.8"/><path id="Path_7-4" data-name="Path 7" class="cls-9" d="M2446.26,214.18c3,17.71-8.84,18.71-8.84,18.71l9.38,20.17,14.77,3.92s33.94-11.36,22.12-17.26-7.91-27.55-7.91-27.55Z"/><path id="Path_8-7" data-name="Path 8" class="cls-5" d="M2446.26,214.18c3,17.71-8.84,18.71-8.84,18.71l9.38,20.17,14.77,3.92s33.94-11.36,22.12-17.26-7.91-27.55-7.91-27.55Z"/><circle id="Ellipse_7-7" data-name="Ellipse 7" class="cls-4" cx="2461.74" cy="195.7" r="28.05"/><path id="Path_10-7" data-name="Path 10" class="cls-7" d="M2416.82,288.46l-5.48-51.87s6.86-.18,12.69-.82c3.92-.43,7.38-1.07,8-2a5.37,5.37,0,0,1,3.28-1.85,19.48,19.48,0,0,1,4.1-.5c6.41,14,17.73,12.6,17.73,12.6,18.21,3.25,25.58-7,25.58-7l10.84,3.22,9.84,2.93,5.91,1.76-11.26,51s-5.88,13.09-2.93,17.3-1.46,10.75-1.46,10.75l-10.94,6.8H2432c-5.41,0-17.07-9.6-12.16-17.56S2416.82,288.46,2416.82,288.46Z"/><circle id="Ellipse_8-7" data-name="Ellipse 8" class="cls-2" cx="2446.42" cy="131.84" r="35.81"/><circle id="Ellipse_12-7" data-name="Ellipse 12" class="cls-2" cx="2474.68" cy="96.03" r="35.81"/><ellipse id="Ellipse_13-7" data-name="Ellipse 13" class="cls-2" cx="2484.24" cy="131.84" rx="28.47" ry="29.18"/><ellipse id="Ellipse_9-7" data-name="Ellipse 9" class="cls-2" cx="2463.4" cy="168.66" rx="25.82" ry="15.28" transform="translate(-0.2 3.01) rotate(-0.07)"/><path id="Path_14-7" data-name="Path 14" class="cls-2" d="M2483.26,325.22l11.63-2.67.47,10.3-13.3,4.86-30.5.46,1.26-10.21Z"/><path id="Path_15-7" data-name="Path 15" class="cls-2" d="M2426.15,330.3a5.36,5.36,0,0,1-1.28-3.59l52.27.4-2.42,12.57L2421.5,334C2421.8,330.06,2427,331.07,2426.15,330.3Z"/><circle id="Ellipse_14-7" data-name="Ellipse 14" class="cls-10" cx="2468.01" cy="332.79" r="2.46"/><circle id="Ellipse_15-7" data-name="Ellipse 15" class="cls-10" cx="2456.71" cy="332.51" r="2.46"/></g><g id="Capa_5_copia_2" data-name="Capa 5 copia 2"><path class="cls-1" d="M3301.22,669.69c-17.13-2.69-32.72-6.41-32.72-10.54,0-8.29,42.52-15.07,95-15.15s95,6.57,95,14.85c0,5.82-16,10.9-46.66,13.44,18.84,3.7,37.66,9.05,37.66,15,0,11.32-42.52,20.59-95,20.7s-95-9-95-20.3C3259.49,680,3272.15,673.26,3301.22,669.69Z"/><path class="cls-2" d="M3364,632a35.91,35.91,0,0,0,5,23c7,11,3,17,0,21s-24,5-27,0,0-13,3-25,0-35,0-35Z"/><path class="cls-2" d="M3380,586s-4,14,3,28c4,9,5.72,30-4.14,30S3364,645,3362,625s-10.14-46.57-10.14-46.57Z"/><path class="cls-3" d="M3383.92,491.46S3400,505,3396,536a191.12,191.12,0,0,1-16,55s-18,15-25,4-5-124-5-124Z"/><path class="cls-4" d="M3306,286s1,12,2,23c-5,11-8,20-15,62-4,16-12,20-12,31s3,20,8,21c4,1,6-6,6-18-1-6,5-11,10-21s26.3-57.21,26.3-57.21L3331,286l-23-8Z"/><path class="cls-4" d="M3410,283s-2,25-1,32,5,15,11,65c4,13,12,29,4,40-6,8-12,8-11-18,2-15-7-45-13-58s-10-34-9-44-11-25-11-25Z"/><path class="cls-7" d="M3407.33,241.44S3426,267,3414,286c-5,7-24,4-24,4l3-42Z"/><path class="cls-7" d="M3308,241s-20,40.3-7,47,23,0,23,0l-3-38Z"/><path class="cls-8" d="M3320,333s-23,15-10,87,18,66,18,91-5,45,17,121c20,1,19,0,19,0s4-80,0-115-10-108-5-119c-2,0,0-65,0-65Z"/><path class="cls-8" d="M3391,333s28,44,18,87-23,82-40,82-13.83-41-13.83-41L3355,333Z"/><path class="cls-3" d="M3359,398s-7,77,0,119c-7-6-10-29-9-46s7-73,4-73-12-14-12-14Z"/><circle id="Ellipse_6-8" data-name="Ellipse 6" class="cls-2" cx="3356.25" cy="183.9" r="43.8"/><path id="Path_8-8" data-name="Path 8" class="cls-5" d="M3341.19,215.94c4.83,17.3-6.81,19.55-6.81,19.55l11.46,19,15.1,2.34s32.55-14.9,20.17-19.51-10.78-26.55-10.78-26.55Z"/><circle id="Ellipse_7-8" data-name="Ellipse 7" class="cls-4" cx="3357.74" cy="195.7" r="28.05"/><path id="Path_10-8" data-name="Path 10" class="cls-7" d="M3316.22,290.52,3308.28,241s6.84-.51,12.63-1.42c3.91-.62,7.33-1.42,7.88-2.39a5.39,5.39,0,0,1,3.19-2,20,20,0,0,1,4.07-.69c7.08,13.69,18.31,13.74,18.31,13.74,18.35,2.38,25.22-12.25,25.22-12.25L3391,237l12,3,6,2-11.3,52s-5.26,13.36-2.11,17.42-1,10.8-1,10.8l-10.6,7.32s-45.23,2.14-50.64,2.41-17.5-8.78-13-17S3316.22,290.52,3316.22,290.52Z"/><circle id="Ellipse_8-8" data-name="Ellipse 8" class="cls-2" cx="3355.42" cy="131.84" r="35.81"/><circle id="Ellipse_12-8" data-name="Ellipse 12" class="cls-2" cx="3359.68" cy="96.03" r="35.81"/><ellipse id="Ellipse_13-8" data-name="Ellipse 13" class="cls-2" cx="3376.24" cy="131.84" rx="28.47" ry="29.18"/><ellipse id="Ellipse_9-8" data-name="Ellipse 9" class="cls-2" cx="3359.4" cy="168.66" rx="25.82" ry="15.28" transform="translate(-0.2 4.1) rotate(-0.07)"/><path id="Path_14-8" data-name="Path 14" class="cls-2" d="M3379.26,325.22l11.63-2.67.47,10.3-13.3,4.86-30.5.46,1.26-10.21Z"/><path id="Path_15-8" data-name="Path 15" class="cls-2" d="M3322.15,330.3a5.36,5.36,0,0,1-1.28-3.59l52.27.4-2.42,12.57L3317.5,334C3317.8,330.06,3323,331.07,3322.15,330.3Z"/><circle id="Ellipse_14-8" data-name="Ellipse 14" class="cls-10" cx="3364.01" cy="332.79" r="2.46"/><circle id="Ellipse_15-8" data-name="Ellipse 15" class="cls-10" cx="3352.71" cy="332.51" r="2.46"/></g></g></svg>