<svg xmlns="http://www.w3.org/2000/svg" width="812.591" height="576.864" viewBox="0 0 812.591 576.864">
  <g id="Group_455" data-name="Group 455" transform="translate(-3906 -380.193)">
    <rect id="Rectangle_11" data-name="Rectangle 11" width="114.145" height="2.538" transform="translate(4248.156 659.069)" fill="#2703a6" opacity="0.1"/>
    <rect id="Rectangle_12" data-name="Rectangle 12" width="114.145" height="9.716" transform="translate(4248.156 664.982)" fill="#2703a6" opacity="0.1"/>
    <rect id="Rectangle_19" data-name="Rectangle 19" width="22.466" height="22.466" transform="translate(4073.921 666.979)" fill="#2703a6" opacity="0.1"/>
    <path id="Path_38" data-name="Path 38" d="M139.51,356.93v12.855h76.9V356.93Zm7.657,12.044h-6.306V357.741h6.306Zm7.657,0h-6.306V357.741h6.306Zm7.64,0h-6.306V357.741h6.306Zm7.657,0h-6.306V357.741h6.306Zm7.649,0h-6.306V357.741h6.306Zm7.657,0h-6.306V357.741h6.306Zm7.657,0H186.78V357.741h6.306Zm7.649,0h-6.306V357.741h6.306Zm7.649,0h-6.306V357.741h6.306Zm7.649,0h-6.323V357.741h6.306Z" transform="translate(3822.167 201.311)" fill="#2703a6" opacity="0.1"/>
    <path id="Path_39" data-name="Path 39" d="M139.51,399.84v12.847h76.9V399.84Zm7.657,12.035h-6.306V400.642h6.306Zm7.657,0h-6.306V400.642h6.306Zm7.64,0h-6.306V400.642h6.306Zm7.657,0h-6.306V400.642h6.306Zm7.649,0h-6.306V400.642h6.306Zm7.657,0h-6.306V400.642h6.306Zm7.657,0H186.78V400.642h6.306Zm7.649,0h-6.306V400.642h6.306Zm7.649,0h-6.306V400.642h6.306Zm7.649,0h-6.323V400.642h6.306Z" transform="translate(3822.167 195.825)" fill="#2703a6" opacity="0.1"/>
    <path id="Path_40" data-name="Path 40" d="M139.51,442.74v12.847h76.9V442.74Zm7.657,12.044h-6.306V443.542h6.306Zm7.657,0h-6.306V443.542h6.306Zm7.64,0h-6.306V443.542h6.306Zm7.657,0h-6.306V443.542h6.306Zm7.649,0h-6.306V443.542h6.306Zm7.657,0h-6.306V443.542h6.306Zm7.657,0H186.78V443.542h6.306Zm7.649,0h-6.306V443.542h6.306Zm7.649,0h-6.306V443.542h6.306Zm7.649,0h-6.323V443.542h6.306Z" transform="translate(3822.167 190.339)" fill="#2703a6" opacity="0.1"/>
    <path id="Path_41" data-name="Path 41" d="M139.89,485.64c.305,1.212.654,2.416,1.02,3.611v-2.8h6.306v11.233H143.85c.1.262.2.541.305.8h72.3V485.64Zm14.983,12.044h-6.306V486.451h6.306Zm7.64,0h-6.306V486.451h6.306Zm7.657,0h-6.306V486.451h6.306Zm7.649,0h-6.306V486.451h6.306Zm7.657,0h-6.306V486.451h6.306Zm7.657,0h-6.306V486.451h6.306Zm7.649,0h-6.306V486.451h6.306Zm7.649,0h-6.306V486.451h6.306Zm7.649,0h-6.323V486.451h6.306Z" transform="translate(3822.119 184.854)" fill="#2703a6" opacity="0.1"/>
    <path id="Path_42" data-name="Path 42" d="M160.36,528.55c.2.253.392.532.593.8h4.178v5.4l1.352,1.613v-6.977h6.306v11.242h-2.555c.253.262.5.541.776.8h48.063V528.55Zm20.059,12.044h-6.306V529.352h6.306Zm7.657,0h-6.306V529.352h6.306Zm7.657,0h-6.306V529.352h6.306Zm7.649,0h-6.306V529.352h6.306Zm7.649,0h-6.306V529.352h6.306Zm7.649,0h-6.306V529.352h6.306Z" transform="translate(3819.501 179.367)" fill="#e2dead" opacity="0.1"/>
    <path id="Path_43" data-name="Path 43" d="M208.73,571.45c.724.41,1.456.811,2.2,1.195v-.392h6.306v3.558l1.343.619v-4.177h6.306v6.838a2.762,2.762,0,0,0,.375.139V571.45Z" transform="translate(3813.316 173.882)" fill="#e2dead" opacity="0.1"/>
    <path id="Path_45" data-name="Path 45" d="M6.925,393.27l-5.965.314,5.965,38.3,14.547,40.406,4.291-10.579L587.193,418.7l-.1-17.164L502.517,370.56Z" transform="translate(3905.877 237.707)" fill="#e2dead"/>
    <path id="Path_46" data-name="Path 46" d="M580.249,508.794l-6.1-2.8-30.324-13.945-.419-6.279,28.85,12.864,5.9,2.625Z" transform="translate(3836.518 222.976)" fill="#e2dead"/>
    <path id="Path_47" data-name="Path 47" d="M102.132,533.226l-1.674,9.227-4.422-5.974-6.506-8.791-4.57-6.175,2.512-5.023,3.759,4.291,2.137,2.442,3.68,4.2.445.506Z" transform="translate(3895.137 219.048)" fill="#e2dead"/>
    <path id="Path_48" data-name="Path 48" d="M637.676,647.068c-.7,4.1-2.765,3.567-4.648,2.041a11.338,11.338,0,0,1-3.968-7.335L612.8,521.628l-.593-4.361-.7-5.189-.593-4.3-1.177-8.721L609,493.572l8.364-2.922L618.4,498.5l2.555,19.187.567,4.282.611,4.561.113.872.593,4.361.174,1.343,14.669,110.142A13.333,13.333,0,0,1,637.676,647.068Z" transform="translate(3762.136 184.213)" fill="#e2dead"/>
    <path id="Path_49" data-name="Path 49" d="M584.479,510.68l-6.1-2.8-1.561-6.1-.331-1.265,5.9,2.625Z" transform="translate(3832.288 221.09)" fill="#e2dead" opacity="0.1"/>
    <path id="Path_50" data-name="Path 50" d="M701.014,685.635c-.419,3.619-2.372,4.055-4.361,3.489a8.338,8.338,0,0,1-5.608-6.018L655.558,545.012l-1.91-7.4-10.657-41.522-1.361-5.233,7.125-8.381,3.384,13.038L700.7,681.964a10.02,10.02,0,0,1,.314,3.672Z" transform="translate(3757.964 185.258)" fill="#e2dead"/>
    <path id="Path_51" data-name="Path 51" d="M547.539,491.088l-3.1-3.1L543,486.544l-5.494-5.5-.584-4.352-.706-5.189,6.933,6.794,3.079,3.026.61,4.561.113.855Z" transform="translate(3837.438 224.8)" fill="#e2dead" opacity="0.1"/>
    <path id="Path_52" data-name="Path 52" d="M562.978,494.328h-8.791l-.288-.288-9.9-9.9-1.439-1.448-8.591-8.6L516.72,456.844l-3.55-3.55,5.852-2.084,5.233,5.137,8.416,8.259,10.038,9.838,15.55,15.245Z" transform="translate(3840.384 227.395)" fill="#e2dead"/>
    <path id="Path_53" data-name="Path 53" d="M168.679,519.89l-1.936,7.945-7.16,29.286-1.622,6.611L127.767,687.253a12.044,12.044,0,0,1-2.407,4.91c-2.9,3.489-4.727,1.832-5.756-.279a9.1,9.1,0,0,1-.567-6.166l38.749-157.307,2.093-8.521Z" transform="translate(3824.823 180.475)" fill="#e2dead"/>
    <path id="Path_54" data-name="Path 54" d="M144.15,475.69l-5.582,5.625-22.161,22.362-1.535,1.552-3.079,3.1-8.564,8.625-1.518,1.535-3.044,3.061-.637.654-1.613,1.622-3.768-4.186,1.7-1.64,5.9-5.739,3.018-2.93,1.509-1.457,8.625-8.4,3.052-2.965,1.526-1.483,13.631-13.256,6.262-6.088Z" transform="translate(3894.153 224.265)" fill="#e2dead"/>
    <path id="Path_55" data-name="Path 55" d="M119.528,497.87l-.27,1.483-1.3,7.16-1.535,1.552L104.78,519.8l1.291-7.622.253-1.456L118,499.353Z" transform="translate(3892.603 221.429)" fill="#e2dead" opacity="0.1"/>
    <path id="Path_56" data-name="Path 56" d="M99.116,529.61l4.64,5.294-1.674,9.227-4.422-5.974,1.047-6.14Z" transform="translate(3893.513 217.37)" fill="#e2dead" opacity="0.1"/>
    <path id="Path_57" data-name="Path 57" d="M114.28,502.97l-1.038,5.747-.567,3.1-8.564,8.625-1.518,1.535-3.044,3.061.532-3.061,1.047-6.227,3.018-2.93,1.509-1.457Z" transform="translate(3893.271 220.777)" fill="#e2dead" opacity="0.1"/>
    <path id="Path_58" data-name="Path 58" d="M193.34,516.54l-1.744,9.428-2.52,13.911L187.5,548.6,152.716,739.685c-3.183,7.849-5.5,6.1-6.881,3.288a12.35,12.35,0,0,1-.994-7.509L171.694,577.4l1.509-8.9,1.125-6.628,1.561-9.157,4.361-25.99.872-5.146Z" transform="translate(3821.511 180.903)" fill="#e2dead"/>
    <path id="Path_59" data-name="Path 59" d="M.96,393.584l20.931,41.444,565.2-33.49L502.517,370.56Z" transform="translate(3905.877 237.707)" fill="#f2f0d5"/>
    <path id="Path_380" data-name="Path 380" d="M1027.2,526.487s11.717,32.027,19.528,37.495,78.9-21.872,96.861-25-13.279-15.623-32.027-19.528S1027.2,526.487,1027.2,526.487Z" transform="translate(2946 108)" fill="#f2f0d5"/>
    <path id="Path_60" data-name="Path 60" d="M.837,396.96,0,430.869l21.35,44.8.419-37.266Z" transform="translate(3906 234.331)" fill="#e2dead"/>
    <path id="Path_61" data-name="Path 61" d="M89.942,476.17h8.791L96.8,484.089l-8.957.593Z" transform="translate(3894.769 224.203)" opacity="0.1"/>
    <path id="Path_62" data-name="Path 62" d="M110.761,477.833l12.14-5.023-1.718,9.437-11.3.733Z" transform="translate(3891.95 224.633)" opacity="0.1"/>
    <path id="Path_63" data-name="Path 63" d="M143.582,475.69h6.279l-5.582,5.625-6.96.462Z" transform="translate(3888.442 224.265)" opacity="0.1"/>
    <path id="Path_64" data-name="Path 64" d="M519.022,451.21l5.233,5.137-7.535.5-3.55-3.55Z" transform="translate(3840.384 227.395)" opacity="0.1"/>
    <path id="Path_65" data-name="Path 65" d="M541.694,446.89l1.047,7.858-8.669.576-.741-5.512Z" transform="translate(3837.806 227.947)" opacity="0.1"/>
    <path id="Path_66" data-name="Path 66" d="M576.478,451.758l-9.157.6L565.96,447.1l7.125-8.381Z" transform="translate(3833.634 228.992)" opacity="0.1"/>
    <path id="Path_67" data-name="Path 67" d="M590.1,406.08l.837,33.49L24.48,476.836,24.9,439.57Z" transform="translate(3902.87 233.165)" fill="#e2dead"/>
    <path id="Path_68" data-name="Path 68" d="M34.56,451.781l130.21-5.861.419,23.024L35.4,474.387Z" transform="translate(3901.581 228.071)" opacity="0.1"/>
    <path id="Path_69" data-name="Path 69" d="M33.12,450.341l130.21-5.861.419,23.024L33.957,472.955Z" transform="translate(3901.765 228.255)" fill="#fff"/>
    <path id="Path_70" data-name="Path 70" d="M193.817,442.444,488.128,425.28l-.419,21.769L192.98,465.887Z" transform="translate(3881.325 230.71)" opacity="0.1"/>
    <path id="Path_71" data-name="Path 71" d="M192.377,441,486.7,423.84l-.419,21.769L191.54,464.447Z" transform="translate(3881.509 230.894)" fill="#fff"/>
    <path id="Path_72" data-name="Path 72" d="M537.17,423.277l112.2-7.117.837,21.35-111.782,7.535Z" transform="translate(3837.315 231.876)" opacity="0.1"/>
    <path id="Path_73" data-name="Path 73" d="M535.73,421.837l112.2-7.117.837,21.35-111.782,7.535Z" transform="translate(3837.5 232.061)" fill="#fff"/>
    <rect id="Rectangle_30" data-name="Rectangle 30" width="15.916" height="1.256" transform="matrix(1, -0.026, 0.026, 1, 3993.478, 688.857)" opacity="0.1"/>
    <rect id="Rectangle_31" data-name="Rectangle 31" width="15.916" height="1.256" transform="matrix(1, -0.026, 0.026, 1, 3993.48, 687.602)" fill="#f2f0d5"/>
    <rect id="Rectangle_32" data-name="Rectangle 32" width="15.916" height="1.256" transform="matrix(1, -0.026, 0.026, 1, 4301.615, 670.854)" opacity="0.1"/>
    <rect id="Rectangle_33" data-name="Rectangle 33" width="15.916" height="1.256" transform="matrix(1, -0.026, 0.026, 1, 4301.608, 669.599)" fill="#f2f0d5"/>
    <rect id="Rectangle_34" data-name="Rectangle 34" width="15.916" height="1.256" transform="matrix(1, -0.026, 0.026, 1, 4128.708, 680.901)" opacity="0.1"/>
    <rect id="Rectangle_35" data-name="Rectangle 35" width="15.916" height="1.256" transform="matrix(1, -0.026, 0.026, 1, 4128.709, 679.646)" fill="#f2f0d5"/>
    <rect id="Rectangle_36" data-name="Rectangle 36" width="15.916" height="1.256" transform="matrix(1, -0.026, 0.026, 1, 4425.116, 662.483)" opacity="0.1"/>
    <rect id="Rectangle_37" data-name="Rectangle 37" width="15.916" height="1.256" transform="matrix(1, -0.026, 0.026, 1, 4425.118, 661.228)" fill="#f2f0d5"/>
    <path id="Path_74" data-name="Path 74" d="M822.325,605.523l-15.079-.829-1.012-43.275L805.99,551.1,821.9,548.18l.1,13.283Z" transform="translate(3802.943 214.996)" fill="#e2dead"/>
    <path id="Path_75" data-name="Path 75" d="M799.362,604.932l-77.454,48.142-1.674,14.652,8.372.419V657.679l50.662-28.467-61.128,75.78v11.721h10.047l-.837-12.977,70.756-80.385,8.791.837,74.524,84.571,1.675,14.233,10.047.419-1.674-14.652-59.035-73.687,39.359,27.211.837,11.722,7.954.419-.837-14.233L804.8,602.42Z" transform="translate(3814.176 208.06)" fill="#e2dead"/>
    <path id="Path_76" data-name="Path 76" d="M773.773,537.362a138.153,138.153,0,0,0,18.315-29.714c5.329-11.791,11.172-25.405,11.617-29.435.872-7.535,22.187-22.606,45.63-23.443,15.289-.549,39.107-12.48,53.846-20.722a109.635,109.635,0,0,1,45.177-13.954c17.242-1.3,33.455,2.084,25.292,22.091l-20.868,38.731-88.82,94.008s-93.493,16.475-99.232-10.012a21.34,21.34,0,0,0-1.334-3.89C762.27,558.52,761.982,551.987,773.773,537.362Z" transform="translate(3742.46 193.266)" fill="#160063"/>
    <path id="Path_137" data-name="Path 137" d="M610.7,383.17s-4,18.638,13.815,20.853l1.1-2.076S611.785,388.97,610.7,383.17Z" transform="translate(3761.968 197.956)" fill="#2703a6"/>
    <path id="Path_138" data-name="Path 138" d="M632.091,400.429l-4.143.872-.419.087s-11.05-8.974-10.91-29a49.824,49.824,0,0,0,5.233,8.346C626.283,386.545,631.263,394.281,632.091,400.429Z" transform="translate(3761.162 199.335)" fill="#2703a6"/>
    <path id="Path_139" data-name="Path 139" d="M634.555,401.336a2.616,2.616,0,0,1-2.224.3c-10.64-2.486-7.047-37.153-7.047-37.153.593.279,1.238,4.683,3.68,10.378C633.221,384.862,637.939,398.833,634.555,401.336Z" transform="translate(3760.129 200.346)" fill="#2703a6"/>
    <path id="Path_140" data-name="Path 140" d="M660.326,383.17s.689,18.638-17.129,20.853l-1.108-2.076S659.236,388.97,660.326,383.17Z" transform="translate(3757.905 197.956)" fill="#2703a6"/>
    <path id="Path_141" data-name="Path 141" d="M654.406,372.4c.131,20.059-14.225,29-14.225,29l-.419-.087-4.143-.872c.82-6.149,5.808-13.884,10.187-19.684A45.016,45.016,0,0,1,654.406,372.4Z" transform="translate(3758.733 199.333)" fill="#2703a6"/>
    <path id="Path_142" data-name="Path 142" d="M639.327,399.522a6.506,6.506,0,0,1-2.372,1.814h0a4.47,4.47,0,0,1-.872.3c-2.616.611-3.532-1.282-3.375-4.483.244-5.712,3.829-15.611,7.056-23.024,2.32-5.337,6.1-9.375,6.681-9.646C646.435,364.48,646.278,391.473,639.327,399.522Z" transform="translate(3759.107 200.346)" fill="#2703a6"/>
    <path id="Path_143" data-name="Path 143" d="M636.039,350.54s-11.878,42.124-1.657,48.482S638.664,354.273,636.039,350.54Z" transform="translate(3759.422 202.128)" fill="#2703a6"/>
    <path id="Path_144" data-name="Path 144" d="M610.7,383.17s-4,18.638,13.815,20.853l1.1-2.076S611.785,388.97,610.7,383.17Z" transform="translate(3761.968 197.956)" opacity="0.1"/>
    <path id="Path_145" data-name="Path 145" d="M632.091,400.429l-4.143.872-.419.087s-11.05-8.974-10.91-29a49.824,49.824,0,0,0,5.233,8.346C626.283,386.545,631.263,394.281,632.091,400.429Z" transform="translate(3761.162 199.335)" opacity="0.1"/>
    <path id="Path_146" data-name="Path 146" d="M634.555,401.336a2.616,2.616,0,0,1-2.224.3c-10.64-2.486-7.047-37.153-7.047-37.153.593.279,1.238,4.683,3.68,10.378C633.221,384.862,637.939,398.833,634.555,401.336Z" transform="translate(3760.129 200.346)" opacity="0.1"/>
    <path id="Path_147" data-name="Path 147" d="M660.326,383.17s.689,18.638-17.129,20.853l-1.108-2.076S659.236,388.97,660.326,383.17Z" transform="translate(3757.905 197.956)" opacity="0.1"/>
    <path id="Path_148" data-name="Path 148" d="M654.406,372.4c.131,20.059-14.225,29-14.225,29l-.419-.087-4.143-.872c.82-6.149,5.808-13.884,10.187-19.684A45.016,45.016,0,0,1,654.406,372.4Z" transform="translate(3758.733 199.333)" opacity="0.1"/>
    <path id="Path_149" data-name="Path 149" d="M639.327,399.522a6.506,6.506,0,0,1-2.372,1.814h0a4.47,4.47,0,0,1-.872.3c-2.616.611-3.532-1.282-3.375-4.483.244-5.712,3.829-15.611,7.056-23.024,2.32-5.337,6.1-9.375,6.681-9.646C646.435,364.48,646.278,391.473,639.327,399.522Z" transform="translate(3759.107 200.346)" opacity="0.1"/>
    <path id="Path_150" data-name="Path 150" d="M636.039,350.54s-11.878,42.124-1.657,48.482S638.664,354.273,636.039,350.54Z" transform="translate(3759.422 202.128)" opacity="0.1"/>
    <path id="Path_151" data-name="Path 151" d="M610.745,383.17s-2.346,18.638,15.472,20.853l1.1-2.076S611.826,388.97,610.745,383.17Z" transform="translate(3761.926 197.956)" fill="#2703a6"/>
    <path id="Path_152" data-name="Path 152" d="M633.749,400.429l-4.143.872-.419.087s-12.707-8.974-12.567-29c0,0,3.253,3.489,6.977,8.346C627.94,386.545,632.92,394.281,633.749,400.429Z" transform="translate(3761.162 199.335)" fill="#2703a6"/>
    <path id="Path_153" data-name="Path 153" d="M634.765,401.653l-4.143.872c-3.933-3.489-5.486-12.445-6.053-20.565C628.957,387.768,633.937,395.5,634.765,401.653Z" transform="translate(3760.146 198.111)" opacity="0.1"/>
    <path id="Path_154" data-name="Path 154" d="M636.236,401.336a2.616,2.616,0,0,1-2.224.3c-10.64-2.486-8.721-37.153-8.721-37.153.593.279,2.9,4.683,5.337,10.378C634.936,384.862,639.654,398.833,636.236,401.336Z" transform="translate(3760.071 200.346)" fill="#2703a6"/>
    <path id="Path_155" data-name="Path 155" d="M660.571,383.17s2.346,18.638-15.472,20.853l-1.1-2.076S659.48,388.97,660.571,383.17Z" transform="translate(3757.661 197.956)" fill="#2703a6"/>
    <path id="Path_156" data-name="Path 156" d="M654.649,372.4c.131,20.059-12.567,29-12.567,29l-.419-.087-4.143-.872c.82-6.149,5.808-13.884,10.187-19.684C651.4,375.889,654.649,372.4,654.649,372.4Z" transform="translate(3758.49 199.333)" fill="#2703a6"/>
    <path id="Path_157" data-name="Path 157" d="M647.707,382c-.532,7.57-1.919,15.9-5.276,19.789a6.465,6.465,0,0,1-.768.776l-4.143-.872C638.34,395.509,643.328,387.774,647.707,382Z" transform="translate(3758.49 198.106)" opacity="0.1"/>
    <path id="Path_158" data-name="Path 158" d="M641.227,399.522a6.506,6.506,0,0,1-2.372,1.814h0a4.473,4.473,0,0,1-.872.3c-2.616.611-3.532-1.282-3.375-4.483.244-5.712,3.829-15.611,7.056-23.024,2.32-5.337,4.457-9.375,5.023-9.646C646.678,364.48,648.178,391.473,641.227,399.522Z" transform="translate(3758.864 200.346)" fill="#2703a6"/>
    <path id="Path_159" data-name="Path 159" d="M636.948,402.858a2.948,2.948,0,0,1-1.674-.532c-5.006-3.122-5.111-14.826-3.916-25.946C635.649,386.383,640.367,400.355,636.948,402.858Z" transform="translate(3759.358 198.824)" opacity="0.1"/>
    <path id="Path_160" data-name="Path 160" d="M641.23,400.937c-.576,1.247-1.352,1.91-2.372,1.814h0a3.236,3.236,0,0,1-1.422-.532,7.553,7.553,0,0,1-2.826-3.654c.244-5.712,3.829-15.611,7.056-23.024C642.8,385.823,643.192,396.724,641.23,400.937Z" transform="translate(3758.862 198.932)" opacity="0.1"/>
    <path id="Path_161" data-name="Path 161" d="M636.224,350.54s-10.221,42.124,0,48.482S638.849,354.273,636.224,350.54Z" transform="translate(3759.236 202.128)" fill="#2703a6"/>
    <path id="Path_162" data-name="Path 162" d="M577.473,360.02H534.93v7.047h6.5l.157.829,2.6,13.675h24.725l2.608-13.675.157-.829h5.8Z" transform="translate(3837.602 239.055)" fill="#4b4770"/>
    <path id="Path_163" data-name="Path 163" d="M577.473,360.02H534.93v7.047h6.5l.157.829,2.6,13.675h24.725l2.608-13.675.157-.829h5.8Z" transform="translate(3837.602 239.055)" opacity="0.1"/>
    <path id="Path_164" data-name="Path 164" d="M574.993,364.77l-.706,3.733-2.608,13.675H546.954l-2.6-13.675-.715-3.733Z" transform="translate(3836.488 238.447)" fill="#4b4770"/>
    <path id="Path_165" data-name="Path 165" d="M574.993,364.77l-.706,3.733H544.355l-.715-3.733Z" transform="translate(3836.488 238.447)" opacity="0.1"/>
    <rect id="Rectangle_40" data-name="Rectangle 40" width="42.534" height="7.047" transform="translate(4374.189 599.075)" fill="#4b4770"/>
    <circle id="Ellipse_34" data-name="Ellipse 34" cx="1.256" cy="1.256" r="1.256" transform="translate(4017.485 904.628)" opacity="0.1"/>
    <circle id="Ellipse_44" data-name="Ellipse 44" cx="1.256" cy="1.256" r="1.256" transform="translate(4019.997 910.907)" opacity="0.1"/>
    <path id="Path_181" data-name="Path 181" d="M701.489,439.646c0,3.785-8.137,8.242-18.184,8.242s-18.175-4.457-18.175-8.242,8.137-5.486,18.175-5.486S701.489,435.852,701.489,439.646Z" transform="translate(3754.959 191.436)" fill="#e8eaf2"/>
    <path id="Path_182" data-name="Path 182" d="M701.489,439.646c0,3.785-8.137,8.242-18.184,8.242s-18.175-4.457-18.175-8.242,8.137-5.486,18.175-5.486S701.489,435.852,701.489,439.646Z" transform="translate(3754.959 191.436)" opacity="0.1"/>
    <ellipse id="Ellipse_45" data-name="Ellipse 45" cx="18.184" cy="6.864" rx="18.184" ry="6.864" transform="translate(4420.089 624.218)" fill="#e8eaf2"/>
    <ellipse id="Ellipse_46" data-name="Ellipse 46" cx="10.282" cy="3.881" rx="10.282" ry="3.881" transform="translate(4427.991 627.201)" opacity="0.1"/>
    <path id="Path_183" data-name="Path 183" d="M701.622,430.04c-1.744,4.5-4.457,5.817-6.576,6.1a7.1,7.1,0,0,1-3.166-.323l1.256-2.686a4.256,4.256,0,0,0,2.425,0c1.108-.349,2.337-1.265,3.183-3.489,1.334-3.419-.331-3.916-1.491-3.9a4.571,4.571,0,0,0-.706.07l.994-2.119a6.752,6.752,0,0,1,.994-.174C700.418,423.342,704.09,423.7,701.622,430.04Z" transform="translate(3751.539 192.8)" fill="#f2b705"/>
    <path id="Path_184" data-name="Path 184" d="M691.783,441.47c-7.082,3.689-14.033,0-14.033,0l.1-1.02.07-.767,13.684-.262.1,1.221Z" transform="translate(3753.346 190.764)" fill="#f1cec8"/>
    <path id="Path_185" data-name="Path 185" d="M695.56,434.51a21.194,21.194,0,0,1-.515,3.026,7.1,7.1,0,0,1-3.166-.323l1.256-2.686a4.256,4.256,0,0,0,2.424-.017Z" transform="translate(3751.539 191.392)" opacity="0.1"/>
    <path id="Path_186" data-name="Path 186" d="M699.219,423.53a2.958,2.958,0,0,1-.384.759l-.1.148c-.288.427-.549.872-.794,1.317a4.571,4.571,0,0,0-.706.07l.994-2.119a6.751,6.751,0,0,1,.994-.174Z" transform="translate(3750.855 192.796)" opacity="0.1"/>
    <path id="Path_187" data-name="Path 187" d="M691.728,440.641c-2.425,1.3-11.521,1.674-13.858-.192l.07-.767,13.684-.262Z" transform="translate(3753.33 190.764)" opacity="0.1"/>
    <path id="Path_188" data-name="Path 188" d="M695.453,423.5l-.1.148a13.517,13.517,0,0,0-2.3,6.663c-.427,5.887-1.3,6.471-1.4,6.724-.706,1.788-12.916,2.486-14.748,0-1.517-2.058-2.991-6.515-2.311-9.018.366-1.352-.4-2.834-1.186-3.925a3.026,3.026,0,0,1,.811-4.317c3.489-2.224,9.594-2.346,9.594-2.346,5.233-.4,8.582.611,10.623,1.744l.262.157a3.009,3.009,0,0,1,.75,4.195Z" transform="translate(3753.975 193.587)" fill="#f2b705"/>
    <ellipse id="Ellipse_47" data-name="Ellipse 47" cx="9.271" cy="2.189" rx="9.271" ry="2.189" transform="translate(4428.811 614.328)" opacity="0.1"/>
    <ellipse id="Ellipse_48" data-name="Ellipse 48" cx="9.271" cy="2.189" rx="9.271" ry="2.189" transform="translate(4428.811 614.59)" fill="#42312e"/>
    <path id="Path_189" data-name="Path 189" d="M687.051,422.47s-6.663.218-6.471,2.616A16.8,16.8,0,0,1,687.051,422.47Z" transform="translate(3752.984 192.931)" fill="#fff" opacity="0.2"/>
    <path id="Path_190" data-name="Path 190" d="M689.65,423.17s-3.968,0-3.34,1.98c0,0,.924-.148.794-.654s2.547-1.047,2.547-1.047Z" transform="translate(3752.26 192.842)" fill="#fff" opacity="0.2"/>
    <path id="Path_191" data-name="Path 191" d="M673.93,422.47s-.262,4.082,10.134,3.855,10.344-2.93,10.466-3.855h-.567s-.131,3.332-9.716,3.244-9.846-3.244-9.846-3.244Z" transform="translate(3753.834 192.931)" fill="#f6e2df"/>
    <path id="Path_192" data-name="Path 192" d="M698.212,421.459l-6.271,3.349a.593.593,0,0,1-.741-.157l-.1-.131a.776.776,0,0,1,.183-1.134l5.739-3.637a2.957,2.957,0,0,1,1.195,1.709Z" transform="translate(3751.661 193.279)" opacity="0.1"/>
    <path id="Path_193" data-name="Path 193" d="M691.281,422.12,707.564,411.8a2.442,2.442,0,0,1,1.221-.392c.82,0,1.98.131,1.614,1.448a2.46,2.46,0,0,1-1.23,1.491l-17.2,9.192a.593.593,0,0,1-.741-.148l-.1-.131a.785.785,0,0,1,.157-1.142Z" transform="translate(3751.659 194.345)" fill="#e8eaf2"/>
    <path id="Path_194" data-name="Path 194" d="M691.281,422.12,707.564,411.8a2.442,2.442,0,0,1,1.221-.392c.82,0,1.98.131,1.614,1.448a2.46,2.46,0,0,1-1.23,1.491l-17.2,9.192a.593.593,0,0,1-.741-.148l-.1-.131a.785.785,0,0,1,.157-1.142Z" transform="translate(3751.659 194.345)" opacity="0.1"/>
    <path id="Path_195" data-name="Path 195" d="M691.281,421.97l16.283-10.317a2.442,2.442,0,0,1,1.221-.392c.82,0,1.98.131,1.614,1.448a2.46,2.46,0,0,1-1.23,1.491l-17.2,9.192a.6.6,0,0,1-.741-.148l-.1-.131a.785.785,0,0,1,.157-1.142Z" transform="translate(3751.659 194.364)" fill="#e8eaf2"/>
    <path id="Path_196" data-name="Path 196" d="M690.3,423.859s1.744-.375,1.509.087.75,1.038.75,1.038-1.8.427-2.067.166S690.3,423.859,690.3,423.859Z" transform="translate(3751.743 192.772)" opacity="0.1"/>
    <path id="Path_197" data-name="Path 197" d="M690.148,423.98s1.744-.366,1.509.087.75,1.047.75,1.047-1.8.427-2.067.166S690.148,423.98,690.148,423.98Z" transform="translate(3751.762 192.756)" fill="#42312e"/>
    <path id="Path_198" data-name="Path 198" d="M686.761,402.786a6.42,6.42,0,0,0-1.552,2.9,9.5,9.5,0,0,0,.1,3.018,16.9,16.9,0,0,0,.349,2.023c.1.384.349.8.532.541,0-.942-.2-1.866-.157-2.808a6.436,6.436,0,0,1,.872-2.773,14.008,14.008,0,0,0,1.186-2.433c.131-.41.637-4.108-.061-3.489-.14.131-.305,1.343-.436,1.648A6.1,6.1,0,0,1,686.761,402.786Z" transform="translate(3752.402 195.844)" fill="#f2dcdc"/>
    <path id="Path_199" data-name="Path 199" d="M687.34,410.047c.052.349.34.6.471.924a2.216,2.216,0,0,1,.113.637,4.657,4.657,0,0,1-.462,3.07,2.137,2.137,0,0,0,1.169-1.579,5.4,5.4,0,0,0,.157-1.064,9.949,9.949,0,0,0,0-1.02c0-.515.157-1.849-.48-2.1S687.34,409.559,687.34,410.047Z" transform="translate(3752.12 194.67)" fill="#f2dcdc"/>
    <path id="Path_200" data-name="Path 200" d="M674.977,428.74a3.907,3.907,0,0,0,2.992,1.343,5.73,5.73,0,0,1-3.148-.366Z" transform="translate(3753.72 192.129)" opacity="0.1"/>
    <path id="Path_202" data-name="Path 202" d="M385.025,383.25l.227,6.515H341.689l-.079-4Z" transform="translate(3862.32 236.084)" opacity="0.1"/>
    <path id="Path_204" data-name="Path 204" d="M544.967,361.608l-240.2,7.535a4.2,4.2,0,0,1-4.212-4.2V220.619a4.2,4.2,0,0,1,4.212-4.2l240.2-7.535a4.2,4.2,0,0,1,4.212,4.2V357.361a4.2,4.2,0,0,1-4.212,4.247Z" transform="translate(3801.575 220.242)" fill="#464a5f"/>
    <path id="Path_205" data-name="Path 205" d="M468.522,310.332,230.9,317.867V193.134l237.622-7.544Z" transform="translate(3876.476 261.358)" fill="#2703a6"/>
    <ellipse id="Ellipse_49" data-name="Ellipse 49" cx="2.093" cy="2.067" rx="2.093" ry="2.067" transform="translate(4223.676 440.11)" fill="#fff"/>
    <path id="Path_206" data-name="Path 206" d="M385.234,348.36l-43.424,1.256v-.82l43.424-1.256Z" transform="translate(3862.295 240.65)" opacity="0.1"/>
    <path id="Path_207" data-name="Path 207" d="M468.668,189.638,230.88,197.174v-4.308l237.788-7.535Z" transform="translate(3876.479 261.391)" opacity="0.2"/>
    <path id="Path_208" data-name="Path 208" d="M80.72,384.322l2.311,4.178,75.2-15.943-2.974-4.727Z" transform="translate(3895.679 238.056)" fill="#464a5f"/>
    <path id="Path_209" data-name="Path 209" d="M144.377,423.507,133,355.951a2.154,2.154,0,0,1,1.893-2.5l86.341-9.21a2.154,2.154,0,0,1,2.363,1.858l8.076,59.166Z" transform="translate(3823.004 202.936)" fill="#464a5f"/>
    <path id="Path_210" data-name="Path 210" d="M144.377,423.507,133,355.951a2.154,2.154,0,0,1,1.893-2.5l86.341-9.21a2.154,2.154,0,0,1,2.363,1.858l8.076,59.166Z" transform="translate(3823.004 202.936)" opacity="0.1"/>
    <path id="Path_211" data-name="Path 211" d="M145.9,423.507l-11.39-67.556a2.163,2.163,0,0,1,1.9-2.5l86.341-9.21a2.154,2.154,0,0,1,2.363,1.858l8.076,59.166Z" transform="translate(3822.811 202.936)" fill="#464a5f"/>
    <path id="Path_212" data-name="Path 212" d="M65.72,315.982l9.349,57.4,78.056-16.056-7.256-51.011Z" transform="translate(3897.597 245.922)" fill="#2703a6"/>
    <path id="Path_213" data-name="Path 213" d="M156.934,431.235l-.549-1.1-10.335,2.3,26.33,40.223a3.393,3.393,0,0,0,3.794,1.4L268.62,447.2a3.4,3.4,0,0,0,1.108-5.983L233.9,414.08l-7.474,1.744.323.767Z" transform="translate(3821.331 194.004)" fill="#9c9ca1"/>
    <path id="Path_214" data-name="Path 214" d="M156.934,431.235l-.549-1.1-10.335,2.3,26.33,40.223a3.393,3.393,0,0,0,3.794,1.4L268.62,447.2a3.4,3.4,0,0,0,1.108-5.983L233.9,414.08l-7.474,1.744.323.767Z" transform="translate(3821.331 194.004)" opacity="0.1"/>
    <path id="Path_215" data-name="Path 215" d="M158.454,431.235l-.549-1.1-10.335,2.3,26.321,40.223a3.4,3.4,0,0,0,3.8,1.4L270.14,447.2a3.4,3.4,0,0,0,1.108-5.983L235.42,414.08l-7.474,1.744.331.767Z" transform="translate(3821.136 194.004)" fill="#9c9ca1"/>
    <path id="Path_216" data-name="Path 216" d="M207.268,451.506l29.7-7.718a.593.593,0,0,1,.532.131l13.2,11.974a.576.576,0,0,1-.227.977l-31.4,9.28a.584.584,0,0,1-.6-.183L206.98,452.439a.584.584,0,0,1,.288-.933Z" transform="translate(3813.557 190.208)" opacity="0.1"/>
    <path id="Path_217" data-name="Path 217" d="M208.012,450.751,237.726,443a.576.576,0,0,1,.532.131l13.2,11.966a.576.576,0,0,1-.227.977l-31.4,9.28a.584.584,0,0,1-.6-.183l-11.5-13.448a.567.567,0,0,1,.288-.968Z" transform="translate(3813.468 190.309)" fill="#939498"/>
    <path id="Path_218" data-name="Path 218" d="M160.1,439.986l1.334,2.154a.27.27,0,0,0,.27.113l4.5-1a.262.262,0,0,0,.157-.4l-1.491-2.076a.262.262,0,0,0-.262-.1l-4.361.933a.253.253,0,0,0-.148.384Z" transform="translate(3819.539 190.86)"/>
    <path id="Path_219" data-name="Path 219" d="M166.845,438.566l1.334,2.154a.262.262,0,0,0,.279.113l4.5-1a.262.262,0,0,0,.148-.4l-1.491-2.076a.253.253,0,0,0-.262-.1l-4.361.933a.262.262,0,0,0-.148.384Z" transform="translate(3818.677 191.042)"/>
    <path id="Path_220" data-name="Path 220" d="M173.407,437.162l1.334,2.145a.253.253,0,0,0,.27.113l4.5-1a.262.262,0,0,0,.157-.4l-1.491-2.032a.279.279,0,0,0-.262-.1l-4.361.933a.262.262,0,0,0-.148.349Z" transform="translate(3817.836 191.217)"/>
    <path id="Path_221" data-name="Path 221" d="M179.845,435.8l1.317,2.119a.27.27,0,0,0,.288.122l4.465-.994a.279.279,0,0,0,.166-.427l-1.465-2.05a.279.279,0,0,0-.288-.1l-4.308.924a.279.279,0,0,0-.174.41Z" transform="translate(3817.015 191.398)"/>
    <path id="Path_222" data-name="Path 222" d="M179.325,439.516l1.334,2.145a.253.253,0,0,0,.279.113l4.5-1a.253.253,0,0,0,.148-.392l-1.491-2.084a.244.244,0,0,0-.262-.1l-4.361.933a.262.262,0,0,0-.148.384Z" transform="translate(3817.081 190.921)"/>
    <path id="Path_223" data-name="Path 223" d="M172.644,440.936l1.334,2.145a.244.244,0,0,0,.27.113l4.509-1a.262.262,0,0,0,.148-.4l-1.491-2.076a.253.253,0,0,0-.262-.1l-4.361.933a.253.253,0,0,0-.148.384Z" transform="translate(3817.936 190.739)"/>
    <path id="Path_224" data-name="Path 224" d="M176.994,443.956l1.334,2.154a.262.262,0,0,0,.27.113l4.5-1a.262.262,0,0,0,.148-.4l-1.491-2.076a.253.253,0,0,0-.262-.1l-4.361.933a.253.253,0,0,0-.14.384Z" transform="translate(3817.38 190.353)"/>
    <path id="Path_225" data-name="Path 225" d="M183.144,446.606l1.334,2.145a.262.262,0,0,0,.27.122l4.5-1a.262.262,0,0,0,.157-.4l-1.491-2.076a.244.244,0,0,0-.262-.1l-4.361.933a.253.253,0,0,0-.148.384Z" transform="translate(3816.593 190.014)"/>
    <path id="Path_226" data-name="Path 226" d="M184.2,450.844l2.154,2.7a.262.262,0,0,0,.27.087l4.535-1.177a.253.253,0,0,0,.131-.41l-2.224-2.721a.253.253,0,0,0-.262-.087l-4.465,1.2a.253.253,0,0,0-.14.4Z" transform="translate(3816.459 189.509)"/>
    <path id="Path_227" data-name="Path 227" d="M190.992,449.086l2.207,2.782a.27.27,0,0,0,.27.087l5.922-1.64a.253.253,0,0,0,.122-.41l-2.224-2.73a.262.262,0,0,0-.27-.087l-5.9,1.587a.262.262,0,0,0-.131.41Z" transform="translate(3815.592 189.784)"/>
    <path id="Path_228" data-name="Path 228" d="M177.554,452.487l2.154,2.7a.27.27,0,0,0,.27.087l4.535-1.177a.253.253,0,0,0,.131-.41l-2.224-2.7a.244.244,0,0,0-.262-.078l-4.465,1.2a.253.253,0,0,0-.14.375Z" transform="translate(3817.308 189.296)"/>
    <path id="Path_229" data-name="Path 229" d="M170.531,454.312l2.154,2.695a.253.253,0,0,0,.262.087l4.535-1.177a.262.262,0,0,0,.14-.41l-2.233-2.721a.253.253,0,0,0-.262-.087l-4.465,1.2a.253.253,0,0,0-.131.41Z" transform="translate(3818.208 189.067)"/>
    <path id="Path_230" data-name="Path 230" d="M186.3,434.24l1.317,2.119a.27.27,0,0,0,.288.122l4.465-.994a.279.279,0,0,0,.166-.427l-1.465-2.076a.27.27,0,0,0-.279-.1l-4.361.924a.27.27,0,0,0-.131.436Z" transform="translate(3816.193 191.601)"/>
    <path id="Path_231" data-name="Path 231" d="M185.893,438.023l1.317,2.119a.27.27,0,0,0,.288.122l4.465-.994a.279.279,0,0,0,.166-.427l-1.465-2.05a.27.27,0,0,0-.279-.1l-4.361.924a.27.27,0,0,0-.131.41Z" transform="translate(3816.243 191.114)"/>
    <path id="Path_232" data-name="Path 232" d="M192.574,432.8l1.317,2.119a.279.279,0,0,0,.3.122l4.465-.994a.279.279,0,0,0,.157-.427l-1.465-2.049a.27.27,0,0,0-.279-.1l-4.317.924a.27.27,0,0,0-.174.41Z" transform="translate(3815.388 191.781)"/>
    <path id="Path_233" data-name="Path 233" d="M210.912,428.81l1.858,1.971a.227.227,0,0,0,.209.061l3.986-.924a.218.218,0,0,0,.1-.375l-2.093-1.971a.209.209,0,0,0-.2-.052l-3.75.924a.227.227,0,0,0-.113.366Z" transform="translate(3813.044 192.286)"/>
    <path id="Path_234" data-name="Path 234" d="M216.781,427.47l1.849,1.971a.209.209,0,0,0,.209.061l3.986-.916a.218.218,0,0,0,.1-.375l-2.093-1.98a.235.235,0,0,0-.2-.052l-3.75.924a.218.218,0,0,0-.1.366Z" transform="translate(3812.295 192.457)"/>
    <path id="Path_235" data-name="Path 235" d="M211.046,432.486l1.858,1.971a.209.209,0,0,0,.209.07l3.994-.881a.218.218,0,0,0,.1-.375l-2.084-1.971a.227.227,0,0,0-.209-.061l-3.75.933a.218.218,0,0,0-.113.314Z" transform="translate(3813.024 191.811)"/>
    <path id="Path_236" data-name="Path 236" d="M204.989,433.874l1.744,1.884a.27.27,0,0,0,.262.078l3.855-.872a.279.279,0,0,0,.131-.471l-2-1.884a.27.27,0,0,0-.253-.061l-3.637.872a.279.279,0,0,0-.1.454Z" transform="translate(3813.805 191.644)"/>
    <path id="Path_237" data-name="Path 237" d="M209.6,440.685l1.744,1.884a.288.288,0,0,0,.262.079l3.855-.872a.27.27,0,0,0,.131-.462l-2-1.884a.3.3,0,0,0-.253-.07l-3.637.872a.279.279,0,0,0-.1.454Z" transform="translate(3813.215 190.772)"/>
    <path id="Path_238" data-name="Path 238" d="M203.325,442.1l1.744,1.884a.279.279,0,0,0,.262.078l3.855-.872a.27.27,0,0,0,.131-.462l-1.927-1.91a.279.279,0,0,0-.253-.07l-3.637.872a.27.27,0,0,0-.174.48Z" transform="translate(3814.02 190.595)"/>
    <path id="Path_239" data-name="Path 239" d="M196.988,443.674l1.744,1.884a.27.27,0,0,0,.262.078l3.864-.872a.279.279,0,0,0,.122-.471l-2-1.884a.262.262,0,0,0-.253-.061l-3.637.872a.27.27,0,0,0-.1.454Z" transform="translate(3814.829 190.391)"/>
    <path id="Path_240" data-name="Path 240" d="M190.229,445.018l1.8,1.91a.279.279,0,0,0,.244.07l3.9-.872a.253.253,0,0,0,.113-.436l-2.023-1.91a.253.253,0,0,0-.235-.061l-3.672.872a.253.253,0,0,0-.122.427Z" transform="translate(3815.692 190.215)"/>
    <path id="Path_241" data-name="Path 241" d="M203.259,438.165,205,440.049a.27.27,0,0,0,.253.078l3.864-.872a.27.27,0,0,0,.122-.462l-1.988-1.884a.3.3,0,0,0-.253-.07l-3.637.872a.279.279,0,0,0-.1.453Z" transform="translate(3814.026 191.094)"/>
    <path id="Path_242" data-name="Path 242" d="M197.149,439.584l1.744,1.875a.27.27,0,0,0,.262.087l3.855-.872a.27.27,0,0,0,.131-.462l-2-1.884a.253.253,0,0,0-.253-.07l-3.637.872a.279.279,0,0,0-.1.453Z" transform="translate(3814.807 190.914)"/>
    <path id="Path_243" data-name="Path 243" d="M190.6,440.964l1.744,1.884a.253.253,0,0,0,.253.079l3.864-.872a.279.279,0,0,0,.122-.471l-1.988-1.884a.27.27,0,0,0-.253-.061l-3.637.872a.262.262,0,0,0-.1.454Z" transform="translate(3815.647 190.737)"/>
    <path id="Path_244" data-name="Path 244" d="M183.89,442.528l1.8,1.91a.279.279,0,0,0,.244.07l3.9-.872a.253.253,0,0,0,.122-.436l-2.023-1.91a.279.279,0,0,0-.244-.061l-3.672.872a.262.262,0,0,0-.122.427Z" transform="translate(3816.501 190.533)"/>
    <path id="Path_245" data-name="Path 245" d="M209.568,436.685l1.744,1.884a.279.279,0,0,0,.262.078l3.855-.872a.27.27,0,0,0,.131-.462l-2-1.884a.279.279,0,0,0-.253-.07l-3.637.872a.27.27,0,0,0-.1.454Z" transform="translate(3813.22 191.284)"/>
    <path id="Path_246" data-name="Path 246" d="M198.878,435.454l1.744,1.884a.288.288,0,0,0,.262.079l3.864-.872a.27.27,0,0,0,.122-.462l-2-1.884a.262.262,0,0,0-.253-.07l-3.628.872a.27.27,0,0,0-.113.453Z" transform="translate(3814.587 191.441)"/>
    <path id="Path_247" data-name="Path 247" d="M222.443,426.049l1.936,2.058a.183.183,0,0,0,.157.052l4.125-.959a.166.166,0,0,0,.07-.279l-2.189-2.058a.14.14,0,0,0-.148-.044l-3.872.959a.157.157,0,0,0-.078.27Z" transform="translate(3811.57 192.632)"/>
    <path id="Path_248" data-name="Path 248" d="M228.146,424.822l1.945,2.058a.166.166,0,0,0,.157.052l4.116-.959a.166.166,0,0,0,.078-.279l-2.189-2.067a.157.157,0,0,0-.148,0l-3.881.959a.157.157,0,0,0-.078.235Z" transform="translate(3810.837 192.786)"/>
    <path id="Path_249" data-name="Path 249" d="M234,423.465l1.744,1.91a.148.148,0,0,0,.157.052l3.846-1.047a.174.174,0,0,0,.061-.288l-1.988-1.666a.157.157,0,0,0-.14,0l-3.628.8a.166.166,0,0,0-.052.235Z" transform="translate(3810.09 192.939)"/>
    <path id="Path_250" data-name="Path 250" d="M240.156,425.506l1.744,1.919a.174.174,0,0,0,.166.052l3.837-1.047a.166.166,0,0,0,.061-.288l-1.98-1.666a.139.139,0,0,0-.14,0l-3.628.8a.157.157,0,0,0-.061.227Z" transform="translate(3809.302 192.677)"/>
    <path id="Path_251" data-name="Path 251" d="M239.411,429.492l1.683,1.814a.2.2,0,0,0,.218.061l3.7-1a.227.227,0,0,0,.087-.384l-1.884-1.579a.183.183,0,0,0-.183-.052l-3.489.776a.218.218,0,0,0-.131.366Z" transform="translate(3809.401 192.18)"/>
    <path id="Path_252" data-name="Path 252" d="M234.4,434.563l1.683,1.823a.218.218,0,0,0,.218.061l3.7-1.012a.218.218,0,0,0,.087-.375l-1.884-1.587a.2.2,0,0,0-.183-.044l-3.489.768a.218.218,0,0,0-.131.366Z" transform="translate(3810.042 191.531)"/>
    <path id="Path_253" data-name="Path 253" d="M228.381,436.142l1.683,1.814a.2.2,0,0,0,.218.061l3.7-1a.227.227,0,0,0,.087-.384l-1.884-1.579A.183.183,0,0,0,232,435l-3.489.776a.218.218,0,0,0-.131.366Z" transform="translate(3810.812 191.33)"/>
    <path id="Path_254" data-name="Path 254" d="M240.072,433.082l1.683,1.823a.244.244,0,0,0,.218.061l3.7-1.012a.218.218,0,0,0,.087-.384l-1.875-1.579a.253.253,0,0,0-.192-.052l-3.489.776a.227.227,0,0,0-.131.366Z" transform="translate(3809.315 191.721)"/>
    <path id="Path_255" data-name="Path 255" d="M239.088,437.524l2.538,2.285a.244.244,0,0,0,.209.044l3.672-1.038a.218.218,0,0,0,.087-.375l-2.739-2.4a.218.218,0,0,0-.218-.044l-3.489,1.16a.209.209,0,0,0-.061.366Z" transform="translate(3809.446 191.203)"/>
    <path id="Path_256" data-name="Path 256" d="M228.906,428.346l1.744,1.919a.166.166,0,0,0,.166.044l3.837-1.047a.157.157,0,0,0,.061-.279l-1.98-1.674a.209.209,0,0,0-.14,0l-3.628.8a.157.157,0,0,0-.061.236Z" transform="translate(3810.741 192.314)"/>
    <path id="Path_257" data-name="Path 257" d="M223.212,429.742l1.683,1.814a.227.227,0,0,0,.218.07l3.7-1.012a.227.227,0,0,0,.087-.384l-1.875-1.579a.253.253,0,0,0-.192-.052l-3.489.776a.227.227,0,0,0-.131.366Z" transform="translate(3811.471 192.148)"/>
    <path id="Path_258" data-name="Path 258" d="M222.039,433.769l1.7,1.8a.209.209,0,0,0,.218.061l3.707-1.012a.218.218,0,0,0,.078-.375l-1.875-1.587a.218.218,0,0,0-.192-.044l-3.489.767a.227.227,0,0,0-.148.392Z" transform="translate(3811.624 191.636)"/>
    <path id="Path_259" data-name="Path 259" d="M216.052,435.223l1.683,1.823a.227.227,0,0,0,.227.061l3.7-1.012a.218.218,0,0,0,.078-.375l-1.875-1.587a.218.218,0,0,0-.192-.044l-3.489.767a.227.227,0,0,0-.131.366Z" transform="translate(3812.387 191.446)"/>
    <path id="Path_260" data-name="Path 260" d="M217.13,431.092l1.683,1.823a.2.2,0,0,0,.218.061l3.7-1.012a.218.218,0,0,0,.087-.375l-1.884-1.6a.2.2,0,0,0-.183-.044l-3.489.776a.209.209,0,0,0-.131.366Z" transform="translate(3812.251 191.976)"/>
    <path id="Path_261" data-name="Path 261" d="M222.141,437.493l1.683,1.823a.218.218,0,0,0,.218.061l3.7-1.012a.218.218,0,0,0,.087-.375l-1.884-1.587a.2.2,0,0,0-.183-.044l-3.489.767a.218.218,0,0,0-.131.366Z" transform="translate(3811.609 191.156)"/>
    <path id="Path_262" data-name="Path 262" d="M216.253,439.076l1.6,1.744a.253.253,0,0,0,.27.079l3.567-.968a.279.279,0,0,0,.1-.48l-1.744-1.5a.279.279,0,0,0-.235-.052l-3.384.741a.279.279,0,0,0-.183.436Z" transform="translate(3812.361 190.959)"/>
    <path id="Path_263" data-name="Path 263" d="M234.706,426.9l1.744,1.919a.166.166,0,0,0,.166.044l3.837-1.047a.157.157,0,0,0,.061-.279l-1.98-1.675a.21.21,0,0,0-.14,0l-3.637.8a.166.166,0,0,0-.052.236Z" transform="translate(3809.999 192.499)"/>
    <path id="Path_264" data-name="Path 264" d="M233.892,430.833l1.683,1.823a.227.227,0,0,0,.218.061L239.5,431.7a.218.218,0,0,0,.078-.375l-1.875-1.587a.218.218,0,0,0-.192-.044l-3.489.767a.227.227,0,0,0-.131.366Z" transform="translate(3810.106 192.008)"/>
    <path id="Path_265" data-name="Path 265" d="M228.131,432.422l1.674,1.814a.253.253,0,0,0,.227.07l3.7-1.012a.227.227,0,0,0,.087-.384l-1.884-1.579a.253.253,0,0,0-.192-.052l-3.489.776a.218.218,0,0,0-.122.366Z" transform="translate(3810.844 191.805)"/>
    <path id="Path_266" data-name="Path 266" d="M204.931,430.12l1.849,1.971a.235.235,0,0,0,.209.061l3.986-.924a.218.218,0,0,0,.1-.375l-2.093-1.971a.209.209,0,0,0-.2-.052l-3.75.924a.218.218,0,0,0-.1.366Z" transform="translate(3813.811 192.119)"/>
    <path id="Path_267" data-name="Path 267" d="M198.818,431.6l1.744,1.884a.27.27,0,0,0,.262.079l3.855-.872a.279.279,0,0,0,.131-.471l-2-1.884a.27.27,0,0,0-.253-.061l-3.637.872a.27.27,0,0,0-.1.454Z" transform="translate(3814.595 191.934)"/>
    <path id="Path_268" data-name="Path 268" d="M192.294,436.672l1.317,2.111a.262.262,0,0,0,.288.122l4.465-.994a.27.27,0,0,0,.166-.427l-1.474-2.041a.279.279,0,0,0-.279-.113l-4.308.924a.279.279,0,0,0-.174.419Z" transform="translate(3815.423 191.287)"/>
    <path id="Path_269" data-name="Path 269" d="M158.761,437.62l4.4-1.02a.27.27,0,0,1,.262.1l.776,1.02a.253.253,0,0,1-.148.4l-4.561,1.064a.253.253,0,0,1-.279-.122l-.619-1.064a.253.253,0,0,1,.166-.375Z" transform="translate(3819.731 191.125)"/>
    <path id="Path_270" data-name="Path 270" d="M165.7,436.109l4.361-1.02a.244.244,0,0,1,.262.1l.776,1.012a.262.262,0,0,1-.148.41l-4.561,1.064a.262.262,0,0,1-.279-.122l-.619-1.064a.253.253,0,0,1,.209-.375Z" transform="translate(3818.849 191.319)"/>
    <path id="Path_271" data-name="Path 271" d="M172.421,434.66l4.4-1.012a.253.253,0,0,1,.262.087l.776,1.02a.253.253,0,0,1-.148.4l-4.561,1.064a.244.244,0,0,1-.279-.113l-.619-1.064a.262.262,0,0,1,.166-.384Z" transform="translate(3817.985 191.503)"/>
    <path id="Path_272" data-name="Path 272" d="M178.971,433.179l4.413-1.02a.244.244,0,0,1,.262.1l.767,1.012a.262.262,0,0,1-.14.41l-4.57,1.055a.262.262,0,0,1-.279-.113l-.619-1.064a.262.262,0,0,1,.166-.375Z" transform="translate(3817.146 191.693)"/>
    <path id="Path_273" data-name="Path 273" d="M185.607,431.7l4.361-1.012a.288.288,0,0,1,.279.1l.75.986a.279.279,0,0,1-.157.436l-4.526,1.055a.27.27,0,0,1-.3-.131l-.6-1.029a.279.279,0,0,1,.192-.41Z" transform="translate(3816.302 191.881)"/>
    <path id="Path_274" data-name="Path 274" d="M192.057,430.361l4.361-1.012a.27.27,0,0,1,.279.1l.75.994a.27.27,0,0,1-.157.427l-4.526,1.055a.279.279,0,0,1-.3-.131l-.6-1.029a.279.279,0,0,1,.192-.4Z" transform="translate(3815.477 192.053)"/>
    <path id="Path_275" data-name="Path 275" d="M198.377,429.046l4.038-.977a.27.27,0,0,1,.262.078l.785.82a.279.279,0,0,1-.131.453l-3.994,1a.262.262,0,0,1-.262-.07l-.872-.872a.279.279,0,0,1,.174-.436Z" transform="translate(3814.669 192.216)"/>
    <path id="Path_276" data-name="Path 276" d="M204.516,427.631l4.16-1.012a.227.227,0,0,1,.218.061l.872.916a.209.209,0,0,1-.1.358l-4.108,1.038a.227.227,0,0,1-.209-.061L204.42,428a.218.218,0,0,1,.1-.366Z" transform="translate(3813.876 192.401)"/>
    <path id="Path_277" data-name="Path 277" d="M210.654,426.19l4.16-1.012a.192.192,0,0,1,.209.061l.872.872a.218.218,0,0,1-.1.366l-4.108,1.038a.227.227,0,0,1-.209-.061l-.872-.933a.218.218,0,0,1,.052-.331Z" transform="translate(3813.084 192.586)"/>
    <path id="Path_278" data-name="Path 278" d="M216.769,424.931l4.16-1.012a.236.236,0,0,1,.209.061l.872.916a.227.227,0,0,1-.113.366l-4.073,1.029a.227.227,0,0,1-.209-.052l-.916-.933a.227.227,0,0,1,.07-.375Z" transform="translate(3812.307 192.746)"/>
    <path id="Path_279" data-name="Path 279" d="M222.572,423.537l4.282-1.038a.148.148,0,0,1,.157.044l.959,1a.157.157,0,0,1-.078.27l-4.23,1.064a.148.148,0,0,1-.157-.044l-1.012-1.029a.166.166,0,0,1,.078-.27Z" transform="translate(3811.562 192.928)"/>
    <path id="Path_280" data-name="Path 280" d="M228.43,422.286l4.291-1.047a.157.157,0,0,1,.148.052l.959,1a.157.157,0,0,1-.078.27l-4.23,1.081a.148.148,0,0,1-.157-.044l-1.012-1.029a.166.166,0,0,1,.078-.288Z" transform="translate(3810.815 193.089)"/>
    <path id="Path_281" data-name="Path 281" d="M234.267,420.972l3.968-.872a.174.174,0,0,1,.166.061l.767.942a.157.157,0,0,1-.087.253l-3.724.986a.148.148,0,0,1-.157-.044l-1.012-1.02a.166.166,0,0,1,.078-.305Z" transform="translate(3810.071 193.235)"/>
    <path id="Path_282" data-name="Path 282" d="M239.849,419.691l3.968-.872a.157.157,0,0,1,.166.052l.759.942a.166.166,0,0,1-.078.262l-3.724.986a.218.218,0,0,1-.166-.044l-1-1.029a.166.166,0,0,1,.078-.3Z" transform="translate(3809.356 193.399)"/>
    <path id="Path_283" data-name="Path 283" d="M162.323,443.463l1.465,2.084a.244.244,0,0,0,.262.1l7.631-1.788a.253.253,0,0,0,.148-.4l-1.622-2.137a.253.253,0,0,0-.262-.087l-7.474,1.823a.262.262,0,0,0-.148.4Z" transform="translate(3819.256 190.532)"/>
    <path id="Path_284" data-name="Path 284" d="M164.994,446.631l1.456,2.32a.262.262,0,0,0,.279.113l9.218-2.189a.253.253,0,0,0,.14-.41l-1.823-2.259a.253.253,0,0,0-.262-.087l-8.852,2.128a.253.253,0,0,0-.157.384Z" transform="translate(3818.914 190.164)"/>
    <path id="Path_285" data-name="Path 285" d="M167.361,450.018l1.744,2.52a.253.253,0,0,0,.27.1l12.21-3.018a.262.262,0,0,0,.14-.41l-1.962-2.52a.27.27,0,0,0-.262-.1l-12.07,3.026a.253.253,0,0,0-.07.392Z" transform="translate(3818.615 189.846)"/>
    <path id="Path_286" data-name="Path 286" d="M199.411,446.307,201.643,449a.262.262,0,0,0,.27.087l26.87-6.707a.27.27,0,0,0,.122-.453l-2.738-2.73a.288.288,0,0,0-.262-.07l-26.356,6.742a.27.27,0,0,0-.14.436Z" transform="translate(3814.516 190.802)"/>
    <path id="Path_287" data-name="Path 287" d="M231.214,439.112l2.616,2.616a.227.227,0,0,0,.218.061l5.5-1.474a.218.218,0,0,0,.1-.366l-2.73-2.677a.227.227,0,0,0-.209-.052l-5.4,1.552a.227.227,0,0,0-.1.34Z" transform="translate(3810.447 191.046)"/>
    <path id="Path_288" data-name="Path 288" d="M246.456,437.278l1.2,1.265a.148.148,0,0,0,.157.044l4.073-1.1a.157.157,0,0,0,.07-.27l-1.448-1.369a.175.175,0,0,0-.157,0l-3.829,1.195a.166.166,0,0,0-.07.235Z" transform="translate(3808.496 191.223)"/>
    <path id="Path_289" data-name="Path 289" d="M250.436,434.178l1.43,1.5a.166.166,0,0,0,.174.044l3.741-1.3a.157.157,0,0,0,.061-.27l-1.43-1.265a.148.148,0,0,0-.148,0l-3.776,1.055a.166.166,0,0,0-.052.235Z" transform="translate(3807.988 191.602)"/>
    <path id="Path_290" data-name="Path 290" d="M253.448,436.988l-1.029-.872a.166.166,0,0,1,0-.279l3.733-1.291a.148.148,0,0,1,.166,0l1.169,1.125a.166.166,0,0,1-.078.279l-3.864,1A.157.157,0,0,1,253.448,436.988Z" transform="translate(3807.74 191.39)"/>
    <path id="Path_291" data-name="Path 291" d="M258,434.5c.323.305.872.924,1.1,1.134a.192.192,0,0,0,.166.044l3.881-1.055a.166.166,0,0,0,.07-.279l-1.378-1.238a.166.166,0,0,0-.166,0l-3.6,1.16a.157.157,0,0,0-.07.236Z" transform="translate(3807.021 191.574)"/>
    <path id="Path_292" data-name="Path 292" d="M245.5,431.468l2.076,2.006a.157.157,0,0,0,.157.044L257.74,430.9a.166.166,0,0,0,.07-.279l-2.433-2.015a.148.148,0,0,0-.148,0l-9.663,2.616a.157.157,0,0,0-.07.244Z" transform="translate(3808.62 192.149)"/>
    <path id="Path_293" data-name="Path 293" d="M244.709,428.026l2.145,1.91a.174.174,0,0,0,.148,0l7.535-1.744a.166.166,0,0,0,.061-.288l-2.468-2.067a.139.139,0,0,0-.14,0l-7.213,1.884a.166.166,0,0,0-.07.305Z" transform="translate(3808.726 192.503)"/>
    <path id="Path_294" data-name="Path 294" d="M245.5,424.375l2.032,1.814a.157.157,0,0,0,.148,0l3.864-.872a.166.166,0,0,0,.07-.288L249.211,423a.148.148,0,0,0-.148,0l-3.489,1.116a.166.166,0,0,0-.07.262Z" transform="translate(3808.619 192.866)"/>
    <path id="Path_295" data-name="Path 295" d="M239.431,422.228l1.962,1.788a.183.183,0,0,0,.148,0l6.1-1.456a.157.157,0,0,0,.061-.279l-2.337-1.962a.192.192,0,0,0-.148,0l-5.765,1.631a.166.166,0,0,0-.026.279Z" transform="translate(3809.399 193.208)"/>
    <path id="Path_296" data-name="Path 296" d="M160.1,439.231l1.334,2.145a.253.253,0,0,0,.27.113l4.5-1a.262.262,0,0,0,.157-.4l-1.491-2.1a.279.279,0,0,0-.262-.1l-4.361.933a.262.262,0,0,0-.148.419Z" transform="translate(3819.542 190.961)" fill="#464a5f"/>
    <path id="Path_297" data-name="Path 297" d="M166.845,437.809l1.334,2.145a.253.253,0,0,0,.279.113l4.5-1a.262.262,0,0,0,.122-.384L171.59,436.6a.253.253,0,0,0-.262-.1l-4.361.933a.262.262,0,0,0-.122.366Z" transform="translate(3818.676 191.137)" fill="#464a5f"/>
    <path id="Path_298" data-name="Path 298" d="M173.4,436.4l1.334,2.145a.244.244,0,0,0,.27.113l4.5-1a.253.253,0,0,0,.157-.392l-1.491-2.084a.253.253,0,0,0-.262-.1l-4.361.933a.253.253,0,0,0-.148.384Z" transform="translate(3817.839 191.32)" fill="#464a5f"/>
    <path id="Path_299" data-name="Path 299" d="M179.844,435l1.317,2.111a.262.262,0,0,0,.288.122l4.465-.994a.27.27,0,0,0,.166-.427l-1.465-2.041a.305.305,0,0,0-.288-.113l-4.308.924a.279.279,0,0,0-.174.419Z" transform="translate(3817.015 191.501)" fill="#464a5f"/>
    <path id="Path_300" data-name="Path 300" d="M179.325,438.806l1.334,2.154a.279.279,0,0,0,.279.113l4.5-1a.262.262,0,0,0,.148-.4l-1.491-2.076a.253.253,0,0,0-.262-.1l-4.361.933a.262.262,0,0,0-.148.384Z" transform="translate(3817.081 191.011)" fill="#464a5f"/>
    <path id="Path_301" data-name="Path 301" d="M172.645,440.179l1.334,2.145a.262.262,0,0,0,.27.122l4.509-1a.262.262,0,0,0,.148-.4l-1.491-2.058a.253.253,0,0,0-.262-.1l-4.361.933a.253.253,0,0,0-.148.366Z" transform="translate(3817.935 190.834)" fill="#464a5f"/>
    <path id="Path_302" data-name="Path 302" d="M176.994,443.206l1.334,2.145a.244.244,0,0,0,.27.113l4.509-1a.262.262,0,0,0,.148-.4l-1.491-2.076a.253.253,0,0,0-.262-.1l-4.361.933a.253.253,0,0,0-.148.384Z" transform="translate(3817.38 190.449)" fill="#464a5f"/>
    <path id="Path_303" data-name="Path 303" d="M183.144,445.806l1.334,2.154a.253.253,0,0,0,.27.113l4.5-1a.262.262,0,0,0,.157-.4l-1.491-2.076a.262.262,0,0,0-.262-.1l-4.361.933a.253.253,0,0,0-.148.384Z" transform="translate(3816.593 190.116)" fill="#464a5f"/>
    <path id="Path_304" data-name="Path 304" d="M184.2,450.092l2.154,2.695a.262.262,0,0,0,.27.087l4.535-1.177a.253.253,0,0,0,.131-.41l-2.224-2.721a.253.253,0,0,0-.262-.087l-4.465,1.2a.262.262,0,0,0-.14.41Z" transform="translate(3816.459 189.607)" fill="#464a5f"/>
    <path id="Path_305" data-name="Path 305" d="M190.992,448.327l2.207,2.782a.27.27,0,0,0,.27.087l5.922-1.64a.253.253,0,0,0,.122-.41l-2.224-2.721a.262.262,0,0,0-.27-.087l-5.9,1.587a.253.253,0,0,0-.131.4Z" transform="translate(3815.592 189.88)" fill="#464a5f"/>
    <path id="Path_306" data-name="Path 306" d="M177.552,451.762l2.154,2.695a.27.27,0,0,0,.27.087l4.535-1.177a.253.253,0,0,0,.131-.41l-2.224-2.721a.253.253,0,0,0-.262-.087l-4.465,1.2a.262.262,0,0,0-.14.41Z" transform="translate(3817.31 189.393)" fill="#464a5f"/>
    <path id="Path_307" data-name="Path 307" d="M170.532,453.554l2.154,2.7a.253.253,0,0,0,.262.087l4.535-1.177a.262.262,0,0,0,.14-.41l-2.233-2.721a.253.253,0,0,0-.262-.087l-4.465,1.2a.253.253,0,0,0-.131.4Z" transform="translate(3818.208 189.163)" fill="#464a5f"/>
    <path id="Path_308" data-name="Path 308" d="M186.3,433.483l1.317,2.119a.27.27,0,0,0,.288.122l4.465-.994a.279.279,0,0,0,.166-.427l-1.465-2.05a.27.27,0,0,0-.279-.1l-4.361.924a.279.279,0,0,0-.131.41Z" transform="translate(3816.19 191.694)" fill="#464a5f"/>
    <path id="Path_309" data-name="Path 309" d="M185.894,437.264l1.317,2.119a.27.27,0,0,0,.288.122l4.465-.994a.27.27,0,0,0,.166-.427l-1.465-2.041a.279.279,0,0,0-.279-.113l-4.361.924a.279.279,0,0,0-.131.41Z" transform="translate(3816.242 191.211)" fill="#464a5f"/>
    <path id="Path_310" data-name="Path 310" d="M192.575,432.064l1.317,2.119a.279.279,0,0,0,.3.122l4.465-.994a.279.279,0,0,0,.157-.427l-1.465-2.041a.279.279,0,0,0-.279-.113l-4.317.924a.279.279,0,0,0-.174.41Z" transform="translate(3815.387 191.876)" fill="#464a5f"/>
    <path id="Path_311" data-name="Path 311" d="M210.912,428.07l1.858,1.971a.209.209,0,0,0,.209.061l3.986-.924a.218.218,0,0,0,.1-.366l-2.093-1.98a.209.209,0,0,0-.2-.052l-3.75.924a.227.227,0,0,0-.113.366Z" transform="translate(3813.044 192.381)" fill="#464a5f"/>
    <path id="Path_312" data-name="Path 312" d="M216.781,426.72l1.849,1.962a.218.218,0,0,0,.209.07l3.986-.924a.218.218,0,0,0,.1-.375l-2.093-1.971a.209.209,0,0,0-.2-.052l-3.75.924a.218.218,0,0,0-.1.366Z" transform="translate(3812.295 192.554)" fill="#464a5f"/>
    <path id="Path_313" data-name="Path 313" d="M211.042,431.73,212.9,433.7a.227.227,0,0,0,.209.061l3.986-.924a.218.218,0,0,0,.1-.375l-2.084-1.971a.227.227,0,0,0-.209-.052l-3.75.924a.227.227,0,0,0-.1.366Z" transform="translate(3813.028 191.913)" fill="#464a5f"/>
    <path id="Path_314" data-name="Path 314" d="M204.988,433.123,206.732,435a.253.253,0,0,0,.262.078l3.855-.872a.27.27,0,0,0,.131-.462l-2-1.884a.253.253,0,0,0-.253-.07l-3.637.872a.279.279,0,0,0-.1.462Z" transform="translate(3813.805 191.741)" fill="#464a5f"/>
    <path id="Path_315" data-name="Path 315" d="M209.6,439.924l1.744,1.884a.27.27,0,0,0,.262.078l3.855-.872a.279.279,0,0,0,.131-.471l-2-1.884a.27.27,0,0,0-.253-.061l-3.637.872a.27.27,0,0,0-.1.453Z" transform="translate(3813.216 190.87)" fill="#464a5f"/>
    <path id="Path_316" data-name="Path 316" d="M203.327,441.342l1.744,1.884a.262.262,0,0,0,.262.079l3.855-.872a.279.279,0,0,0,.131-.471l-1.927-1.9a.27.27,0,0,0-.253-.061l-3.637.872a.27.27,0,0,0-.174.471Z" transform="translate(3814.019 190.691)" fill="#464a5f"/>
    <path id="Path_317" data-name="Path 317" d="M196.989,442.925l1.744,1.884a.288.288,0,0,0,.262.078l3.864-.872a.27.27,0,0,0,.122-.462l-2-1.884a.27.27,0,0,0-.253-.07l-3.637.872a.279.279,0,0,0-.1.453Z" transform="translate(3814.828 190.486)" fill="#464a5f"/>
    <path id="Path_318" data-name="Path 318" d="M190.224,444.254l1.8,1.91a.253.253,0,0,0,.244.07l3.9-.872a.253.253,0,0,0,.113-.436l-2.023-1.936a.262.262,0,0,0-.236-.07l-3.672.872a.253.253,0,0,0-.122.462Z" transform="translate(3815.697 190.317)" fill="#464a5f"/>
    <path id="Path_319" data-name="Path 319" d="M203.259,437.4,205,439.288a.253.253,0,0,0,.253.078l3.864-.872a.279.279,0,0,0,.122-.471l-1.988-1.884a.27.27,0,0,0-.253-.061l-3.637.872a.279.279,0,0,0-.1.454Z" transform="translate(3814.026 191.192)" fill="#464a5f"/>
    <path id="Path_320" data-name="Path 320" d="M197.149,438.8l1.744,1.884a.288.288,0,0,0,.262.078l3.855-.872a.27.27,0,0,0,.131-.462l-2-1.884a.3.3,0,0,0-.253-.07l-3.637.872a.279.279,0,0,0-.1.453Z" transform="translate(3814.807 191.013)" fill="#464a5f"/>
    <path id="Path_321" data-name="Path 321" d="M190.6,440.215l1.744,1.884a.27.27,0,0,0,.253.078l3.864-.872a.27.27,0,0,0,.122-.462l-1.988-1.884a.279.279,0,0,0-.253-.07l-3.637.872a.27.27,0,0,0-.1.454Z" transform="translate(3815.646 190.833)" fill="#464a5f"/>
    <path id="Path_322" data-name="Path 322" d="M183.889,441.807l1.8,1.91a.236.236,0,0,0,.244.07l3.9-.872a.253.253,0,0,0,.122-.436l-2.023-1.91a.279.279,0,0,0-.244-.07l-3.672.872a.262.262,0,0,0-.122.436Z" transform="translate(3816.502 190.626)" fill="#464a5f"/>
    <path id="Path_323" data-name="Path 323" d="M209.568,435.925l1.744,1.884a.279.279,0,0,0,.262.078l3.855-.872a.27.27,0,0,0,.131-.462l-2-1.884a.3.3,0,0,0-.253-.07l-3.637.872a.27.27,0,0,0-.1.454Z" transform="translate(3813.22 191.381)" fill="#464a5f"/>
    <path id="Path_324" data-name="Path 324" d="M198.879,434.694l1.744,1.884a.27.27,0,0,0,.262.078l3.864-.872a.279.279,0,0,0,.122-.471l-2-1.884a.262.262,0,0,0-.253-.061l-3.628.872a.279.279,0,0,0-.113.454Z" transform="translate(3814.585 191.539)" fill="#464a5f"/>
    <path id="Path_325" data-name="Path 325" d="M222.444,425.289l1.936,2.067a.157.157,0,0,0,.157.044l4.125-.951a.166.166,0,0,0,.07-.279l-2.189-2.067a.183.183,0,0,0-.148-.044l-3.872.959a.166.166,0,0,0-.079.27Z" transform="translate(3811.568 192.728)" fill="#464a5f"/>
    <path id="Path_326" data-name="Path 326" d="M228.143,424.029l1.945,2.067a.166.166,0,0,0,.157.044l4.116-.951a.166.166,0,0,0,.078-.279l-2.189-2.067a.157.157,0,0,0-.148-.044l-3.881.959a.157.157,0,0,0-.078.27Z" transform="translate(3810.841 192.889)" fill="#464a5f"/>
    <path id="Path_327" data-name="Path 327" d="M234,422.705l1.744,1.919a.157.157,0,0,0,.157.044l3.846-1.047a.166.166,0,0,0,.061-.279l-1.988-1.674a.157.157,0,0,0-.14,0l-3.628.8a.166.166,0,0,0-.052.236Z" transform="translate(3810.09 193.036)" fill="#464a5f"/>
    <path id="Path_328" data-name="Path 328" d="M240.156,424.756l1.744,1.919a.166.166,0,0,0,.166.044l3.837-1.047a.157.157,0,0,0,.061-.279l-1.98-1.675a.166.166,0,0,0-.14,0l-3.628.8a.166.166,0,0,0-.061.235Z" transform="translate(3809.302 192.774)" fill="#464a5f"/>
    <path id="Path_329" data-name="Path 329" d="M239.416,428.737l1.683,1.823a.218.218,0,0,0,.218.061l3.7-1.012a.218.218,0,0,0,.087-.375l-1.884-1.587a.2.2,0,0,0-.183,0l-3.489.767a.227.227,0,0,0-.131.323Z" transform="translate(3809.396 192.272)" fill="#464a5f"/>
    <path id="Path_330" data-name="Path 330" d="M234.4,433.833l1.683,1.823a.2.2,0,0,0,.218.061l3.7-1a.227.227,0,0,0,.087-.384l-1.884-1.587a.2.2,0,0,0-.183-.044l-3.489.776a.209.209,0,0,0-.131.358Z" transform="translate(3810.042 191.624)" fill="#464a5f"/>
    <path id="Path_331" data-name="Path 331" d="M228.382,435.383l1.683,1.823a.244.244,0,0,0,.218.061l3.7-1.012a.227.227,0,0,0,.087-.384l-1.884-1.579a.2.2,0,0,0-.183-.044l-3.489.767a.227.227,0,0,0-.131.366Z" transform="translate(3810.81 191.426)" fill="#464a5f"/>
    <path id="Path_332" data-name="Path 332" d="M240.072,432.323l1.683,1.823a.2.2,0,0,0,.218.061l3.7-1.012a.218.218,0,0,0,.087-.375l-1.875-1.587a.218.218,0,0,0-.192-.044l-3.489.776a.218.218,0,0,0-.131.358Z" transform="translate(3809.316 191.817)" fill="#464a5f"/>
    <path id="Path_333" data-name="Path 333" d="M239.088,436.773l2.538,2.276a.2.2,0,0,0,.209.044l3.672-1.038a.218.218,0,0,0,.087-.375l-2.739-2.4a.218.218,0,0,0-.218-.044l-3.489,1.16a.218.218,0,0,0-.061.375Z" transform="translate(3809.445 191.3)" fill="#464a5f"/>
    <path id="Path_334" data-name="Path 334" d="M228.906,427.587l1.744,1.919a.174.174,0,0,0,.166.052l3.837-1.047a.166.166,0,0,0,.061-.288l-1.98-1.666a.148.148,0,0,0-.14,0l-3.628.8a.157.157,0,0,0-.061.227Z" transform="translate(3810.74 192.411)" fill="#464a5f"/>
    <path id="Path_335" data-name="Path 335" d="M223.216,428.987l1.683,1.823a.218.218,0,0,0,.218.061l3.7-1.012a.218.218,0,0,0,.087-.375l-1.875-1.587a.218.218,0,0,0-.192,0l-3.489.767a.227.227,0,0,0-.131.323Z" transform="translate(3811.468 192.24)" fill="#464a5f"/>
    <path id="Path_336" data-name="Path 336" d="M222.041,433.022l1.683,1.814a.209.209,0,0,0,.218.061l3.707-1a.227.227,0,0,0,.078-.384l-1.875-1.579a.2.2,0,0,0-.192-.052l-3.489.776a.218.218,0,0,0-.131.366Z" transform="translate(3811.622 191.729)" fill="#464a5f"/>
    <path id="Path_337" data-name="Path 337" d="M216.052,434.472l1.683,1.814a.227.227,0,0,0,.227.061l3.7-1a.227.227,0,0,0,.079-.384l-1.875-1.587a.218.218,0,0,0-.192-.044l-3.489.776a.227.227,0,0,0-.131.366Z" transform="translate(3812.387 191.543)" fill="#464a5f"/>
    <path id="Path_338" data-name="Path 338" d="M217.131,430.342l1.683,1.814a.227.227,0,0,0,.218.07l3.7-1.012a.227.227,0,0,0,.087-.384l-1.884-1.579a.236.236,0,0,0-.183-.052l-3.489.776a.218.218,0,0,0-.131.366Z" transform="translate(3812.25 192.071)" fill="#464a5f"/>
    <path id="Path_339" data-name="Path 339" d="M222.145,436.737l1.683,1.823a.2.2,0,0,0,.218.061l3.7-1a.227.227,0,0,0,.087-.384l-1.884-1.587a.2.2,0,0,0-.183,0l-3.489.776a.209.209,0,0,0-.131.314Z" transform="translate(3811.605 191.249)" fill="#464a5f"/>
    <path id="Path_340" data-name="Path 340" d="M216.253,438.325l1.6,1.744a.27.27,0,0,0,.27.078l3.567-.977a.27.27,0,0,0,.1-.471l-1.744-1.5a.253.253,0,0,0-.235-.061l-3.384.75a.279.279,0,0,0-.183.436Z" transform="translate(3812.361 191.056)" fill="#464a5f"/>
    <path id="Path_341" data-name="Path 341" d="M234.705,426.145l1.744,1.91a.174.174,0,0,0,.166.052l3.837-1.047a.166.166,0,0,0,.061-.288l-1.98-1.666a.148.148,0,0,0-.14,0l-3.637.8a.157.157,0,0,0-.052.235Z" transform="translate(3809.999 192.596)" fill="#464a5f"/>
    <path id="Path_342" data-name="Path 342" d="M233.892,430.083l1.683,1.823a.209.209,0,0,0,.218.061l3.707-1a.227.227,0,0,0,.078-.384l-1.875-1.587a.218.218,0,0,0-.192-.044l-3.489.776a.218.218,0,0,0-.131.358Z" transform="translate(3810.106 192.103)" fill="#464a5f"/>
    <path id="Path_343" data-name="Path 343" d="M228.131,431.663l1.674,1.823a.244.244,0,0,0,.227.061l3.7-1.012a.218.218,0,0,0,.087-.375l-1.884-1.587a.218.218,0,0,0-.192-.044l-3.489.767a.218.218,0,0,0-.122.366Z" transform="translate(3810.844 191.901)" fill="#464a5f"/>
    <path id="Path_344" data-name="Path 344" d="M204.93,429.36l1.849,1.971a.218.218,0,0,0,.209.07l3.986-.924a.218.218,0,0,0,.1-.375l-2.093-1.971a.218.218,0,0,0-.2-.061l-3.75.933a.209.209,0,0,0-.1.358Z" transform="translate(3813.811 192.216)" fill="#464a5f"/>
    <path id="Path_345" data-name="Path 345" d="M198.819,430.854l1.744,1.875a.27.27,0,0,0,.262.087l3.855-.872a.27.27,0,0,0,.131-.462l-2-1.884a.253.253,0,0,0-.253-.07l-3.637.872a.279.279,0,0,0-.1.454Z" transform="translate(3814.594 192.03)" fill="#464a5f"/>
    <path id="Path_346" data-name="Path 346" d="M192.294,435.913l1.317,2.119a.27.27,0,0,0,.288.122l4.465-.994a.279.279,0,0,0,.166-.427l-1.474-2.05a.262.262,0,0,0-.279-.1l-4.308.924a.27.27,0,0,0-.174.41Z" transform="translate(3815.423 191.384)" fill="#464a5f"/>
    <path id="Path_347" data-name="Path 347" d="M158.761,436.85l4.4-1.02a.27.27,0,0,1,.262.1l.776,1.02a.253.253,0,0,1-.148.4l-4.561,1.064a.244.244,0,0,1-.279-.122l-.619-1.055a.262.262,0,0,1,.166-.384Z" transform="translate(3819.731 191.224)" fill="#464a5f"/>
    <path id="Path_348" data-name="Path 348" d="M165.7,435.35l4.361-1.02a.27.27,0,0,1,.262.1l.776,1.02a.253.253,0,0,1-.148.4l-4.561,1.064a.253.253,0,0,1-.279-.122l-.619-1.064a.253.253,0,0,1,.209-.375Z" transform="translate(3818.849 191.415)" fill="#464a5f"/>
    <path id="Path_349" data-name="Path 349" d="M172.421,433.909l4.4-1.02a.253.253,0,0,1,.262.1l.776,1.012a.262.262,0,0,1-.148.41l-4.561,1.064a.253.253,0,0,1-.279-.122l-.619-1.064a.253.253,0,0,1,.166-.375Z" transform="translate(3817.985 191.6)" fill="#464a5f"/>
    <path id="Path_350" data-name="Path 350" d="M178.964,432.42l4.361-1.02a.271.271,0,0,1,.262.1l.768,1.02a.253.253,0,0,1-.14.4l-4.57,1.064a.262.262,0,0,1-.279-.122l-.619-1.064a.262.262,0,0,1,.218-.375Z" transform="translate(3817.154 191.79)" fill="#464a5f"/>
    <path id="Path_351" data-name="Path 351" d="M185.607,430.951l4.361-1.012a.288.288,0,0,1,.279.1l.75.994a.27.27,0,0,1-.157.427l-4.526,1.055a.27.27,0,0,1-.3-.131l-.6-1.029a.27.27,0,0,1,.192-.4Z" transform="translate(3816.302 191.977)" fill="#464a5f"/>
    <path id="Path_352" data-name="Path 352" d="M192.057,429.6l4.361-1.012a.27.27,0,0,1,.279.1l.75.986a.27.27,0,0,1-.157.427l-4.526,1.055a.279.279,0,0,1-.3-.131l-.6-1.029a.279.279,0,0,1,.192-.4Z" transform="translate(3815.477 192.15)" fill="#464a5f"/>
    <path id="Path_353" data-name="Path 353" d="M198.378,428.295l4.038-.986a.288.288,0,0,1,.262.078l.785.872a.279.279,0,0,1-.131.453l-3.994.942a.262.262,0,0,1-.262-.07l-.872-.872a.27.27,0,0,1,.174-.419Z" transform="translate(3814.668 192.313)" fill="#464a5f"/>
    <path id="Path_354" data-name="Path 354" d="M204.516,426.851l4.16-1.012a.253.253,0,0,1,.218.061l.872.916a.218.218,0,0,1-.1.366l-4.108,1.029a.209.209,0,0,1-.209-.061l-.924-.933a.218.218,0,0,1,.1-.366Z" transform="translate(3813.876 192.501)" fill="#464a5f"/>
    <path id="Path_355" data-name="Path 355" d="M210.651,425.431l4.16-1.012a.235.235,0,0,1,.209.061l.872.916a.218.218,0,0,1-.1.366l-4.108,1.029a.209.209,0,0,1-.209-.061l-.872-.933a.218.218,0,0,1,.052-.366Z" transform="translate(3813.087 192.682)" fill="#464a5f"/>
    <path id="Path_356" data-name="Path 356" d="M216.769,424.181l4.16-1.012a.209.209,0,0,1,.209.061l.872.916a.218.218,0,0,1-.113.358l-4.073,1.038a.236.236,0,0,1-.209-.061l-.916-.933a.218.218,0,0,1,.07-.366Z" transform="translate(3812.307 192.843)" fill="#464a5f"/>
    <path id="Path_357" data-name="Path 357" d="M222.572,422.786l4.282-1.047a.148.148,0,0,1,.157.044l.959,1.012a.166.166,0,0,1-.078.27l-4.23,1.064a.192.192,0,0,1-.157-.044l-1.012-1.029a.166.166,0,0,1,.078-.27Z" transform="translate(3811.562 193.025)" fill="#464a5f"/>
    <path id="Path_358" data-name="Path 358" d="M228.431,421.527l4.291-1.038a.14.14,0,0,1,.148.044l.959,1a.166.166,0,0,1-.079.279l-4.23,1.055a.148.148,0,0,1-.157-.044l-1.012-1.02a.166.166,0,0,1,.078-.279Z" transform="translate(3810.814 193.185)" fill="#464a5f"/>
    <path id="Path_359" data-name="Path 359" d="M234.269,420.211l3.968-.872a.157.157,0,0,1,.166.052l.767.942a.166.166,0,0,1-.087.262l-3.724.986a.192.192,0,0,1-.157-.044l-1.012-1.029a.166.166,0,0,1,.078-.3Z" transform="translate(3810.069 193.332)" fill="#464a5f"/>
    <path id="Path_360" data-name="Path 360" d="M239.847,418.932l3.968-.872a.175.175,0,0,1,.166.052l.759.942a.157.157,0,0,1-.078.262l-3.724.986a.166.166,0,0,1-.166-.044l-1-1.02a.166.166,0,0,1,.078-.305Z" transform="translate(3809.357 193.496)" fill="#464a5f"/>
    <path id="Path_361" data-name="Path 361" d="M162.323,442.673l1.465,2.084a.244.244,0,0,0,.262.1l7.631-1.788a.253.253,0,0,0,.148-.4l-1.622-2.128a.253.253,0,0,0-.262-.1l-7.474,1.831a.253.253,0,0,0-.148.392Z" transform="translate(3819.256 190.633)" fill="#464a5f"/>
    <path id="Path_362" data-name="Path 362" d="M164.994,445.871l1.456,2.329a.27.27,0,0,0,.279.113l9.218-2.2a.253.253,0,0,0,.14-.41l-1.823-2.259a.27.27,0,0,0-.262-.087l-8.852,2.128a.253.253,0,0,0-.157.384Z" transform="translate(3818.914 190.261)" fill="#464a5f"/>
    <path id="Path_363" data-name="Path 363" d="M167.36,449.268l1.744,2.52a.253.253,0,0,0,.27.1l12.21-3.018a.253.253,0,0,0,.14-.4l-1.962-2.529a.253.253,0,0,0-.262-.087l-12.07,3.018a.262.262,0,0,0-.07.4Z" transform="translate(3818.615 189.943)" fill="#464a5f"/>
    <path id="Path_364" data-name="Path 364" d="M199.411,445.556l2.233,2.686a.262.262,0,0,0,.27.087l26.87-6.7a.279.279,0,0,0,.122-.462l-2.739-2.721a.262.262,0,0,0-.262-.07l-26.356,6.733a.279.279,0,0,0-.14.445Z" transform="translate(3814.516 190.898)" fill="#464a5f"/>
    <path id="Path_365" data-name="Path 365" d="M231.207,438.36l2.616,2.616a.227.227,0,0,0,.218.052l5.5-1.474a.218.218,0,0,0,.1-.366l-2.73-2.669a.209.209,0,0,0-.209-.061l-5.416,1.5a.227.227,0,0,0-.078.4Z" transform="translate(3810.454 191.143)" fill="#464a5f"/>
    <path id="Path_366" data-name="Path 366" d="M246.454,436.514l1.2,1.265a.148.148,0,0,0,.157.044l4.073-1.09a.166.166,0,0,0,.07-.279l-1.448-1.361a.157.157,0,0,0-.157-.044l-3.829,1.195a.166.166,0,0,0-.07.27Z" transform="translate(3808.499 191.323)" fill="#464a5f"/>
    <path id="Path_367" data-name="Path 367" d="M250.436,433.427l1.43,1.5a.157.157,0,0,0,.174,0l3.741-1.291a.166.166,0,0,0,.061-.279l-1.43-1.221a.131.131,0,0,0-.148,0l-3.776,1.055a.166.166,0,0,0-.052.235Z" transform="translate(3807.987 191.698)" fill="#464a5f"/>
    <path id="Path_368" data-name="Path 368" d="M253.447,436.234l-1.029-.829a.166.166,0,0,1,0-.288l3.733-1.291a.166.166,0,0,1,.166,0l1.169,1.134a.166.166,0,0,1-.078.27l-3.864,1a.157.157,0,0,1-.1,0Z" transform="translate(3807.741 191.482)" fill="#464a5f"/>
    <path id="Path_369" data-name="Path 369" d="M258,433.793c.323.314.872.924,1.1,1.134a.166.166,0,0,0,.166.044l3.881-1.047a.166.166,0,0,0,.07-.279l-1.378-1.247a.183.183,0,0,0-.166,0l-3.6,1.16a.166.166,0,0,0-.07.235Z" transform="translate(3807.02 191.664)" fill="#464a5f"/>
    <path id="Path_370" data-name="Path 370" d="M245.491,430.712l2.076,2.006a.174.174,0,0,0,.157,0l10.012-2.616a.166.166,0,0,0,.07-.288l-2.433-2.006a.183.183,0,0,0-.148,0l-9.663,2.616a.166.166,0,0,0-.07.288Z" transform="translate(3808.624 192.251)" fill="#464a5f"/>
    <path id="Path_371" data-name="Path 371" d="M244.716,427.268l2.145,1.91a.148.148,0,0,0,.148,0l7.535-1.744a.157.157,0,0,0,.061-.279l-2.468-2.067a.14.14,0,0,0-.14,0l-7.213,1.936a.166.166,0,0,0-.07.244Z" transform="translate(3808.719 192.599)" fill="#464a5f"/>
    <path id="Path_379" data-name="Path 379" d="M1275.764,516.7s-99.9,5.6-115.612,10.683,37.439,4.16,94.753,0,192.742-10.169,151.143-12.942S1275.764,516.7,1275.764,516.7Z" transform="translate(2946 108)" fill="#e2dead"/>
    <path id="Path_372" data-name="Path 372" d="M245.5,423.611l2.032,1.823a.183.183,0,0,0,.148,0l3.864-.872a.157.157,0,0,0,.07-.279l-2.407-2.076a.131.131,0,0,0-.148,0l-3.489,1.125a.157.157,0,0,0-.07.279Z" transform="translate(3808.623 192.968)" fill="#464a5f"/>
    <path id="Path_373" data-name="Path 373" d="M239.429,421.467l1.962,1.788a.157.157,0,0,0,.148,0l6.1-1.448a.166.166,0,0,0,.061-.288l-2.337-1.962a.157.157,0,0,0-.148,0l-5.765,1.622a.166.166,0,0,0-.026.288Z" transform="translate(3809.4 193.306)" fill="#464a5f"/>
    <path id="Path_201" data-name="Path 201" d="M385.263,341.08v42.037L341.7,384.373V342.336Z" transform="translate(3862.309 241.476)" fill="#464a5f"/>
    <path id="Path_203" data-name="Path 203" d="M472.645,434.4l-67.765,2.512h0a6.637,6.637,0,0,1,6.637-6.637l54.517-2.512a6.637,6.637,0,0,1,6.637,6.637Z" transform="translate(3788.236 192.255)" fill="#464a5f"/>
    <path id="Subtraction_3" data-name="Subtraction 3" d="M94.993,97.44v0c4.517-15.5,12.462-36.44,18.332-51.278,6.361-16.08,11.721-28.654,11.775-28.779.015-.1,1.524-10.509,3.18-13.27.5-.826,2.149-1.244,4.913-1.244A72.334,72.334,0,0,1,144.351,4.11L168.271,0c-.025.083-3.365,10.924-6.56,23.04-2.961,11.227-6.429,25.972-6.14,32.46a23.353,23.353,0,0,1-2.247,10,59.431,59.431,0,0,1-5.489,9.755,94.616,94.616,0,0,1-8.155,10.335c-.051.071-5.09,7.167-7.66,10.65q-.041.055-.078.11a54.5,54.5,0,0,0-18.618-3.521A36.882,36.882,0,0,0,95,97.439Z" transform="translate(4272.051 784.938)" fill="#160063"/>
    <path id="Path_740" data-name="Path 740" d="M683.52,693.09s-5,33.82-11.59,36.25S683.52,693.09,683.52,693.09Z" transform="translate(3703.922 197.998)" opacity="0.1"/>
    <path id="Path_741" data-name="Path 741" d="M697.16,666.36c-.56.56-16.07,20.75-22.24,20.93S697.16,666.36,697.16,666.36Z" transform="translate(3703.922 197.998)" opacity="0.1"/>
    <path id="Path_742" data-name="Path 742" d="M721.64,585.44s17,44.29,24.67,30.65a54.771,54.771,0,0,1,4.18-6.28c8.26-10.79,19.93-19.14,19.93-19.14s25.23-10.83,48.4-12.7S884,572,884,572l5.45-4.68c.56-30.27-60.55-44.47-60.55-44.47s-46.72,19.25-64.29,24.85-20.55,14-20.55,14l-17.53,18.55Z" transform="translate(3703.922 197.998)" fill="#2703a6"/>
    <path id="Subtraction_2" data-name="Subtraction 2" d="M162.811,82.994c-6.125-13.508-17.911-21.441-26.72-25.717,5.642-4.787,13.561-11.813,13.64-11.884A4.238,4.238,0,0,1,150.96,43.5c.99-1,2.987-2.46,6.882-3.72s11.086-7.447,16.432-12.415c5.8-5.391,10.728-10.533,10.777-10.585.2-.146,19.676-14.607,23.92-16.63A1.7,1.7,0,0,1,209.708,0c1.166,0,2.9.912,5.166,2.71a68.388,68.388,0,0,1,6.382,5.962c4.128,4.285,7.68,8.628,7.715,8.671l4.589,16.31-.009.013c-.354.453-3.588,4.571-8,9.65a162.317,162.317,0,0,1-16.565,16.817c-10.732,8.98-42.574,21.467-46.169,22.861Z" transform="translate(4216.59 780.295)" fill="#2703a6"/>
    <path id="Path_744" data-name="Path 744" d="M625,666.36c1.12-.56,26,3.93,20.75,6.64S625,666.36,625,666.36Z" transform="translate(3703.922 197.998)" opacity="0.1"/>
    <path id="Path_745" data-name="Path 745" d="M651.93,654.4c1.12.75,14.39,3.93,11,7.48S651.93,654.4,651.93,654.4Z" transform="translate(3703.922 197.998)" opacity="0.1"/>
    <path id="Path_746" data-name="Path 746" d="M790.23,518.91s9,.19,37.93,6.17S884,572,884,572a39,39,0,0,0,18.44-1.12,30.38,30.38,0,0,0,17.75-15.52,24.761,24.761,0,0,1,5.89-7.85l1.82-1.54a36.851,36.851,0,0,0,11.26-18.39,13,13,0,0,1,.75-2.12c1.25-2.72,1-12.58.57-19.92-.113-2.151,9.611-14.66,9.611-14.66L939.16,457.419,871.977,452.8l-28.5,26.133L838,482.35l-13.59,8.53a54.149,54.149,0,0,0-4.95,4.87c-2.2,2.44-4.39,5.42-4.91,8a4.72,4.72,0,0,0-.05,1.75C815.45,510.88,790.23,518.91,790.23,518.91Z" transform="translate(3703.922 197.998)" fill="#2703a6"/>
    <path id="Intersection_1" data-name="Intersection 1" d="M103.882,138.262l17.45-20.56s-15.88.22-22.43,4.71-15.14,2.25-15.14,2.25-19.81-15.89-24.67-21.87-8.78-22.569,6.729-10.09,25.231.89,25.231.89,26.159-18.87,26.72-21.49a25.328,25.328,0,0,1,1.5-4.67s4.29.741,4.29-1.31,4.45-2.79,7.11-4.48c.812-.516,2.9-2.231,5.42-4.366,8.068,3.916,20.436,11.858,26.72,25.717l-.36.139c-12.34,5.57-18.51,33.45-20.57,34.57s-27.84,30.65-27.84,30.65Z" transform="translate(4216.59 780.295)" fill="#100001"/>
    <path id="Intersection_2" data-name="Intersection 2" d="M109.411,172.12l2.8-23.179c-5.05-.37-18.5,20.56-18.5,20.56s-35.14-5.42-41.49-7.29-5.23-13.829,6.91-11.21a20.76,20.76,0,0,0,19.44-5.8s8.62-10.09,13.46-35.879c.63-3.354,1.656-7.395,2.963-11.88,13.238-7.452,27.885-4.4,36.95-1.091-2.4,3.487,4.558,5.681,4.558,5.681s-11.77,3.37-7.1,15.889,1.309,20.741,1.309,20.741L123.8,172.12Z" transform="translate(4272.051 784.938)" fill="#100001"/>
    <path id="Path_756" data-name="Path 756" d="M697.72,593.85l-4.226,9.913s19.555-15.644,32-21.688a177.678,177.678,0,0,1,17.422-18.133l6.385-7.822s9.8-5.153,10.364-5.333l39.75-15.057,25.422-11.752,30.043-21.262,19.409-7.858-19.409-21.725-13.866,6.934s-15.253,11.9-20.337,14.791-5.084,13.4-5.084,13.4l-12.018,6.471L790.23,518.9,749.3,535.73s-25.23,10.84-28.41,10.84-15.7,4.67-17.38,19.62a156.468,156.468,0,0,1-4,21.45C698.48,591.5,697.72,593.85,697.72,593.85Z" transform="translate(3703.922 197.998)" fill="#160063"/>
    <path id="Path_757" data-name="Path 757" d="M814.57,503.71c13.51.45,58.86,1.78,65.45-.12.63-.18-40.08-2.06-49.61-3.93a37.28,37.28,0,0,1-10.93-3.91C817.28,498.19,815.09,501.17,814.57,503.71Z" transform="translate(3872.234 1.262) rotate(13)" opacity="0.1"/>
    <circle id="Ellipse_6" data-name="Ellipse 6" cx="43.8" cy="43.8" r="43.8" transform="translate(4565.492 460.071)" fill="#100001"/>
    <path id="Path_7" data-name="Path 7" d="M863.416,191.087s3.911,21.659-7.908,27.55,22.125,17.252,22.125,17.252L892.4,231.97l9.375-20.166s-11.81-1-8.836-18.712Z" transform="translate(3730.34 341.063)" fill="#ffb9b9"/>
    <path id="Path_8" data-name="Path 8" d="M863.416,191.087s3.911,21.659-7.908,27.55,22.125,17.252,22.125,17.252L892.4,231.97l9.375-20.166s-11.81-1-8.836-18.712Z" transform="translate(3730.34 341.063)" fill="#591404"/>
    <path id="Path_9" data-name="Path 9" d="M799.952,295.09l3.547,37.6-12.4,80.7s.441,41.832,13.234,44.308.054-44.784.054-44.784l18.552-66.78-4.674-61.334Z" transform="matrix(0.358, 0.934, -0.934, 0.358, 4533.743, -258.627)" fill="#bf5b04"/>
    <circle id="Ellipse_7" data-name="Ellipse 7" cx="28.052" cy="28.052" r="28.052" transform="translate(4579.75 487.628)" fill="#bf5b04"/>
    <path id="Path_11" data-name="Path 11" d="M823.493,233.846l-3.937,0s-15.764,12.776-13.832,43.291c0,0,1.473,2.955,12.79,4.937a35.251,35.251,0,0,0,19.477-1.837l12.767-6.505Z" transform="matrix(0.891, 0.454, -0.454, 0.891, 3942.137, -17.235)" fill="#e2dead"/>
    <path id="Path_13" data-name="Path 13" d="M960.943,271.149l9.775,55.623s1.466,8.368-2.98,22.143-21.711,46.727-21.711,46.727l-8.839-15.759,14.825-50.18-12.232-58.579Z" transform="translate(3711.971 323.598)" fill="#bf5b04"/>
    <path id="Path_16" data-name="Path 16" d="M939.662,225.608l5.909-2.946s25.063,30.051,17.665,42.345S934.2,269.4,934.2,269.4Z" transform="translate(3712.624 334.173)" fill="#f2f0d5"/>
    <circle id="Ellipse_8" data-name="Ellipse 8" cx="35.812" cy="35.812" r="35.812" transform="translate(4585.304 416.005)" fill="#100001"/>
    <circle id="Ellipse_12" data-name="Ellipse 12" cx="35.812" cy="35.812" r="35.812" transform="translate(4553.05 380.193)" fill="#100001"/>
    <ellipse id="Ellipse_13" data-name="Ellipse 13" cx="28.469" cy="29.184" rx="28.469" ry="29.184" transform="translate(4551.828 422.633)" fill="#100001"/>
    <ellipse id="Ellipse_9" data-name="Ellipse 9" cx="15.28" cy="25.818" rx="15.28" ry="25.818" transform="translate(4580.298 503.883) rotate(-89.93)" fill="#100001"/>
    <path id="Path_10" data-name="Path 10" d="M912.9,297.416c4.911,7.951-6.744,17.559-12.157,17.553s-50.694,0-50.694,0l-10.938-6.8s-4.421-6.548-1.463-10.751-2.931-17.3-2.931-17.3l-11.254-50.954,5.908-1.76,9.842-2.928,10.836-3.226s7.369,10.29,25.582,7.04c0,0,11.317,1.415,17.733-12.6a19.738,19.738,0,0,1,4.1.5,5.36,5.36,0,0,1,3.28,1.85c.594.94,4.053,1.584,7.98,2.014,5.831.638,12.686.814,12.686.814l-5.48,51.87S907.988,289.465,912.9,297.416Z" transform="translate(3736.787 335.694)" fill="#f2f0d5"/>
    <path id="Path_14" data-name="Path 14" d="M19.164,41.385,10,46.064,0,17.247.017,3.083,9.859,0l1.467,11.847Z" transform="translate(4571.275 651.789) rotate(-70)" fill="#100001"/>
    <path id="Path_15" data-name="Path 15" d="M20.836,4.069,12.8,51.408,0,51.392,9.576,0a5.308,5.308,0,0,1,3.28,1.948C13.45,2.938,16.909,3.616,20.836,4.069Z" transform="translate(4642.844 637.282) rotate(79)" fill="#100001"/>
    <circle id="Ellipse_14" data-name="Ellipse 14" cx="2.461" cy="2.461" r="2.461" transform="translate(4599.069 651.304)" fill="#f2b705"/>
    <circle id="Ellipse_15" data-name="Ellipse 15" cx="2.461" cy="2.461" r="2.461" transform="translate(4610.364 651.025)" fill="#f2b705"/>
    <path id="Path_758" data-name="Path 758" d="M795.49,574.374s33.567-2.41,46.128-24.9c0,0,32.9-47.346,52.919-59.336s52.773-9.758,68.8-27.833,22.748-31.932,22.748-31.932,4.115,14.661-8.879,31.932-17.767,43.781-26.863,71.906-12.561,39.329-29.02,41c-12.407,1.213-78.008.6-109.374,0C801.7,574.985,795.49,574.374,795.49,574.374Z" transform="translate(3731.614 197.998)" fill="#fff" opacity="0.2"/>
    <path id="Path_759" data-name="Path 759" d="M804.85,581.214s31.013-2.433,42.621-25.135c0,0,23.609-47.427,42.813-52.694s54.823-17.033,69.631-35.269,21.01-32.225,21.01-32.225,3.8,14.826-8.207,32.225-16.4,44.182-24.812,72.527-11.6,39.726-26.809,41.348c-11.46,1.221-72.065.6-101.046,0C810.58,581.825,804.85,581.214,804.85,581.214Z" transform="translate(3737.094 191.215)" fill="#2703a6"/>
  </g>
</svg>
