<?xml version="1.0" encoding="utf-8"?>
<!-- Generator: Adobe Illustrator 23.0.6, SVG Export Plug-In . SVG Version: 6.00 Build 0)  -->
<svg version="1.1" id="Layer_2" xmlns="http://www.w3.org/2000/svg" xmlns:xlink="http://www.w3.org/1999/xlink" x="0px" y="0px"
	 viewBox="0 0 44 44" style="enable-background:new 0 0 44 44;" xml:space="preserve">
<style type="text/css">
	.st0{fill:#2703A6;}
</style>
<g id="Layer_2_1_">
	<g id="Web_1_">
		<g id="LinkedIn_Circle_2x.png">
			<path class="st0" d="M14,30h4V19h-4V30z M16,14c-1.1,0-2,0.9-2,2s0.9,2,2,2s2-0.9,2-2S17.1,14,16,14z M27.4,19
				c-3,0-3.4,1.8-3.4,1.8V19h-4v11h4v-6c0,0,0-2,1.7-2c1,0,1.3,0.9,1.3,2v6h4v-6C31,20.9,29.6,19,27.4,19z M22,0C9.8,0,0,9.8,0,22
				s9.8,22,22,22s22-9.8,22-22S34.2,0,22,0z M22,42C11,42,2,33,2,22S11,2,22,2s20,9,20,20S33,42,22,42z"/>
		</g>
	</g>
</g>
</svg>
