<svg id="Layer_2" data-name="Layer 2" xmlns="http://www.w3.org/2000/svg" width="44" height="44" viewBox="0 0 44 44">
  <g id="Web">
    <g id="Instagram_Circle_2x.png" data-name="Instagram Circle@2x.png">
      <path id="Path_478" data-name="Path 478" d="M28,12H16a4,4,0,0,0-4,4V28a4,4,0,0,0,4,4H28a4,4,0,0,0,4-4V16A4,4,0,0,0,28,12Zm-2,3h3v3H26Zm-4,3a4,4,0,1,1-4,4A4,4,0,0,1,22,18Zm8,10a2,2,0,0,1-2,2H16a2,2,0,0,1-2-2V21h2.1A6,6,0,1,0,28,22a5.93,5.93,0,0,0-.1-1H30ZM22,0A22,22,0,1,0,44,22,22,22,0,0,0,22,0Zm0,42A20,20,0,1,1,42,22,20,20,0,0,1,22,42Z" fill="#2703a6"/>
    </g>
  </g>
</svg>
