<svg id="Layer_2" data-name="Layer 2" xmlns="http://www.w3.org/2000/svg" width="44" height="44" viewBox="0 0 44 44">
  <g id="Web">
    <g id="Twitter_Circle_2x.png" data-name="Twitter Circle@2x.png">
      <path id="Path_479" data-name="Path 479" d="M32.45,14.3a8.31,8.31,0,0,1-2.61,1,4.13,4.13,0,0,0-3-1.28,4.07,4.07,0,0,0-4.1,4,4,4,0,0,0,.11.92,11.71,11.71,0,0,1-8.46-4.22,3.949,3.949,0,0,0,1.27,5.36,4.14,4.14,0,0,1-1.86-.51v.05a4.06,4.06,0,0,0,3.29,4,4.19,4.19,0,0,1-1.85.07,4.1,4.1,0,0,0,3.83,2.8A8.31,8.31,0,0,1,14,28.24a8.519,8.519,0,0,1-1-.06A11.75,11.75,0,0,0,19.29,30,11.5,11.5,0,0,0,31,18.51v-.52a8.31,8.31,0,0,0,2-2.09,8.3,8.3,0,0,1-2.36.64,4.07,4.07,0,0,0,1.81-2.24ZM22,0A22,22,0,1,0,44,22,22,22,0,0,0,22,0Zm0,42A20,20,0,1,1,42,22,20,20,0,0,1,22,42Z" fill="#2703a6"/>
    </g>
  </g>
</svg>
