<?xml version="1.0" encoding="utf-8"?>
<!-- Generator: Adobe Illustrator 23.0.6, SVG Export Plug-In . SVG Version: 6.00 Build 0)  -->
<svg version="1.1" id="Capa_1" xmlns="http://www.w3.org/2000/svg" xmlns:xlink="http://www.w3.org/1999/xlink" x="0px" y="0px"
	 viewBox="0 0 587.8 511.2" style="enable-background:new 0 0 587.8 511.2;" xml:space="preserve">
<style type="text/css">
	.st0{opacity:0.2;}
	.st1{fill:#BF5B04;}
	.st2{opacity:0.1;fill:#2703A6;enable-background:new    ;}
	.st3{opacity:0.1;fill:#E2DEAD;enable-background:new    ;}
	.st4{fill:#E2DEAD;}
	.st5{fill:#F2F0D5;}
	.st6{opacity:0.1;enable-background:new    ;}
	.st7{fill:#FFFFFF;}
	.st8{fill:#2703A6;}
	.st9{fill:#4B4770;}
	.st10{fill:#E8EAF2;}
	.st11{fill:#F2B705;}
	.st12{fill:#F1CEC8;}
	.st13{fill:#42312E;}
	.st14{opacity:0.2;fill:#FFFFFF;enable-background:new    ;}
	.st15{fill:#F6E2DF;}
	.st16{fill:#F2DCDC;}
	.st17{fill:#464A5F;}
	.st18{opacity:0.2;enable-background:new    ;}
	.st19{fill:#9C9CA1;}
	.st20{fill:#939498;}
	.st21{opacity:0.1;}
</style>
<g class="st0">
	<path class="st1" d="M482.8,384.5c-0.8,0.2-1.5,0.4-2.3,0.5C481.3,385.1,482.1,385,482.8,384.5z"/>
	<path class="st1" d="M507.3,384.5c1.1,0.3,2.3,0.5,3.4,0.7C509.6,385,508.5,384.7,507.3,384.5z"/>
	<path class="st1" d="M575.8,434.6c-9.3-7-17.7-15-25.6-23.5c-11.1-12.1-23.3-22.1-39.5-25.9c-1.1-0.2-2.3-0.4-3.4-0.7
		c-4.6,0-9.2,0-13.7,0c-2.9,1.2-5.9,1.2-8.8,0c-0.7,0-1.3,0-2,0c-0.7,0.5-1.5,0.6-2.3,0.5c-9.2,2-18.6,2.1-27.8,3.1
		c-28.7,3.3-57.6,6.1-86.3,9.3c-59,6.7-117.9,13.6-176.9,20.4c-38,4.4-76,9-114,13.3c-14.6,1.7-29.3,3.3-43.9,4.2
		c-13.6,0.9-23.2,7-29.2,19c-0.7,1.3-1.5,2.5-2.3,3.7c0,3.6,0,7.2,0,10.8c5.5,16.3,19.1,23.2,33.7,28.7c15.4,5.7,31.3,8.8,47.7,9.7
		c0,0,0,0,0,0c0,0,0,0,0,0c5.6,0,11.2,0,16.7,0c0,0,0,0,0,0c0,0,0,0,0,0c21.5-0.9,42.5-5.2,63.4-9.6
		c54.2-11.3,108.6-21.8,163.5-29.2c44.8-6.1,89.8-11.3,135-14.4c32.1-2.2,64.2-4,96.4-4c7.2,0,14.4-0.6,21.5-1
		c3.4-0.2,6.8-0.7,9.8-2.7c0-0.3,0-0.7,0-1C584.5,441,580.1,437.9,575.8,434.6z"/>
	<path class="st1" d="M556.5,450.1c-32.2,0-64.3,1.8-96.4,4c-45.2,3.1-90.1,8.3-135,14.4c-54.9,7.4-109.3,17.9-163.5,29.2
		c-20.9,4.4-41.9,8.6-63.4,9.6c0,0,0,0,0,0c0,0.1,0,0.3,0,0.4c16.6-0.5,33.2-1.1,49.5-4.4c46.5-9.3,92.8-19.3,139.7-26.4
		c33.3-5.1,66.6-9.6,100.1-13.4c30.5-3.4,61.1-6.3,91.8-7.9c23-1.2,46-3.1,69-2.7c10.2,0.2,20.2-1,30.4-1.2c3.9,0,7.7-0.7,9.1-5.3
		c-2.9,2.1-6.4,2.5-9.8,2.7C570.8,449.6,563.7,450.1,556.5,450.1z"/>
	<path class="st1" d="M31.5,435.4c14.7-0.9,29.3-2.5,43.9-4.2c38-4.3,76-8.9,114-13.3c59-6.8,117.9-13.7,176.9-20.4
		c28.8-3.3,57.6-6,86.3-9.3c9.3-1.1,18.7-1.1,27.8-3.1c-0.5,0-1-0.1-1.5-0.1c-11.7,0.4-23.4,0.8-35.1,1.6
		c-20.2,1.4-40.4,3.9-60.5,6.2c-33.3,3.9-66.6,7.4-99.8,11.5c-25.5,3.1-51,6-76.4,8.9c-33.4,3.9-66.8,8-100.3,11.6
		c-23.1,2.4-46,5.6-69.2,7.5c-6.3,0.5-12.8,0.2-18.8,2.9c-10.1,4.5-17.4,11.4-18.9,23c0.8-1.2,1.6-2.4,2.3-3.7
		C8.4,442.4,18,436.3,31.5,435.4z"/>
	<path class="st1" d="M583.4,437.2c-16-11.4-29.2-26-43.3-39.4c-6.1-5.8-13-10.7-22-11.9c-2.4-0.3-4.9-0.3-7.4-0.7
		c16.1,3.8,28.4,13.8,39.5,25.9c7.8,8.6,16.3,16.5,25.6,23.5c4.3,3.3,8.7,6.4,12,10.8C586.6,442.5,586.2,439.2,583.4,437.2z"/>
	<path class="st1" d="M13.1,490c3.8,2.6,7.7,4.8,11.8,6.8c17.9,8.6,37,10.7,56.5,10.8c0-0.1,0-0.3,0-0.4c0,0,0,0,0,0
		c-16.4-0.9-32.3-4-47.7-9.7C19.1,492.1,5.5,485.2,0,468.9C0.3,478.5,5.7,484.9,13.1,490z"/>
	<path class="st1" d="M97.6,507.7c-5.1,0-10.3,0-15.4,0c-0.1,0-0.1,0-0.2,0c0,0.2-0.1,0.3-0.5,0.5c5.6,0,11.1,0,16.7,0
		C97.7,508,97.6,507.8,97.6,507.7z"/>
	<path class="st1" d="M82,507.7c0.1,0,0.1,0,0.2,0c5.1,0,10.3,0,15.4,0c0-0.1,0.2-0.3,0.6-0.4c0,0,0,0,0,0c-5.6,0-11.2,0-16.7,0
		c0,0,0,0,0,0C81.8,507.4,81.9,507.5,82,507.7z"/>
	<path class="st1" d="M98.1,507.7c-0.2,0-0.3,0-0.5,0c0,0.2,0.1,0.3,0.5,0.5C98.1,508,98.1,507.8,98.1,507.7
		C98.1,507.7,98.1,507.7,98.1,507.7z"/>
	<path class="st1" d="M97.6,507.7c0.2,0,0.3,0,0.5,0c0,0,0,0,0,0c0-0.1,0-0.3,0-0.4C97.8,507.4,97.6,507.5,97.6,507.7z"/>
	<path class="st1" d="M82,507.7c-0.2,0-0.4,0-0.5,0c0,0.2,0,0.3,0,0.5C81.8,508,82,507.8,82,507.7z"/>
	<path class="st1" d="M82,507.7c0-0.1-0.2-0.3-0.6-0.4c0,0.1,0,0.3,0,0.4C81.6,507.7,81.8,507.7,82,507.7z"/>
	<path class="st1" d="M493.6,384.5c-2.9,0-5.9,0-8.8,0C487.7,385.3,490.7,385.3,493.6,384.5z"/>
	<path class="st1" d="M493.6,384.5c-2.9,0.8-5.9,0.8-8.8,0C487.7,385.7,490.7,385.7,493.6,384.5z"/>
</g>
<g id="Group_452" transform="translate(-5386 755.879)">
	<rect id="Rectangle_11" x="5728.2" y="-525.9" class="st2" width="114.1" height="2.5"/>
	<rect id="Rectangle_12" x="5728.2" y="-520" class="st2" width="114.1" height="9.7"/>
	<rect id="Rectangle_19" x="5553.9" y="-518" class="st2" width="22.5" height="22.5"/>
	<path id="Path_38" class="st2" d="M5441.7-626.8v12.9h76.9v-12.9H5441.7z M5449.3-614.7h-6.3v-11.2h6.3V-614.7z M5457-614.7h-6.3
		v-11.2h6.3V-614.7z M5464.6-614.7h-6.3v-11.2h6.3V-614.7z M5472.3-614.7h-6.3v-11.2h6.3V-614.7z M5479.9-614.7h-6.3v-11.2h6.3
		V-614.7z M5487.6-614.7h-6.3v-11.2h6.3V-614.7z M5495.3-614.7h-6.3v-11.2h6.3L5495.3-614.7z M5502.9-614.7h-6.3v-11.2h6.3V-614.7z
		 M5510.5-614.7h-6.3v-11.2h6.3V-614.7z M5518.2-614.7h-6.3v-11.2h6.3L5518.2-614.7z"/>
	<path id="Path_39" class="st2" d="M5441.7-589.3v12.8h76.9v-12.8H5441.7z M5449.3-577.3h-6.3v-11.2h6.3V-577.3z M5457-577.3h-6.3
		v-11.2h6.3V-577.3z M5464.6-577.3h-6.3v-11.2h6.3V-577.3z M5472.3-577.3h-6.3v-11.2h6.3V-577.3z M5479.9-577.3h-6.3v-11.2h6.3
		V-577.3z M5487.6-577.3h-6.3v-11.2h6.3V-577.3z M5495.3-577.3h-6.3v-11.2h6.3L5495.3-577.3z M5502.9-577.3h-6.3v-11.2h6.3V-577.3z
		 M5510.5-577.3h-6.3v-11.2h6.3V-577.3z M5518.2-577.3h-6.3v-11.2h6.3L5518.2-577.3z"/>
	<path id="Path_40" class="st2" d="M5441.7-551.9v12.8h76.9v-12.8H5441.7z M5449.3-539.9h-6.3v-11.2h6.3V-539.9z M5457-539.9h-6.3
		v-11.2h6.3V-539.9z M5464.6-539.9h-6.3v-11.2h6.3V-539.9z M5472.3-539.9h-6.3v-11.2h6.3V-539.9z M5479.9-539.9h-6.3v-11.2h6.3
		V-539.9z M5487.6-539.9h-6.3v-11.2h6.3V-539.9z M5495.3-539.9h-6.3v-11.2h6.3L5495.3-539.9z M5502.9-539.9h-6.3v-11.2h6.3V-539.9z
		 M5510.5-539.9h-6.3v-11.2h6.3V-539.9z M5518.2-539.9h-6.3v-11.2h6.3L5518.2-539.9z"/>
	<path id="Path_41" class="st2" d="M5442-514.5c0.3,1.2,0.7,2.4,1,3.6v-2.8h6.3v11.2h-3.4c0.1,0.3,0.2,0.5,0.3,0.8h72.3v-12.8H5442z
		 M5457-502.5h-6.3v-11.2h6.3V-502.5z M5464.6-502.5h-6.3v-11.2h6.3V-502.5z M5472.3-502.5h-6.3v-11.2h6.3V-502.5z M5479.9-502.5
		h-6.3v-11.2h6.3V-502.5z M5487.6-502.5h-6.3v-11.2h6.3V-502.5z M5495.3-502.5h-6.3v-11.2h6.3V-502.5z M5502.9-502.5h-6.3v-11.2h6.3
		V-502.5z M5510.6-502.5h-6.3v-11.2h6.3V-502.5z M5518.2-502.5h-6.3v-11.2h6.3L5518.2-502.5z"/>
	<path id="Path_42" class="st3" d="M5459.9-477.1c0.2,0.3,0.4,0.5,0.6,0.8h4.2v5.4l1.4,1.6v-7h6.3v11.2h-2.6
		c0.3,0.3,0.5,0.5,0.8,0.8h48.1v-12.9H5459.9z M5479.9-465h-6.3v-11.2h6.3V-465z M5487.6-465h-6.3v-11.2h6.3V-465z M5495.2-465h-6.3
		v-11.2h6.3V-465z M5502.9-465h-6.3v-11.2h6.3V-465z M5510.5-465h-6.3v-11.2h6.3V-465z M5518.2-465h-6.3v-11.2h6.3V-465z"/>
	<path id="Path_43" class="st3" d="M5502-439.7c0.7,0.4,1.5,0.8,2.2,1.2v-0.4h6.3v3.6l1.3,0.6v-4.2h6.3v6.8c0.1,0.1,0.2,0.1,0.4,0.1
		v-7.8H5502z"/>
	<path id="Path_45" class="st4" d="M5392.8-554l-6,0.3l6,38.3l14.5,40.4l4.3-10.6l561.4-43l-0.1-17.2l-84.6-31L5392.8-554z"/>
	<path id="Path_46" class="st4" d="M5896.8-453.2l-6.1-2.8l-30.3-13.9l-0.4-6.3l28.8,12.9l5.9,2.6L5896.8-453.2z"/>
	<path id="Path_47" class="st4" d="M5477.3-432.7l-1.7,9.2l-4.4-6l-6.5-8.8l-4.6-6.2l2.5-5l3.8,4.3l2.1,2.4l3.7,4.2l0.4,0.5
		L5477.3-432.7z"/>
	<path id="Path_48" class="st4" d="M5879.8-353.7c-0.7,4.1-2.8,3.6-4.6,2c-2.2-1.9-3.6-4.5-4-7.3l-16.3-120.1l-0.6-4.4l-0.7-5.2
		l-0.6-4.3l-1.2-8.7l-0.7-5.5l8.4-2.9l1,7.9l2.6,19.2l0.6,4.3l0.6,4.6l0.1,0.9l0.6,4.4l0.2,1.3l14.7,110.1
		C5880-356.3,5880-355,5879.8-353.7z"/>
	<path id="Path_49" class="st3" d="M5896.8-453.2l-6.1-2.8l-1.6-6.1l-0.3-1.3l5.9,2.6L5896.8-453.2z"/>
	<path id="Path_50" class="st4" d="M5939-314.1c-0.4,3.6-2.4,4.1-4.4,3.5c-2.8-0.9-4.9-3.2-5.6-6l-35.5-138.1l-1.9-7.4l-10.7-41.5
		l-1.4-5.2l7.1-8.4l3.4,13l48.6,186.5C5939-316.6,5939.1-315.3,5939-314.1L5939-314.1z"/>
	<path id="Path_51" class="st3" d="M5865-469.1l-3.1-3.1l-1.4-1.4l-5.5-5.5l-0.6-4.4l-0.7-5.2l6.9,6.8l3.1,3l0.6,4.6l0.1,0.9
		L5865-469.1z"/>
	<path id="Path_52" class="st4" d="M5883.4-463.3h-8.8l-0.3-0.3l-9.9-9.9l-1.4-1.4l-8.6-8.6l-17.2-17.2l-3.5-3.5l5.9-2.1l5.2,5.1
		l8.4,8.3l10,9.8l15.5,15.2L5883.4-463.3z"/>
	<path id="Path_53" class="st4" d="M5473.5-484.6l-1.9,7.9l-7.2,29.3l-1.6,6.6l-30.2,123.5c-0.4,1.8-1.2,3.5-2.4,4.9
		c-2.9,3.5-4.7,1.8-5.8-0.3c-0.9-1.9-1.1-4.1-0.6-6.2l38.7-157.3l2.1-8.5L5473.5-484.6z"/>
	<path id="Path_54" class="st4" d="M5518.3-485l-5.6,5.6l-22.2,22.4l-1.5,1.6l-3.1,3.1l-8.6,8.6l-1.5,1.5l-3,3.1l-0.6,0.7l-1.6,1.6
		l-3.8-4.2l1.7-1.6l5.9-5.7l3-2.9l1.5-1.5l8.6-8.4l3.1-3l1.5-1.5l13.6-13.3l6.3-6.1L5518.3-485z"/>
	<path id="Path_55" class="st3" d="M5492.1-465.7l-0.3,1.5l-1.3,7.2l-1.5,1.6l-11.6,11.7l1.3-7.6l0.3-1.5l11.7-11.4L5492.1-465.7z"
		/>
	<path id="Path_56" class="st3" d="M5472.6-438l4.6,5.3l-1.7,9.2l-4.4-6l1-6.1L5472.6-438z"/>
	<path id="Path_57" class="st3" d="M5487.6-461.3l-1,5.7l-0.6,3.1l-8.6,8.6l-1.5,1.5l-3,3.1l0.5-3.1l1-6.2l3-2.9l1.5-1.5
		L5487.6-461.3z"/>
	<path id="Path_58" class="st4" d="M5494.9-487.6l-1.7,9.4l-2.5,13.9l-1.6,8.7l-34.8,191.1c-3.2,7.8-5.5,6.1-6.9,3.3
		c-1.1-2.3-1.5-5-1-7.5l26.9-158.1l1.5-8.9l1.1-6.6l1.6-9.2l4.4-26l0.9-5.1L5494.9-487.6z"/>
	<path id="Subtraction_1" class="st5" d="M5407.8-512.3L5407.8-512.3l-20.9-41.4l501.6-23l84.6,31l-470.2,27.9
		c9.9-2.9,21-6.4,31.6-9.8h0c14.7-4.7,28.7-9.2,35.2-10.3c3.5-0.6,5.4-1.6,5.4-3c0.1-5-22.6-13.4-37.4-16.5
		c-3.7-0.6-7.6-0.9-11.4-0.8c-13.3,0-32.5,2.1-46.2,3.9c-14.8,1.9-26.7,3.9-26.8,3.9c0,0,2.3,6.2,5.5,13.7
		c2.9,6.8,7.3,15.9,11.1,20.9L5407.8-512.3L5407.8-512.3z"/>
	<path id="Path_60" class="st4" d="M5386.8-553.7l-0.8,33.9l21.4,44.8l0.4-37.3L5386.8-553.7z"/>
	<path id="Path_61" class="st6" d="M5464.7-484.6h8.8l-1.9,7.9l-9,0.6L5464.7-484.6z"/>
	<path id="Path_62" class="st6" d="M5482.7-482.5l12.1-5l-1.7,9.4l-11.3,0.7L5482.7-482.5z"/>
	<path id="Path_63" class="st6" d="M5512-485h6.3l-5.6,5.6l-7,0.5L5512-485z"/>
	<path id="Path_64" class="st6" d="M5839.4-506.4l5.2,5.1l-7.5,0.5l-3.5-3.5L5839.4-506.4z"/>
	<path id="Path_65" class="st6" d="M5859.5-510.2l1,7.9l-8.7,0.6l-0.7-5.5L5859.5-510.2z"/>
	<path id="Path_66" class="st6" d="M5890.1-504.3l-9.2,0.6l-1.4-5.3l7.1-8.4L5890.1-504.3z"/>
	<path id="Path_67" class="st4" d="M5973-545.8l0.8,33.5L5407.4-475l0.4-37.3L5973-545.8z"/>
	<path id="Path_68" class="st6" d="M5416.1-505.1l130.2-5.9l0.4,23l-129.8,5.4L5416.1-505.1z"/>
	<path id="Path_69" class="st7" d="M5414.9-506.4l130.2-5.9l0.4,23l-129.8,5.5L5414.9-506.4z"/>
	<path id="Path_70" class="st6" d="M5555.1-511.8l294.3-17.2l-0.4,21.8l-294.7,18.8L5555.1-511.8z"/>
	<path id="Path_71" class="st7" d="M5553.9-513.1l294.3-17.2l-0.4,21.8L5553-489.7L5553.9-513.1z"/>
	<path id="Path_72" class="st6" d="M5854.5-529.8l112.2-7.1l0.8,21.3l-111.8,7.5L5854.5-529.8z"/>
	<path id="Path_73" class="st7" d="M5853.2-531.1l112.2-7.1l0.8,21.3l-111.8,7.5L5853.2-531.1z"/>
	
		<rect id="Rectangle_30" x="5473.5" y="-496.4" transform="matrix(0.9997 -2.599122e-02 2.599122e-02 0.9997 14.7362 142.3022)" class="st6" width="15.9" height="1.3"/>
	
		<rect id="Rectangle_31" x="5473.5" y="-497.6" transform="matrix(0.9997 -2.599122e-02 2.599122e-02 0.9997 14.7688 142.3018)" class="st5" width="15.9" height="1.3"/>
	
		<rect id="Rectangle_32" x="5781.6" y="-514.4" transform="matrix(0.9997 -2.599122e-02 2.599122e-02 0.9997 15.3082 150.3049)" class="st6" width="15.9" height="1.3"/>
	
		<rect id="Rectangle_33" x="5781.6" y="-515.6" transform="matrix(0.9997 -2.599122e-02 2.599122e-02 0.9997 15.3408 150.3043)" class="st5" width="15.9" height="1.3"/>
	
		<rect id="Rectangle_34" x="5608.7" y="-504.3" transform="matrix(0.9997 -2.599122e-02 2.599122e-02 0.9997 14.9887 145.8143)" class="st6" width="15.9" height="1.3"/>
	
		<rect id="Rectangle_35" x="5608.7" y="-505.6" transform="matrix(0.9997 -2.599122e-02 2.599122e-02 0.9997 15.0213 145.8139)" class="st5" width="15.9" height="1.3"/>
	
		<rect id="Rectangle_36" x="5905.1" y="-522.7" transform="matrix(0.9997 -2.599122e-02 2.599122e-02 0.9997 15.5675 153.512)" class="st6" width="15.9" height="1.3"/>
	
		<rect id="Rectangle_37" x="5905.1" y="-524" transform="matrix(0.9997 -2.599122e-02 2.599122e-02 0.9997 15.6001 153.5117)" class="st5" width="15.9" height="1.3"/>
	<path id="Path_137" class="st8" d="M5852.7-603.9c0,0-4,18.6,13.8,20.9l1.1-2.1C5867.6-585.1,5853.8-598.1,5852.7-603.9z"/>
	<path id="Path_138" class="st8" d="M5873.3-585.2l-4.1,0.9l-0.4,0.1c0,0-11-9-10.9-29c1.5,2.9,3.2,5.7,5.2,8.3
		C5867.4-599.1,5872.4-591.4,5873.3-585.2z"/>
	<path id="Path_139" class="st8" d="M5874.7-583.3c-0.7,0.4-1.5,0.5-2.2,0.3c-10.6-2.5-7-37.2-7-37.2c0.6,0.3,1.2,4.7,3.7,10.4
		C5873.4-599.8,5878.1-585.8,5874.7-583.3z"/>
	<path id="Path_140" class="st8" d="M5898.2-603.9c0,0,0.7,18.6-17.1,20.9l-1.1-2.1C5880-585.1,5897.1-598.1,5898.2-603.9z"/>
	<path id="Path_141" class="st8" d="M5893.1-613.3c0.1,20.1-14.2,29-14.2,29l-0.4-0.1l-4.1-0.9c0.8-6.1,5.8-13.9,10.2-19.7
		C5887-608.1,5889.9-610.9,5893.1-613.3z"/>
	<path id="Path_142" class="st8" d="M5878.4-585.1c-0.6,0.8-1.5,1.4-2.4,1.8l0,0c-0.3,0.1-0.6,0.2-0.9,0.3c-2.6,0.6-3.5-1.3-3.4-4.5
		c0.2-5.7,3.8-15.6,7.1-23c2.3-5.3,6.1-9.4,6.7-9.6C5885.5-620.2,5885.4-593.2,5878.4-585.1z"/>
	<path id="Path_143" class="st8" d="M5875.5-632.3c0,0-11.9,42.1-1.7,48.5C5884-577.5,5878.1-628.6,5875.5-632.3z"/>
	<path id="Path_144" class="st6" d="M5852.7-603.9c0,0-4,18.6,13.8,20.9l1.1-2.1C5867.6-585.1,5853.8-598.1,5852.7-603.9z"/>
	<path id="Path_145" class="st6" d="M5873.3-585.2l-4.1,0.9l-0.4,0.1c0,0-11-9-10.9-29c1.5,2.9,3.2,5.7,5.2,8.3
		C5867.4-599.1,5872.4-591.4,5873.3-585.2z"/>
	<path id="Path_146" class="st6" d="M5874.7-583.3c-0.7,0.4-1.5,0.5-2.2,0.3c-10.6-2.5-7-37.2-7-37.2c0.6,0.3,1.2,4.7,3.7,10.4
		C5873.4-599.8,5878.1-585.8,5874.7-583.3z"/>
	<path id="Path_147" class="st6" d="M5898.2-603.9c0,0,0.7,18.6-17.1,20.9l-1.1-2.1C5880-585.1,5897.1-598.1,5898.2-603.9z"/>
	<path id="Path_148" class="st6" d="M5893.1-613.3c0.1,20.1-14.2,29-14.2,29l-0.4-0.1l-4.1-0.9c0.8-6.1,5.8-13.9,10.2-19.7
		C5887-608.1,5889.9-610.9,5893.1-613.3z"/>
	<path id="Path_149" class="st6" d="M5878.4-585.1c-0.6,0.8-1.5,1.4-2.4,1.8l0,0c-0.3,0.1-0.6,0.2-0.9,0.3c-2.6,0.6-3.5-1.3-3.4-4.5
		c0.2-5.7,3.8-15.6,7.1-23c2.3-5.3,6.1-9.4,6.7-9.6C5885.5-620.2,5885.4-593.2,5878.4-585.1z"/>
	<path id="Path_150" class="st6" d="M5875.5-632.3c0,0-11.9,42.1-1.7,48.5C5884-577.5,5878.1-628.6,5875.5-632.3z"/>
	<path id="Path_151" class="st8" d="M5852.7-603.9c0,0-2.3,18.6,15.5,20.9l1.1-2.1C5869.2-585.1,5853.8-598.1,5852.7-603.9z"/>
	<path id="Path_152" class="st8" d="M5874.9-585.2l-4.1,0.9l-0.4,0.1c0,0-12.7-9-12.6-29c0,0,3.3,3.5,7,8.3
		C5869.1-599.1,5874.1-591.4,5874.9-585.2z"/>
	<path id="Path_153" class="st6" d="M5874.9-585.2l-4.1,0.9c-3.9-3.5-5.5-12.4-6.1-20.6C5869.1-599.1,5874.1-591.4,5874.9-585.2z"/>
	<path id="Path_154" class="st8" d="M5876.3-583.3c-0.7,0.4-1.5,0.5-2.2,0.3c-10.6-2.5-8.7-37.2-8.7-37.2c0.6,0.3,2.9,4.7,5.3,10.4
		C5875-599.8,5879.7-585.8,5876.3-583.3z"/>
	<path id="Path_155" class="st8" d="M5898.2-603.9c0,0,2.3,18.6-15.5,20.9l-1.1-2.1C5881.7-585.1,5897.1-598.1,5898.2-603.9z"/>
	<path id="Path_156" class="st8" d="M5893.1-613.3c0.1,20.1-12.6,29-12.6,29l-0.4-0.1l-4.1-0.9c0.8-6.1,5.8-13.9,10.2-19.7
		C5889.9-609.8,5893.1-613.3,5893.1-613.3z"/>
	<path id="Path_157" class="st6" d="M5886.2-604.9c-0.5,7.6-1.9,15.9-5.3,19.8c-0.2,0.3-0.5,0.5-0.8,0.8l-4.1-0.9
		C5876.8-591.4,5881.8-599.1,5886.2-604.9z"/>
	<path id="Path_158" class="st8" d="M5880.1-585.1c-0.6,0.8-1.5,1.4-2.4,1.8l0,0c-0.3,0.1-0.6,0.2-0.9,0.3c-2.6,0.6-3.5-1.3-3.4-4.5
		c0.2-5.7,3.8-15.6,7.1-23c2.3-5.3,4.5-9.4,5-9.6C5885.5-620.2,5887-593.2,5880.1-585.1z"/>
	<path id="Path_159" class="st6" d="M5876.3-583.3c-0.6,0-1.2-0.2-1.7-0.5c-5-3.1-5.1-14.8-3.9-25.9
		C5875-599.8,5879.7-585.8,5876.3-583.3z"/>
	<path id="Path_160" class="st6" d="M5880.1-585.1c-0.6,1.2-1.4,1.9-2.4,1.8l0,0c-0.5-0.1-1-0.2-1.4-0.5c-1.3-0.9-2.3-2.2-2.8-3.7
		c0.2-5.7,3.8-15.6,7.1-23C5881.7-600.2,5882.1-589.3,5880.1-585.1z"/>
	<path id="Path_161" class="st8" d="M5875.5-632.3c0,0-10.2,42.1,0,48.5C5885.7-577.5,5878.1-628.6,5875.5-632.3z"/>
	<path id="Path_162" class="st9" d="M5895.1-585.9h-42.5v7h6.5l0.2,0.8l2.6,13.7h24.7l2.6-13.7l0.2-0.8h5.8L5895.1-585.9z"/>
	<path id="Path_163" class="st6" d="M5895.1-585.9h-42.5v7h6.5l0.2,0.8l2.6,13.7h24.7l2.6-13.7l0.2-0.8h5.8L5895.1-585.9z"/>
	<path id="Path_164" class="st9" d="M5891.5-581.8l-0.7,3.7l-2.6,13.7h-24.7l-2.6-13.7l-0.7-3.7H5891.5z"/>
	<path id="Path_165" class="st6" d="M5891.5-581.8l-0.7,3.7h-29.9l-0.7-3.7H5891.5z"/>
	<rect id="Rectangle_40" x="5854.2" y="-585.9" class="st9" width="42.5" height="7"/>
	<circle id="Ellipse_34" class="st6" cx="5498.7" cy="-279.1" r="1.3"/>
	<circle id="Ellipse_44" class="st6" cx="5501.3" cy="-272.8" r="1.3"/>
	<path id="Path_181" class="st10" d="M5936.4-553.9c0,3.8-8.1,8.2-18.2,8.2c-10,0-18.2-4.5-18.2-8.2c0-3.8,8.1-5.5,18.2-5.5
		C5928.3-559.4,5936.4-557.7,5936.4-553.9z"/>
	<path id="Path_182" class="st6" d="M5936.4-553.9c0,3.8-8.1,8.2-18.2,8.2c-10,0-18.2-4.5-18.2-8.2c0-3.8,8.1-5.5,18.2-5.5
		C5928.3-559.4,5936.4-557.7,5936.4-553.9z"/>
	<ellipse id="Ellipse_45" class="st10" cx="5918.3" cy="-553.9" rx="18.2" ry="6.9"/>
	<ellipse id="Ellipse_46" class="st6" cx="5918.3" cy="-553.9" rx="10.3" ry="3.9"/>
	<path id="Path_183" class="st11" d="M5933.2-562.2c-1.7,4.5-4.5,5.8-6.6,6.1c-1.1,0.1-2.1,0-3.2-0.3l1.3-2.7c0.8,0.2,1.6,0.2,2.4,0
		c1.1-0.3,2.3-1.3,3.2-3.5c1.3-3.4-0.3-3.9-1.5-3.9c-0.2,0-0.5,0-0.7,0.1l1-2.1c0.3-0.1,0.7-0.1,1-0.2
		C5932-568.9,5935.6-568.5,5933.2-562.2z"/>
	<path id="Path_184" class="st12" d="M5925.1-552.8c-7.1,3.7-14,0-14,0l0.1-1l0.1-0.8l13.7-0.3l0.1,1.2L5925.1-552.8z"/>
	<path id="Path_185" class="st6" d="M5927.1-559.1c-0.1,1-0.3,2-0.5,3c-1.1,0.1-2.1,0-3.2-0.3l1.3-2.7
		C5925.5-558.9,5926.3-558.9,5927.1-559.1L5927.1-559.1z"/>
	<path id="Path_186" class="st6" d="M5930.1-568.7c-0.1,0.3-0.2,0.5-0.4,0.8l-0.1,0.1c-0.3,0.4-0.5,0.9-0.8,1.3
		c-0.2,0-0.5,0-0.7,0.1l1-2.1C5929.4-568.6,5929.7-568.6,5930.1-568.7L5930.1-568.7z"/>
	<path id="Path_187" class="st6" d="M5925.1-553.6c-2.4,1.3-11.5,1.7-13.9-0.2l0.1-0.8l13.7-0.3L5925.1-553.6z"/>
	<path id="Path_188" class="st11" d="M5929.4-567.9l-0.1,0.1c-1.3,2-2.1,4.3-2.3,6.7c-0.4,5.9-1.3,6.5-1.4,6.7
		c-0.7,1.8-12.9,2.5-14.7,0c-1.5-2.1-3-6.5-2.3-9c0.4-1.4-0.4-2.8-1.2-3.9c-1-1.4-0.7-3.2,0.7-4.2c0,0,0.1-0.1,0.1-0.1
		c3.5-2.2,9.6-2.3,9.6-2.3c5.2-0.4,8.6,0.6,10.6,1.7l0.3,0.2C5930-571.1,5930.4-569.3,5929.4-567.9
		C5929.4-567.9,5929.4-567.9,5929.4-567.9L5929.4-567.9z"/>
	<ellipse id="Ellipse_47" class="st6" cx="5918.1" cy="-568.5" rx="9.3" ry="2.2"/>
	<ellipse id="Ellipse_48" class="st13" cx="5918.1" cy="-568.2" rx="9.3" ry="2.2"/>
	<path id="Path_189" class="st14" d="M5920-569.6c0,0-6.7,0.2-6.5,2.6C5915.5-568.3,5917.7-569.2,5920-569.6z"/>
	<path id="Path_190" class="st14" d="M5921.9-569c0,0-4,0-3.3,2c0,0,0.9-0.1,0.8-0.7s2.5-1,2.5-1L5921.9-569z"/>
	<path id="Path_191" class="st15" d="M5907.8-569.6c0,0-0.3,4.1,10.1,3.9s10.3-2.9,10.5-3.9h-0.6c0,0-0.1,3.3-9.7,3.2
		s-9.8-3.2-9.8-3.2H5907.8z"/>
	<path id="Path_192" class="st6" d="M5929.9-570.3l-6.3,3.3c-0.3,0.1-0.6,0.1-0.7-0.2l-0.1-0.1c-0.3-0.3-0.2-0.8,0.1-1.1
		c0,0,0,0,0.1,0l5.7-3.6C5929.3-571.6,5929.7-571,5929.9-570.3L5929.9-570.3z"/>
	<path id="Path_193" class="st10" d="M5922.9-568.5l16.3-10.3c0.4-0.2,0.8-0.4,1.2-0.4c0.8,0,2,0.1,1.6,1.4
		c-0.2,0.6-0.6,1.2-1.2,1.5l-17.2,9.2c-0.3,0.1-0.6,0.1-0.7-0.1l-0.1-0.1C5922.5-567.7,5922.6-568.2,5922.9-568.5
		C5922.9-568.5,5922.9-568.5,5922.9-568.5L5922.9-568.5z"/>
	<path id="Path_194" class="st6" d="M5922.9-568.5l16.3-10.3c0.4-0.2,0.8-0.4,1.2-0.4c0.8,0,2,0.1,1.6,1.4c-0.2,0.6-0.6,1.2-1.2,1.5
		l-17.2,9.2c-0.3,0.1-0.6,0.1-0.7-0.1l-0.1-0.1C5922.5-567.7,5922.6-568.2,5922.9-568.5C5922.9-568.5,5922.9-568.5,5922.9-568.5
		L5922.9-568.5z"/>
	<path id="Path_195" class="st10" d="M5922.9-568.7l16.3-10.3c0.4-0.2,0.8-0.4,1.2-0.4c0.8,0,2,0.1,1.6,1.4
		c-0.2,0.6-0.6,1.2-1.2,1.5l-17.2,9.2c-0.3,0.1-0.6,0.1-0.7-0.1l-0.1-0.1C5922.5-567.9,5922.6-568.4,5922.9-568.7
		C5922.9-568.6,5922.9-568.7,5922.9-568.7L5922.9-568.7z"/>
	<path id="Path_196" class="st6" d="M5922-568.4c0,0,1.7-0.4,1.5,0.1c-0.2,0.5,0.8,1,0.8,1s-1.8,0.4-2.1,0.2
		C5922-567.3,5922-568.4,5922-568.4z"/>
	<path id="Path_197" class="st13" d="M5921.9-568.3c0,0,1.7-0.4,1.5,0.1c-0.2,0.5,0.8,1,0.8,1s-1.8,0.4-2.1,0.2
		C5921.8-567.2,5921.9-568.3,5921.9-568.3z"/>
	<path id="Path_198" class="st16" d="M5919.2-586.4c-0.8,0.8-1.3,1.8-1.6,2.9c-0.1,1-0.1,2,0.1,3c0.1,0.7,0.2,1.4,0.3,2
		c0.1,0.4,0.3,0.8,0.5,0.5c0-0.9-0.2-1.9-0.2-2.8c0.1-1,0.4-1.9,0.9-2.8c0.5-0.8,0.9-1.6,1.2-2.4c0.1-0.4,0.6-4.1-0.1-3.5
		c-0.1,0.1-0.3,1.3-0.4,1.6C5919.8-587.3,5919.5-586.8,5919.2-586.4z"/>
	<path id="Path_199" class="st16" d="M5919.5-580.3c0.1,0.3,0.3,0.6,0.5,0.9c0.1,0.2,0.1,0.4,0.1,0.6c0.2,1,0,2.1-0.5,3.1
		c0.6-0.3,1.1-0.9,1.2-1.6c0.1-0.3,0.1-0.7,0.2-1.1c0-0.3,0-0.7,0-1c0-0.5,0.2-1.8-0.5-2.1C5919.8-581.7,5919.5-580.8,5919.5-580.3z
		"/>
	<path id="Path_200" class="st6" d="M5908.7-564.1c0.8,0.9,1.8,1.4,3,1.3c-1.1,0.2-2.2,0-3.1-0.4L5908.7-564.1z"/>
	<path id="Path_202" class="st6" d="M5727.3-565.7l0.2,6.5H5684l-0.1-4L5727.3-565.7z"/>
	<path id="Path_204" class="st17" d="M5826.5-603.1l-240.2,7.5c-2.3,0-4.2-1.9-4.2-4.2c0,0,0,0,0,0v-144.3c0-2.3,1.9-4.2,4.2-4.2
		c0,0,0,0,0,0l240.2-7.5c2.3,0,4.2,1.9,4.2,4.2c0,0,0,0,0,0v144.3C5830.8-605.1,5828.9-603.2,5826.5-603.1
		C5826.6-603.2,5826.6-603.1,5826.5-603.1z"/>
	<path id="Path_205" class="st8" d="M5825-613.3l-237.6,7.5v-124.7l237.6-7.5V-613.3z"/>
	<ellipse id="Ellipse_49" class="st7" cx="5705.8" cy="-742.8" rx="2.1" ry="2.1"/>
	<path id="Path_206" class="st6" d="M5727.5-596l-43.4,1.3v-0.8l43.4-1.3V-596z"/>
	<path id="Path_207" class="st18" d="M5825.1-734l-237.8,7.5v-4.3l237.8-7.5V-734z"/>
	<path id="Path_208" class="st17" d="M5456.4-562.6l2.3,4.2l75.2-15.9l-3-4.7L5456.4-562.6z"/>
	<path id="Path_209" class="st17" d="M5447.4-558.6l-11.4-67.6c-0.2-1.2,0.6-2.3,1.8-2.5c0,0,0.1,0,0.1,0l86.3-9.2
		c1.2-0.1,2.2,0.7,2.4,1.9l8.1,59.2L5447.4-558.6z"/>
	<path id="Path_210" class="st6" d="M5447.4-558.6l-11.4-67.6c-0.2-1.2,0.6-2.3,1.8-2.5c0,0,0.1,0,0.1,0l86.3-9.2
		c1.2-0.1,2.2,0.7,2.4,1.9l8.1,59.2L5447.4-558.6z"/>
	<path id="Path_211" class="st17" d="M5448.7-558.6l-11.4-67.6c-0.2-1.2,0.6-2.3,1.8-2.5c0,0,0.1,0,0.1,0l86.3-9.2
		c1.2-0.1,2.2,0.7,2.4,1.9l8.1,59.2L5448.7-558.6z"/>
	<path id="Path_212" class="st8" d="M5443.3-623.1l9.3,57.4l78.1-16.1l-7.3-51L5443.3-623.1z"/>
	<path id="Path_213" class="st19" d="M5458.3-559.8l-0.5-1.1l-10.3,2.3l26.3,40.2c0.8,1.3,2.4,1.8,3.8,1.4l92.4-26.9
		c1.8-0.5,2.8-2.4,2.3-4.2c-0.2-0.7-0.6-1.3-1.2-1.8l-35.8-27.1l-7.5,1.7l0.3,0.8L5458.3-559.8z"/>
	<path id="Path_214" class="st6" d="M5458.3-559.8l-0.5-1.1l-10.3,2.3l26.3,40.2c0.8,1.3,2.4,1.8,3.8,1.4l92.4-26.9
		c1.8-0.5,2.8-2.4,2.3-4.2c-0.2-0.7-0.6-1.3-1.2-1.8l-35.8-27.1l-7.5,1.7l0.3,0.8L5458.3-559.8z"/>
	<path id="Path_215" class="st19" d="M5459.6-559.8l-0.5-1.1l-10.3,2.3l26.3,40.2c0.8,1.3,2.4,1.8,3.8,1.4l92.4-26.9
		c1.8-0.5,2.8-2.4,2.3-4.2c-0.2-0.7-0.6-1.3-1.2-1.8l-35.8-27.1l-7.5,1.7l0.3,0.8L5459.6-559.8z"/>
	<path id="Path_216" class="st6" d="M5500.8-543.3l29.7-7.7c0.2,0,0.4,0,0.5,0.1l13.2,12c0.2,0.2,0.3,0.6,0,0.8
		c-0.1,0.1-0.2,0.1-0.3,0.2l-31.4,9.3c-0.2,0.1-0.5,0-0.6-0.2l-11.5-13.5c-0.2-0.2-0.2-0.6,0.1-0.8
		C5500.7-543.2,5500.7-543.3,5500.8-543.3L5500.8-543.3z"/>
	<path id="Path_217" class="st20" d="M5501.5-543.9l29.7-7.8c0.2,0,0.4,0,0.5,0.1l13.2,12c0.2,0.2,0.3,0.6,0,0.8
		c-0.1,0.1-0.2,0.1-0.3,0.2l-31.4,9.3c-0.2,0.1-0.5,0-0.6-0.2l-11.5-13.4c-0.2-0.2-0.2-0.6,0-0.8
		C5501.3-543.9,5501.4-543.9,5501.5-543.9L5501.5-543.9z"/>
	<g id="Group_13" transform="translate(5458.292 -572.788)" class="st21">
		<path id="Path_218" d="M1.3,18.6l1.3,2.2c0.1,0.1,0.2,0.1,0.3,0.1l4.5-1c0.1,0,0.2-0.2,0.2-0.3c0,0,0-0.1,0-0.1l-1.5-2.1
			c-0.1-0.1-0.2-0.1-0.3-0.1l-4.4,0.9C1.4,18.3,1.3,18.4,1.3,18.6C1.3,18.6,1.3,18.6,1.3,18.6L1.3,18.6z"/>
		<path id="Path_219" d="M7.2,17.4l1.3,2.2c0.1,0.1,0.2,0.1,0.3,0.1l4.5-1c0.1,0,0.2-0.2,0.2-0.3c0,0,0-0.1,0-0.1L12,16.2
			c-0.1-0.1-0.2-0.1-0.3-0.1L7.4,17C7.2,17.1,7.2,17.2,7.2,17.4C7.2,17.4,7.2,17.4,7.2,17.4L7.2,17.4z"/>
		<path id="Path_220" d="M13,16.2l1.3,2.1c0.1,0.1,0.2,0.1,0.3,0.1l4.5-1c0.1,0,0.2-0.2,0.2-0.3c0,0,0-0.1,0-0.1l-1.5-2
			c-0.1-0.1-0.2-0.1-0.3-0.1l-4.4,0.9C13,15.9,12.9,16,13,16.2C12.9,16.2,12.9,16.2,13,16.2L13,16.2z"/>
		<path id="Path_221" d="M18.6,15l1.3,2.1c0.1,0.1,0.2,0.1,0.3,0.1l4.5-1c0.1,0,0.2-0.2,0.2-0.3c0,0,0-0.1,0-0.1l-1.5-2
			c-0.1-0.1-0.2-0.1-0.3-0.1l-4.3,0.9C18.6,14.6,18.5,14.8,18.6,15C18.5,14.9,18.6,15,18.6,15L18.6,15z"/>
		<path id="Path_222" d="M18.1,18.2l1.3,2.1c0.1,0.1,0.2,0.1,0.3,0.1l4.5-1c0.1,0,0.2-0.2,0.2-0.3c0,0,0-0.1,0-0.1L22.9,17
			c-0.1-0.1-0.2-0.1-0.3-0.1l-4.4,0.9C18.1,17.9,18,18,18.1,18.2C18.1,18.2,18.1,18.2,18.1,18.2L18.1,18.2z"/>
		<path id="Path_223" d="M12.3,19.5l1.3,2.1c0.1,0.1,0.2,0.1,0.3,0.1l4.5-1c0.1,0,0.2-0.2,0.2-0.3c0,0,0-0.1,0-0.1l-1.5-2.1
			c-0.1-0.1-0.2-0.1-0.3-0.1l-4.4,0.9C12.3,19.1,12.2,19.3,12.3,19.5C12.3,19.4,12.3,19.4,12.3,19.5L12.3,19.5z"/>
		<path id="Path_224" d="M16.1,22.1l1.3,2.2c0.1,0.1,0.2,0.1,0.3,0.1l4.5-1c0.1,0,0.2-0.2,0.2-0.3c0,0,0-0.1,0-0.1l-1.5-2.1
			c-0.1-0.1-0.2-0.1-0.3-0.1l-4.4,0.9C16.1,21.8,16,21.9,16.1,22.1C16.1,22.1,16.1,22.1,16.1,22.1L16.1,22.1z"/>
		<path id="Path_225" d="M21.4,24.4l1.3,2.1c0.1,0.1,0.2,0.1,0.3,0.1l4.5-1c0.1,0,0.2-0.2,0.2-0.3c0,0,0-0.1,0-0.1l-1.5-2.1
			c-0.1-0.1-0.2-0.1-0.3-0.1L21.6,24C21.5,24.1,21.4,24.2,21.4,24.4C21.4,24.4,21.4,24.4,21.4,24.4L21.4,24.4z"/>
		<path id="Path_226" d="M22.4,28.1l2.2,2.7c0.1,0.1,0.2,0.1,0.3,0.1l4.5-1.2c0.1,0,0.2-0.2,0.2-0.3c0,0,0-0.1-0.1-0.1l-2.2-2.7
			c-0.1-0.1-0.2-0.1-0.3-0.1l-4.5,1.2c-0.1,0-0.2,0.2-0.2,0.3C22.3,28.1,22.3,28.1,22.4,28.1L22.4,28.1z"/>
		<path id="Path_227" d="M28.3,26.7l2.2,2.8c0.1,0.1,0.2,0.1,0.3,0.1l5.9-1.6c0.1,0,0.2-0.2,0.2-0.3c0,0,0-0.1-0.1-0.1l-2.2-2.7
			c-0.1-0.1-0.2-0.1-0.3-0.1l-5.9,1.6C28.3,26.3,28.2,26.4,28.3,26.7C28.3,26.6,28.3,26.6,28.3,26.7L28.3,26.7z"/>
		<path id="Path_228" d="M16.6,29.6l2.2,2.7c0.1,0.1,0.2,0.1,0.3,0.1l4.5-1.2c0.1,0,0.2-0.2,0.2-0.3c0,0,0-0.1-0.1-0.1l-2.2-2.7
			C21.4,28,21.3,28,21.2,28l-4.5,1.2C16.6,29.2,16.5,29.4,16.6,29.6C16.5,29.5,16.6,29.6,16.6,29.6L16.6,29.6z"/>
		<path id="Path_229" d="M10.4,31.2l2.2,2.7c0.1,0.1,0.2,0.1,0.3,0.1l4.5-1.2c0.1,0,0.2-0.2,0.2-0.3c0,0,0-0.1,0-0.1l-2.2-2.7
			c-0.1-0.1-0.2-0.1-0.3-0.1l-4.5,1.2c-0.1,0-0.2,0.2-0.2,0.3C10.4,31.1,10.4,31.1,10.4,31.2L10.4,31.2z"/>
		<path id="Path_230" d="M24.2,13.6l1.3,2.1c0.1,0.1,0.2,0.1,0.3,0.1l4.5-1c0.1,0,0.2-0.2,0.2-0.3c0,0,0-0.1,0-0.1L29,12.4
			c-0.1-0.1-0.2-0.1-0.3-0.1l-4.4,0.9C24.2,13.2,24.1,13.4,24.2,13.6C24.2,13.6,24.2,13.6,24.2,13.6L24.2,13.6z"/>
		<path id="Path_231" d="M23.8,16.9l1.3,2.1c0.1,0.1,0.2,0.1,0.3,0.1l4.5-1c0.1,0,0.2-0.2,0.2-0.3c0,0,0-0.1,0-0.1l-1.5-2
			c-0.1-0.1-0.2-0.1-0.3-0.1L24,16.5C23.8,16.6,23.8,16.7,23.8,16.9C23.8,16.9,23.8,16.9,23.8,16.9L23.8,16.9z"/>
		<path id="Path_232" d="M29.7,12.4l1.3,2.1c0.1,0.1,0.2,0.1,0.3,0.1l4.5-1c0.1,0,0.2-0.2,0.2-0.3c0,0,0-0.1,0-0.1l-1.5-2
			c-0.1-0.1-0.2-0.1-0.3-0.1L29.8,12C29.7,12,29.6,12.1,29.7,12.4C29.6,12.3,29.7,12.3,29.7,12.4L29.7,12.4z"/>
		<path id="Path_233" d="M45.7,8.9l1.9,2c0.1,0.1,0.1,0.1,0.2,0.1l4-0.9c0.1,0,0.2-0.1,0.2-0.3c0,0,0-0.1-0.1-0.1l-2.1-2
			c-0.1-0.1-0.1-0.1-0.2-0.1l-3.8,0.9C45.7,8.6,45.6,8.7,45.7,8.9C45.6,8.8,45.6,8.9,45.7,8.9L45.7,8.9z"/>
		<path id="Path_234" d="M50.8,7.7l1.8,2c0.1,0.1,0.1,0.1,0.2,0.1l4-0.9c0.1,0,0.2-0.1,0.2-0.3c0,0,0-0.1-0.1-0.1l-2.1-2
			c-0.1,0-0.1-0.1-0.2-0.1l-3.8,0.9c-0.1,0-0.2,0.1-0.2,0.3C50.7,7.7,50.8,7.7,50.8,7.7L50.8,7.7z"/>
		<path id="Path_235" d="M45.8,12.1l1.9,2c0.1,0.1,0.1,0.1,0.2,0.1l4-0.9c0.1,0,0.2-0.1,0.2-0.3c0,0,0-0.1-0.1-0.1l-2.1-2
			c-0.1-0.1-0.1-0.1-0.2-0.1l-3.8,0.9C45.8,11.8,45.7,11.9,45.8,12.1C45.8,12.1,45.8,12.1,45.8,12.1L45.8,12.1z"/>
		<path id="Path_236" d="M40.5,13.3l1.7,1.9c0.1,0.1,0.2,0.1,0.3,0.1l3.9-0.9c0.1,0,0.2-0.2,0.2-0.3c0-0.1,0-0.1-0.1-0.1l-2-1.9
			C44.4,12,44.3,12,44.2,12l-3.6,0.9C40.5,12.9,40.4,13.1,40.5,13.3C40.5,13.2,40.5,13.3,40.5,13.3L40.5,13.3z"/>
		<path id="Path_237" d="M44.5,19.2l1.7,1.9c0.1,0.1,0.2,0.1,0.3,0.1l3.9-0.9c0.1,0,0.2-0.2,0.2-0.3c0-0.1,0-0.1-0.1-0.1l-2-1.9
			c-0.1-0.1-0.2-0.1-0.3-0.1l-3.6,0.9C44.5,18.8,44.4,19,44.5,19.2C44.5,19.2,44.5,19.2,44.5,19.2L44.5,19.2z"/>
		<path id="Path_238" d="M39.1,20.5l1.7,1.9c0.1,0.1,0.2,0.1,0.3,0.1l3.9-0.9c0.1,0,0.2-0.2,0.2-0.3c0-0.1,0-0.1-0.1-0.1l-1.9-1.9
			c-0.1-0.1-0.2-0.1-0.3-0.1L39.2,20c-0.1,0-0.3,0.1-0.3,0.3C39,20.4,39,20.4,39.1,20.5L39.1,20.5z"/>
		<path id="Path_239" d="M33.5,21.9l1.7,1.9c0.1,0.1,0.2,0.1,0.3,0.1l3.9-0.9c0.1,0,0.2-0.2,0.2-0.3c0,0,0-0.1-0.1-0.1l-2-1.9
			c-0.1-0.1-0.2-0.1-0.3-0.1l-3.6,0.9c-0.1,0-0.2,0.2-0.2,0.3C33.5,21.8,33.5,21.8,33.5,21.9L33.5,21.9z"/>
		<path id="Path_240" d="M27.6,23l1.8,1.9c0.1,0.1,0.2,0.1,0.2,0.1l3.9-0.9c0.1,0,0.2-0.2,0.2-0.3c0-0.1,0-0.1-0.1-0.1l-2-1.9
			c-0.1-0.1-0.2-0.1-0.2-0.1l-3.7,0.9c-0.1,0-0.2,0.2-0.2,0.3C27.6,22.9,27.6,23,27.6,23L27.6,23z"/>
		<path id="Path_241" d="M39,17l1.7,1.9C40.8,19,40.9,19,41,19l3.9-0.9c0.1,0,0.2-0.2,0.2-0.3c0-0.1,0-0.1-0.1-0.1l-2-1.9
			c-0.1-0.1-0.2-0.1-0.3-0.1l-3.6,0.9C39,16.6,38.9,16.8,39,17C38.9,17,39,17,39,17L39,17z"/>
		<path id="Path_242" d="M33.7,18.3l1.7,1.9c0.1,0.1,0.2,0.1,0.3,0.1l3.9-0.9c0.1,0,0.2-0.2,0.2-0.3c0-0.1,0-0.1-0.1-0.1l-2-1.9
			c-0.1-0.1-0.2-0.1-0.3-0.1l-3.6,0.9C33.6,17.9,33.6,18,33.7,18.3C33.6,18.2,33.6,18.3,33.7,18.3L33.7,18.3z"/>
		<path id="Path_243" d="M28,19.5l1.7,1.9c0.1,0.1,0.2,0.1,0.3,0.1l3.9-0.9c0.1,0,0.2-0.2,0.2-0.3c0,0,0-0.1-0.1-0.1l-2-1.9
			c-0.1-0.1-0.2-0.1-0.3-0.1L28.1,19c-0.1,0-0.2,0.2-0.2,0.3C27.9,19.4,27.9,19.5,28,19.5L28,19.5z"/>
		<path id="Path_244" d="M22.1,20.9l1.8,1.9c0.1,0.1,0.2,0.1,0.2,0.1L28,22c0.1,0,0.2-0.2,0.2-0.3c0-0.1,0-0.1-0.1-0.1l-2-1.9
			c-0.1-0.1-0.2-0.1-0.2-0.1l-3.7,0.9c-0.1,0-0.2,0.2-0.2,0.3C22.1,20.8,22.1,20.8,22.1,20.9L22.1,20.9z"/>
		<path id="Path_245" d="M44.5,15.8l1.7,1.9c0.1,0.1,0.2,0.1,0.3,0.1l3.9-0.9c0.1,0,0.2-0.2,0.2-0.3c0-0.1,0-0.1-0.1-0.1l-2-1.9
			c-0.1-0.1-0.2-0.1-0.3-0.1l-3.6,0.9c-0.1,0-0.2,0.2-0.2,0.3C44.4,15.7,44.5,15.7,44.5,15.8L44.5,15.8z"/>
		<path id="Path_246" d="M35.2,14.7l1.7,1.9c0.1,0.1,0.2,0.1,0.3,0.1l3.9-0.9c0.1,0,0.2-0.2,0.2-0.3c0-0.1,0-0.1-0.1-0.1l-2-1.9
			c-0.1-0.1-0.2-0.1-0.3-0.1l-3.6,0.9c-0.1,0-0.2,0.2-0.2,0.3C35.1,14.6,35.1,14.7,35.2,14.7L35.2,14.7z"/>
		<path id="Path_247" d="M55.7,6.5l1.9,2.1c0,0,0.1,0.1,0.2,0.1l4.1-1c0.1,0,0.1-0.1,0.1-0.2c0,0,0-0.1,0-0.1l-2.2-2.1
			c0,0-0.1-0.1-0.1,0l-3.9,1C55.7,6.2,55.7,6.3,55.7,6.5C55.7,6.4,55.7,6.4,55.7,6.5L55.7,6.5z"/>
		<path id="Path_248" d="M60.7,5.4l1.9,2.1c0,0,0.1,0.1,0.2,0.1l4.1-1c0.1,0,0.1-0.1,0.1-0.2c0,0,0-0.1,0-0.1l-2.2-2.1
			c0,0-0.1,0-0.1,0l-3.9,1C60.7,5.2,60.6,5.3,60.7,5.4C60.7,5.4,60.7,5.4,60.7,5.4L60.7,5.4z"/>
		<path id="Path_249" d="M65.8,4.2l1.7,1.9c0,0,0.1,0.1,0.2,0.1l3.8-1c0.1,0,0.1-0.1,0.1-0.2c0,0,0,0,0-0.1l-2-1.7c0,0-0.1,0-0.1,0
			L65.8,4C65.8,4,65.7,4.1,65.8,4.2C65.8,4.2,65.8,4.2,65.8,4.2L65.8,4.2z"/>
		<path id="Path_250" d="M71.2,6l1.7,1.9c0,0,0.1,0.1,0.2,0.1l3.8-1c0.1,0,0.1-0.1,0.1-0.2c0,0,0-0.1-0.1-0.1l-2-1.7
			c0,0-0.1,0-0.1,0l-3.6,0.8C71.1,5.8,71.1,5.9,71.2,6C71.2,6,71.2,6,71.2,6L71.2,6z"/>
		<path id="Path_251" d="M70.5,9.5l1.7,1.8c0.1,0.1,0.1,0.1,0.2,0.1l3.7-1c0.1,0,0.2-0.2,0.2-0.3c0,0,0-0.1-0.1-0.1l-1.9-1.6
			c0-0.1-0.1-0.1-0.2-0.1l-3.5,0.8c-0.1,0-0.2,0.1-0.2,0.2C70.5,9.4,70.5,9.4,70.5,9.5L70.5,9.5z"/>
		<path id="Path_252" d="M66.1,13.9l1.7,1.8c0.1,0.1,0.1,0.1,0.2,0.1l3.7-1c0.1,0,0.2-0.2,0.2-0.3c0,0,0-0.1-0.1-0.1L70,12.8
			c0,0-0.1-0.1-0.2,0l-3.5,0.8c-0.1,0-0.2,0.1-0.2,0.2C66.1,13.8,66.1,13.8,66.1,13.9L66.1,13.9z"/>
		<path id="Path_253" d="M60.9,15.3l1.7,1.8c0.1,0.1,0.1,0.1,0.2,0.1l3.7-1c0.1,0,0.2-0.2,0.2-0.3c0,0,0-0.1-0.1-0.1l-1.9-1.6
			c0-0.1-0.1-0.1-0.2-0.1L61,14.9c-0.1,0-0.2,0.1-0.2,0.2C60.8,15.2,60.9,15.2,60.9,15.3L60.9,15.3z"/>
		<path id="Path_254" d="M71.1,12.6l1.7,1.8c0.1,0.1,0.1,0.1,0.2,0.1l3.7-1c0.1,0,0.2-0.1,0.2-0.3c0,0,0-0.1-0.1-0.1l-1.9-1.6
			c-0.1,0-0.1-0.1-0.2-0.1l-3.5,0.8C71.1,12.2,71,12.4,71.1,12.6C71.1,12.5,71.1,12.6,71.1,12.6L71.1,12.6z"/>
		<path id="Path_255" d="M70.2,16.5l2.5,2.3c0.1,0,0.1,0.1,0.2,0l3.7-1c0.1,0,0.2-0.2,0.2-0.3c0,0,0-0.1-0.1-0.1L74,15
			c-0.1-0.1-0.1-0.1-0.2,0l-3.5,1.2c-0.1,0-0.2,0.2-0.1,0.3C70.2,16.5,70.2,16.5,70.2,16.5L70.2,16.5z"/>
		<path id="Path_256" d="M61.4,8.4l1.7,1.9c0,0,0.1,0.1,0.2,0l3.8-1c0.1,0,0.1-0.1,0.1-0.2c0,0,0-0.1-0.1-0.1l-2-1.7
			c0,0-0.1,0-0.1,0l-3.6,0.8C61.3,8.2,61.3,8.3,61.4,8.4C61.3,8.4,61.3,8.4,61.4,8.4L61.4,8.4z"/>
		<path id="Path_257" d="M56.4,9.7l1.7,1.8c0.1,0.1,0.1,0.1,0.2,0.1l3.7-1c0.1,0,0.2-0.2,0.2-0.3c0,0,0-0.1-0.1-0.1l-1.9-1.6
			c-0.1,0-0.1-0.1-0.2-0.1l-3.5,0.8C56.4,9.3,56.3,9.5,56.4,9.7C56.4,9.6,56.4,9.6,56.4,9.7L56.4,9.7z"/>
		<path id="Path_258" d="M55.4,13.2l1.7,1.8c0.1,0.1,0.1,0.1,0.2,0.1l3.7-1c0.1,0,0.2-0.2,0.1-0.3c0,0,0-0.1-0.1-0.1l-1.9-1.6
			c-0.1,0-0.1-0.1-0.2,0l-3.5,0.8c-0.1,0-0.2,0.1-0.2,0.2C55.3,13.1,55.3,13.2,55.4,13.2L55.4,13.2z"/>
		<path id="Path_259" d="M50.1,14.5l1.7,1.8c0.1,0.1,0.1,0.1,0.2,0.1l3.7-1c0.1,0,0.2-0.2,0.1-0.3c0,0,0-0.1-0.1-0.1L54,13.4
			c-0.1,0-0.1-0.1-0.2,0l-3.5,0.8C50.2,14.1,50.1,14.2,50.1,14.5C50.1,14.4,50.1,14.4,50.1,14.5L50.1,14.5z"/>
		<path id="Path_260" d="M51.1,10.9l1.7,1.8c0.1,0.1,0.1,0.1,0.2,0.1l3.7-1c0.1,0,0.2-0.2,0.2-0.3c0,0,0-0.1-0.1-0.1l-1.9-1.6
			c0,0-0.1-0.1-0.2,0l-3.5,0.8c-0.1,0-0.2,0.1-0.2,0.2C51,10.8,51,10.8,51.1,10.9L51.1,10.9z"/>
		<path id="Path_261" d="M55.5,16.4l1.7,1.8c0.1,0.1,0.1,0.1,0.2,0.1l3.7-1c0.1,0,0.2-0.2,0.2-0.3c0,0,0-0.1-0.1-0.1l-1.9-1.6
			c0,0-0.1-0.1-0.2,0l-3.5,0.8c-0.1,0-0.2,0.1-0.2,0.2C55.4,16.4,55.4,16.4,55.5,16.4L55.5,16.4z"/>
		<path id="Path_262" d="M50.3,17.8l1.6,1.7c0.1,0.1,0.2,0.1,0.3,0.1l3.6-1c0.1,0,0.2-0.2,0.2-0.3c0-0.1,0-0.1-0.1-0.1l-1.7-1.5
			c-0.1-0.1-0.2-0.1-0.2-0.1l-3.4,0.7c-0.2,0-0.3,0.2-0.2,0.3C50.3,17.8,50.3,17.8,50.3,17.8L50.3,17.8z"/>
		<path id="Path_263" d="M66.4,7.2l1.7,1.9c0,0,0.1,0.1,0.2,0l3.8-1c0.1,0,0.1-0.1,0.1-0.2c0,0,0-0.1-0.1-0.1l-2-1.7
			c0,0-0.1,0-0.1,0L66.5,7C66.4,7,66.4,7.1,66.4,7.2C66.4,7.2,66.4,7.2,66.4,7.2L66.4,7.2z"/>
		<path id="Path_264" d="M65.7,10.6l1.7,1.8c0.1,0.1,0.1,0.1,0.2,0.1l3.7-1c0.1,0,0.2-0.2,0.1-0.3c0,0,0-0.1-0.1-0.1l-1.9-1.6
			c-0.1,0-0.1-0.1-0.2,0l-3.5,0.8c-0.1,0-0.2,0.1-0.2,0.3C65.7,10.6,65.7,10.6,65.7,10.6L65.7,10.6z"/>
		<path id="Path_265" d="M60.7,12l1.7,1.8c0.1,0.1,0.1,0.1,0.2,0.1l3.7-1c0.1,0,0.2-0.2,0.2-0.3c0,0,0-0.1-0.1-0.1l-1.9-1.6
			c-0.1,0-0.1-0.1-0.2-0.1l-3.5,0.8c-0.1,0-0.2,0.1-0.2,0.3C60.6,11.9,60.7,12,60.7,12L60.7,12z"/>
		<path id="Path_266" d="M40.4,10l1.8,2c0.1,0.1,0.1,0.1,0.2,0.1l4-0.9c0.1,0,0.2-0.1,0.2-0.3c0,0,0-0.1-0.1-0.1l-2.1-2
			c-0.1-0.1-0.1-0.1-0.2-0.1l-3.8,0.9c-0.1,0-0.2,0.1-0.2,0.3C40.4,10,40.4,10,40.4,10L40.4,10z"/>
		<path id="Path_267" d="M35.1,11.3l1.7,1.9c0.1,0.1,0.2,0.1,0.3,0.1l3.9-0.9c0.1,0,0.2-0.2,0.2-0.3c0-0.1,0-0.1-0.1-0.1l-2-1.9
			C39,10,38.9,10,38.9,10l-3.6,0.9c-0.1,0-0.2,0.2-0.2,0.3C35.1,11.3,35.1,11.3,35.1,11.3L35.1,11.3z"/>
		<path id="Path_268" d="M29.4,15.7l1.3,2.1C30.8,18,30.9,18,31,18l4.5-1c0.1,0,0.2-0.2,0.2-0.3c0,0,0-0.1,0-0.1l-1.5-2
			c-0.1-0.1-0.2-0.1-0.3-0.1l-4.3,0.9C29.5,15.4,29.4,15.5,29.4,15.7C29.4,15.7,29.4,15.7,29.4,15.7L29.4,15.7z"/>
		<path id="Path_269" d="M0.2,16.5l4.4-1c0.1,0,0.2,0,0.3,0.1l0.8,1c0.1,0.1,0.1,0.3,0,0.4c0,0-0.1,0-0.1,0l-4.6,1.1
			c-0.1,0-0.2,0-0.3-0.1L0,16.9C0,16.8,0,16.6,0.2,16.5C0.1,16.6,0.2,16.5,0.2,16.5L0.2,16.5z"/>
		<path id="Path_270" d="M6.3,15.2l4.4-1c0.1,0,0.2,0,0.3,0.1l0.8,1c0.1,0.1,0.1,0.3-0.1,0.4c0,0-0.1,0-0.1,0l-4.6,1.1
			c-0.1,0-0.2,0-0.3-0.1L6,15.6c-0.1-0.1,0-0.3,0.1-0.3C6.2,15.2,6.2,15.2,6.3,15.2L6.3,15.2z"/>
		<path id="Path_271" d="M12.1,14l4.4-1c0.1,0,0.2,0,0.3,0.1l0.8,1c0.1,0.1,0.1,0.3,0,0.4c0,0-0.1,0-0.1,0l-4.6,1.1
			c-0.1,0-0.2,0-0.3-0.1l-0.6-1.1C11.9,14.2,11.9,14,12.1,14C12.1,14,12.1,14,12.1,14L12.1,14z"/>
		<path id="Path_272" d="M17.8,12.7l4.4-1c0.1,0,0.2,0,0.3,0.1l0.8,1c0.1,0.1,0.1,0.3-0.1,0.4c0,0-0.1,0-0.1,0l-4.6,1.1
			c-0.1,0-0.2,0-0.3-0.1L17.7,13C17.6,12.9,17.6,12.8,17.8,12.7C17.8,12.7,17.8,12.7,17.8,12.7L17.8,12.7z"/>
		<path id="Path_273" d="M23.6,11.4l4.4-1c0.1,0,0.2,0,0.3,0.1l0.8,1c0.1,0.1,0.1,0.3-0.1,0.4c0,0-0.1,0-0.1,0l-4.5,1.1
			c-0.1,0-0.2,0-0.3-0.1l-0.6-1C23.3,11.6,23.4,11.5,23.6,11.4C23.6,11.4,23.6,11.4,23.6,11.4L23.6,11.4z"/>
		<path id="Path_274" d="M29.2,10.2l4.4-1c0.1,0,0.2,0,0.3,0.1l0.8,1c0.1,0.1,0.1,0.3-0.1,0.4c0,0-0.1,0-0.1,0l-4.5,1.1
			c-0.1,0-0.2,0-0.3-0.1l-0.6-1C29,10.5,29,10.3,29.2,10.2C29.2,10.2,29.2,10.2,29.2,10.2L29.2,10.2z"/>
		<path id="Path_275" d="M34.8,9.1l4-1c0.1,0,0.2,0,0.3,0.1L39.8,9c0.1,0.1,0.1,0.3,0,0.4c0,0-0.1,0-0.1,0.1l-4,1
			c-0.1,0-0.2,0-0.3-0.1l-0.9-0.9c-0.1-0.1-0.1-0.3,0.1-0.4C34.7,9.1,34.7,9.1,34.8,9.1L34.8,9.1z"/>
		<path id="Path_276" d="M40.1,7.8l4.2-1c0.1,0,0.2,0,0.2,0.1l0.9,0.9c0.1,0.1,0.1,0.2,0,0.3c0,0-0.1,0.1-0.1,0.1l-4.1,1
			c-0.1,0-0.2,0-0.2-0.1L40,8.2C39.9,8.1,39.9,8,40.1,7.8C40,7.9,40.1,7.8,40.1,7.8L40.1,7.8z"/>
		<path id="Path_277" d="M45.4,6.6l4.2-1c0.1,0,0.2,0,0.2,0.1l0.9,0.9c0.1,0.1,0.1,0.2,0,0.3c0,0-0.1,0-0.1,0.1l-4.1,1
			c-0.1,0-0.2,0-0.2-0.1l-0.9-0.9C45.3,6.8,45.3,6.7,45.4,6.6C45.4,6.6,45.4,6.6,45.4,6.6L45.4,6.6z"/>
		<path id="Path_278" d="M50.8,5.5l4.2-1c0.1,0,0.2,0,0.2,0.1L56,5.4c0.1,0.1,0.1,0.2,0,0.3c0,0-0.1,0-0.1,0l-4.1,1
			c-0.1,0-0.2,0-0.2-0.1l-0.9-0.9C50.6,5.8,50.6,5.6,50.8,5.5C50.7,5.5,50.8,5.5,50.8,5.5L50.8,5.5z"/>
		<path id="Path_279" d="M55.8,4.3l4.3-1c0.1,0,0.1,0,0.2,0l1,1c0.1,0.1,0.1,0.2,0,0.2c0,0-0.1,0-0.1,0l-4.2,1.1c-0.1,0-0.1,0-0.2,0
			l-1-1C55.7,4.5,55.7,4.3,55.8,4.3C55.8,4.3,55.8,4.3,55.8,4.3L55.8,4.3z"/>
		<path id="Path_280" d="M61,3.2l4.3-1c0.1,0,0.1,0,0.1,0.1l1,1c0.1,0.1,0.1,0.2,0,0.2c0,0-0.1,0-0.1,0L62,4.5c-0.1,0-0.1,0-0.2,0
			l-1-1C60.8,3.4,60.8,3.3,61,3.2C60.9,3.2,60.9,3.2,61,3.2L61,3.2z"/>
		<path id="Path_281" d="M66,2l4-0.9c0.1,0,0.1,0,0.2,0.1l0.8,0.9c0.1,0.1,0,0.2,0,0.2c0,0,0,0-0.1,0l-3.7,1c-0.1,0-0.1,0-0.2,0
			l-1-1c-0.1,0-0.1-0.2,0-0.2C65.9,2,66,2,66,2L66,2z"/>
		<path id="Path_282" d="M70.9,0.9l4-0.9C74.9,0,75,0,75,0.1L75.8,1c0.1,0.1,0,0.2,0,0.2c0,0,0,0-0.1,0l-3.7,1c-0.1,0-0.1,0-0.2,0
			l-1-1c-0.1-0.1-0.1-0.2,0-0.2C70.8,0.9,70.9,0.9,70.9,0.9L70.9,0.9z"/>
		<path id="Path_283" d="M3.3,21.8l1.5,2.1C4.8,24,4.9,24,5,24l7.6-1.8c0.1,0,0.2-0.2,0.2-0.3c0,0,0-0.1,0-0.1l-1.6-2.1
			c-0.1-0.1-0.2-0.1-0.3-0.1l-7.5,1.8C3.3,21.4,3.2,21.6,3.3,21.8C3.3,21.7,3.3,21.8,3.3,21.8L3.3,21.8z"/>
		<path id="Path_284" d="M5.6,24.6l1.5,2.3C7.1,27,7.2,27,7.4,27l9.2-2.2c0.1,0,0.2-0.2,0.2-0.3c0,0,0-0.1-0.1-0.1l-1.8-2.3
			c-0.1-0.1-0.2-0.1-0.3-0.1l-8.9,2.1C5.6,24.2,5.6,24.4,5.6,24.6C5.6,24.5,5.6,24.6,5.6,24.6L5.6,24.6z"/>
		<path id="Path_285" d="M7.7,27.7l1.7,2.5c0.1,0.1,0.2,0.1,0.3,0.1l12.2-3c0.1,0,0.2-0.2,0.2-0.3c0,0,0-0.1,0-0.1l-2-2.5
			c-0.1-0.1-0.2-0.1-0.3-0.1l-12.1,3C7.6,27.3,7.6,27.5,7.7,27.7C7.7,27.6,7.7,27.6,7.7,27.7L7.7,27.7z"/>
		<path id="Path_286" d="M35.6,24.9l2.2,2.7c0.1,0.1,0.2,0.1,0.3,0.1L65,21c0.1,0,0.2-0.2,0.2-0.3c0,0,0-0.1-0.1-0.1l-2.7-2.7
			c-0.1-0.1-0.2-0.1-0.3-0.1l-26.4,6.7c-0.1,0-0.2,0.2-0.2,0.3C35.6,24.8,35.6,24.9,35.6,24.9L35.6,24.9z"/>
		<path id="Path_287" d="M63.4,17.9l2.6,2.6c0.1,0.1,0.1,0.1,0.2,0.1l5.5-1.5c0.1,0,0.2-0.1,0.2-0.3c0,0,0-0.1-0.1-0.1l-2.7-2.7
			c-0.1-0.1-0.1-0.1-0.2-0.1l-5.4,1.6C63.3,17.7,63.3,17.8,63.4,17.9C63.3,17.9,63.4,17.9,63.4,17.9L63.4,17.9z"/>
		<path id="Path_288" d="M76.7,16.3l1.2,1.3c0,0,0.1,0.1,0.2,0l4.1-1.1c0.1,0,0.1-0.1,0.1-0.2c0,0,0-0.1,0-0.1l-1.4-1.4
			c0,0-0.1,0-0.2,0l-3.8,1.2C76.6,16.1,76.6,16.2,76.7,16.3C76.7,16.3,76.7,16.3,76.7,16.3L76.7,16.3z"/>
		<path id="Path_289" d="M80.1,13.6l1.4,1.5c0,0,0.1,0.1,0.2,0l3.7-1.3c0.1,0,0.1-0.1,0.1-0.2c0,0,0-0.1,0-0.1l-1.4-1.3
			c0,0-0.1,0-0.1,0l-3.8,1.1C80.1,13.4,80.1,13.5,80.1,13.6C80.1,13.6,80.1,13.6,80.1,13.6L80.1,13.6z"/>
		<path id="Path_290" d="M82.9,16.2l-1-0.9c-0.1,0-0.1-0.2,0-0.2c0,0,0,0,0,0l3.7-1.3c0.1,0,0.1,0,0.2,0l1.2,1.1
			c0.1,0.1,0.1,0.2,0,0.2c0,0,0,0-0.1,0L82.9,16.2C83,16.2,82.9,16.2,82.9,16.2z"/>
		<path id="Path_291" d="M86.7,13.9c0.3,0.3,0.9,0.9,1.1,1.1c0,0,0.1,0.1,0.2,0l3.9-1.1c0.1,0,0.1-0.1,0.1-0.2c0,0,0-0.1,0-0.1
			l-1.4-1.2c-0.1,0-0.1,0-0.2,0l-3.6,1.2C86.7,13.7,86.7,13.8,86.7,13.9C86.7,13.8,86.7,13.9,86.7,13.9L86.7,13.9z"/>
		<path id="Path_292" d="M75.8,11.4l2.1,2c0,0,0.1,0.1,0.2,0l10-2.6c0.1,0,0.1-0.1,0.1-0.2c0,0,0-0.1,0-0.1l-2.4-2c0,0-0.1,0-0.1,0
			l-9.7,2.6C75.8,11.2,75.8,11.3,75.8,11.4C75.8,11.4,75.8,11.4,75.8,11.4L75.8,11.4z"/>
		<path id="Path_293" d="M75.1,8.3l2.1,1.9c0,0,0.1,0,0.1,0L85,8.5c0.1,0,0.1-0.1,0.1-0.2c0,0,0-0.1-0.1-0.1l-2.5-2.1
			c0,0-0.1,0-0.1,0L75.2,8c-0.1,0-0.2,0.1-0.1,0.2C75.1,8.2,75.1,8.3,75.1,8.3L75.1,8.3z"/>
		<path id="Path_294" d="M75.8,5l2,1.8c0,0,0.1,0,0.1,0L81.9,6C82,6,82,5.9,82,5.8c0,0,0-0.1-0.1-0.1l-2.4-2c0,0-0.1,0-0.1,0
			l-3.5,1.1C75.8,4.8,75.8,4.9,75.8,5C75.8,5,75.8,5,75.8,5L75.8,5z"/>
		<path id="Path_295" d="M70.5,3.2l2,1.8c0,0,0.1,0,0.1,0l6.1-1.5c0.1,0,0.1-0.1,0.1-0.2c0,0,0-0.1-0.1-0.1l-2.3-2c0,0-0.1,0-0.1,0
			l-5.8,1.6C70.5,3,70.4,3.1,70.5,3.2C70.5,3.2,70.5,3.2,70.5,3.2L70.5,3.2z"/>
	</g>
	<path id="Path_296" class="st17" d="M5459.6-554.8l1.3,2.1c0.1,0.1,0.2,0.1,0.3,0.1l4.5-1c0.1,0,0.2-0.2,0.2-0.3c0,0,0-0.1,0-0.1
		l-1.5-2.1c-0.1-0.1-0.2-0.1-0.3-0.1l-4.4,0.9C5459.6-555.2,5459.6-555,5459.6-554.8C5459.6-554.9,5459.6-554.8,5459.6-554.8
		L5459.6-554.8z"/>
	<path id="Path_297" class="st17" d="M5465.5-556.1l1.3,2.1c0.1,0.1,0.2,0.1,0.3,0.1l4.5-1c0.1-0.1,0.2-0.2,0.1-0.3c0,0,0,0,0,0
		l-1.5-2.1c-0.1-0.1-0.2-0.1-0.3-0.1l-4.4,0.9C5465.5-556.4,5465.5-556.2,5465.5-556.1C5465.5-556.1,5465.5-556.1,5465.5-556.1
		L5465.5-556.1z"/>
	<path id="Path_298" class="st17" d="M5471.2-557.3l1.3,2.1c0.1,0.1,0.2,0.1,0.3,0.1l4.5-1c0.1,0,0.2-0.2,0.2-0.3c0,0,0-0.1,0-0.1
		l-1.5-2.1c-0.1-0.1-0.2-0.1-0.3-0.1l-4.4,0.9C5471.3-557.6,5471.2-557.5,5471.2-557.3C5471.2-557.3,5471.2-557.3,5471.2-557.3
		L5471.2-557.3z"/>
	<path id="Path_299" class="st17" d="M5476.9-558.5l1.3,2.1c0.1,0.1,0.2,0.1,0.3,0.1l4.5-1c0.1,0,0.2-0.2,0.2-0.3c0,0,0-0.1,0-0.1
		l-1.5-2c-0.1-0.1-0.2-0.1-0.3-0.1l-4.3,0.9C5476.9-558.9,5476.8-558.7,5476.9-558.5C5476.8-558.6,5476.8-558.5,5476.9-558.5
		L5476.9-558.5z"/>
	<path id="Path_300" class="st17" d="M5476.4-555.2l1.3,2.2c0.1,0.1,0.2,0.1,0.3,0.1l4.5-1c0.1,0,0.2-0.2,0.2-0.3c0,0,0-0.1,0-0.1
		l-1.5-2.1c-0.1-0.1-0.2-0.1-0.3-0.1l-4.4,0.9C5476.4-555.5,5476.3-555.4,5476.4-555.2C5476.4-555.2,5476.4-555.2,5476.4-555.2
		L5476.4-555.2z"/>
	<path id="Path_301" class="st17" d="M5470.6-554l1.3,2.1c0.1,0.1,0.2,0.1,0.3,0.1l4.5-1c0.1,0,0.2-0.2,0.2-0.3c0,0,0-0.1,0-0.1
		l-1.5-2.1c-0.1-0.1-0.2-0.1-0.3-0.1l-4.4,0.9C5470.6-554.3,5470.5-554.2,5470.6-554C5470.6-554,5470.6-554,5470.6-554L5470.6-554z"
		/>
	<path id="Path_302" class="st17" d="M5474.4-551.3l1.3,2.1c0.1,0.1,0.2,0.1,0.3,0.1l4.5-1c0.1,0,0.2-0.2,0.2-0.3c0,0,0-0.1,0-0.1
		l-1.5-2.1c-0.1-0.1-0.2-0.1-0.3-0.1l-4.4,0.9C5474.4-551.7,5474.3-551.6,5474.4-551.3C5474.3-551.4,5474.4-551.4,5474.4-551.3
		L5474.4-551.3z"/>
	<path id="Path_303" class="st17" d="M5479.7-549.1l1.3,2.2c0.1,0.1,0.2,0.1,0.3,0.1l4.5-1c0.1,0,0.2-0.2,0.2-0.3c0,0,0-0.1,0-0.1
		l-1.5-2.1c-0.1-0.1-0.2-0.1-0.3-0.1l-4.4,0.9C5479.7-549.4,5479.7-549.3,5479.7-549.1C5479.7-549.1,5479.7-549.1,5479.7-549.1
		L5479.7-549.1z"/>
	<path id="Path_304" class="st17" d="M5480.7-545.3l2.2,2.7c0.1,0.1,0.2,0.1,0.3,0.1l4.5-1.2c0.1,0,0.2-0.2,0.2-0.3
		c0,0,0-0.1-0.1-0.1l-2.2-2.7c-0.1-0.1-0.2-0.1-0.3-0.1l-4.5,1.2C5480.7-545.7,5480.6-545.5,5480.7-545.3
		C5480.6-545.4,5480.6-545.3,5480.7-545.3L5480.7-545.3z"/>
	<path id="Path_305" class="st17" d="M5486.6-546.8l2.2,2.8c0.1,0.1,0.2,0.1,0.3,0.1l5.9-1.6c0.1,0,0.2-0.2,0.2-0.3
		c0,0,0-0.1-0.1-0.1l-2.2-2.7c-0.1-0.1-0.2-0.1-0.3-0.1l-5.9,1.6C5486.6-547.2,5486.5-547,5486.6-546.8
		C5486.5-546.9,5486.6-546.8,5486.6-546.8L5486.6-546.8z"/>
	<path id="Path_306" class="st17" d="M5474.9-543.8l2.2,2.7c0.1,0.1,0.2,0.1,0.3,0.1l4.5-1.2c0.1,0,0.2-0.2,0.2-0.3
		c0,0,0-0.1-0.1-0.1l-2.2-2.7c-0.1-0.1-0.2-0.1-0.3-0.1l-4.5,1.2C5474.9-544.2,5474.8-544.1,5474.9-543.8
		C5474.8-543.9,5474.8-543.9,5474.9-543.8L5474.9-543.8z"/>
	<path id="Path_307" class="st17" d="M5468.7-542.3l2.2,2.7c0.1,0.1,0.2,0.1,0.3,0.1l4.5-1.2c0.1,0,0.2-0.2,0.2-0.3c0,0,0-0.1,0-0.1
		l-2.2-2.7c-0.1-0.1-0.2-0.1-0.3-0.1l-4.5,1.2C5468.7-542.7,5468.7-542.5,5468.7-542.3C5468.7-542.3,5468.7-542.3,5468.7-542.3
		L5468.7-542.3z"/>
	<path id="Path_308" class="st17" d="M5482.5-559.8l1.3,2.1c0.1,0.1,0.2,0.1,0.3,0.1l4.5-1c0.1,0,0.2-0.2,0.2-0.3c0,0,0-0.1,0-0.1
		l-1.5-2c-0.1-0.1-0.2-0.1-0.3-0.1l-4.4,0.9C5482.5-560.2,5482.4-560,5482.5-559.8C5482.5-559.8,5482.5-559.8,5482.5-559.8
		L5482.5-559.8z"/>
	<path id="Path_309" class="st17" d="M5482.1-556.5l1.3,2.1c0.1,0.1,0.2,0.1,0.3,0.1l4.5-1c0.1,0,0.2-0.2,0.2-0.3c0,0,0-0.1,0-0.1
		l-1.5-2c-0.1-0.1-0.2-0.1-0.3-0.1l-4.4,0.9C5482.1-556.9,5482.1-556.7,5482.1-556.5C5482.1-556.6,5482.1-556.5,5482.1-556.5
		L5482.1-556.5z"/>
	<path id="Path_310" class="st17" d="M5488-561.1l1.3,2.1c0.1,0.1,0.2,0.1,0.3,0.1l4.5-1c0.1,0,0.2-0.2,0.2-0.3c0,0,0-0.1,0-0.1
		l-1.5-2c-0.1-0.1-0.2-0.1-0.3-0.1l-4.3,0.9C5488-561.4,5487.9-561.3,5488-561.1C5487.9-561.1,5488-561.1,5488-561.1L5488-561.1z"/>
	<path id="Path_311" class="st17" d="M5504-564.5l1.9,2c0.1,0.1,0.1,0.1,0.2,0.1l4-0.9c0.1,0,0.2-0.1,0.2-0.3c0,0,0-0.1-0.1-0.1
		l-2.1-2c-0.1-0.1-0.1-0.1-0.2-0.1l-3.8,0.9C5503.9-564.9,5503.9-564.8,5504-564.5C5503.9-564.6,5503.9-564.6,5504-564.5L5504-564.5
		z"/>
	<path id="Path_312" class="st17" d="M5509.1-565.7l1.8,2c0.1,0.1,0.1,0.1,0.2,0.1l4-0.9c0.1,0,0.2-0.1,0.2-0.3c0,0,0-0.1-0.1-0.1
		l-2.1-2c-0.1-0.1-0.1-0.1-0.2-0.1l-3.8,0.9c-0.1,0-0.2,0.1-0.2,0.3C5509-565.8,5509-565.8,5509.1-565.7L5509.1-565.7z"/>
	<path id="Path_313" class="st17" d="M5504.1-561.4l1.9,2c0.1,0.1,0.1,0.1,0.2,0.1l4-0.9c0.1,0,0.2-0.1,0.2-0.3c0,0,0-0.1-0.1-0.1
		l-2.1-2c-0.1-0.1-0.1-0.1-0.2-0.1l-3.8,0.9C5504.1-561.7,5504-561.6,5504.1-561.4C5504-561.4,5504.1-561.4,5504.1-561.4
		L5504.1-561.4z"/>
	<path id="Path_314" class="st17" d="M5498.8-560.1l1.7,1.9c0.1,0.1,0.2,0.1,0.3,0.1l3.9-0.9c0.1,0,0.2-0.2,0.2-0.3
		c0-0.1,0-0.1-0.1-0.1l-2-1.9c-0.1-0.1-0.2-0.1-0.3-0.1l-3.6,0.9c-0.1,0.1-0.2,0.2-0.2,0.4C5498.7-560.2,5498.8-560.2,5498.8-560.1
		L5498.8-560.1z"/>
	<path id="Path_315" class="st17" d="M5502.8-554.2l1.7,1.9c0.1,0.1,0.2,0.1,0.3,0.1l3.9-0.9c0.1,0,0.2-0.2,0.2-0.3
		c0-0.1,0-0.1-0.1-0.1l-2-1.9c-0.1-0.1-0.2-0.1-0.3-0.1l-3.6,0.9c-0.1,0-0.2,0.2-0.2,0.3C5502.8-554.3,5502.8-554.2,5502.8-554.2
		L5502.8-554.2z"/>
	<path id="Path_316" class="st17" d="M5497.3-553l1.7,1.9c0.1,0.1,0.2,0.1,0.3,0.1l3.9-0.9c0.1,0,0.2-0.2,0.2-0.3
		c0-0.1,0-0.1-0.1-0.1l-1.9-1.9c-0.1-0.1-0.2-0.1-0.3-0.1l-3.6,0.9c-0.1,0-0.3,0.1-0.3,0.3C5497.3-553.1,5497.3-553,5497.3-553
		L5497.3-553z"/>
	<path id="Path_317" class="st17" d="M5491.8-551.6l1.7,1.9c0.1,0.1,0.2,0.1,0.3,0.1l3.9-0.9c0.1,0,0.2-0.2,0.2-0.3
		c0-0.1,0-0.1-0.1-0.1l-2-1.9c-0.1-0.1-0.2-0.1-0.3-0.1l-3.6,0.9C5491.8-552,5491.7-551.8,5491.8-551.6
		C5491.8-551.6,5491.8-551.6,5491.8-551.6L5491.8-551.6z"/>
	<path id="Path_318" class="st17" d="M5485.9-550.4l1.8,1.9c0.1,0.1,0.2,0.1,0.2,0.1l3.9-0.9c0.1,0,0.2-0.2,0.2-0.3
		c0-0.1,0-0.1-0.1-0.1l-2-1.9c-0.1-0.1-0.2-0.1-0.2-0.1l-3.7,0.9c-0.1,0-0.2,0.1-0.2,0.3C5485.8-550.5,5485.9-550.5,5485.9-550.4
		L5485.9-550.4z"/>
	<path id="Path_319" class="st17" d="M5497.3-556.4l1.7,1.9c0.1,0.1,0.2,0.1,0.3,0.1l3.9-0.9c0.1,0,0.2-0.2,0.2-0.3
		c0,0,0-0.1-0.1-0.1l-2-1.9c-0.1-0.1-0.2-0.1-0.3-0.1l-3.6,0.9C5497.2-556.8,5497.2-556.6,5497.3-556.4
		C5497.2-556.5,5497.3-556.4,5497.3-556.4L5497.3-556.4z"/>
	<path id="Path_320" class="st17" d="M5492-555.2l1.7,1.9c0.1,0.1,0.2,0.1,0.3,0.1l3.9-0.9c0.1,0,0.2-0.2,0.2-0.3
		c0-0.1,0-0.1-0.1-0.1l-2-1.9c-0.1-0.1-0.2-0.1-0.3-0.1l-3.6,0.9C5491.9-555.6,5491.8-555.4,5492-555.2
		C5491.9-555.2,5491.9-555.2,5492-555.2L5492-555.2z"/>
	<path id="Path_321" class="st17" d="M5486.2-554l1.7,1.9c0.1,0.1,0.2,0.1,0.3,0.1l3.9-0.9c0.1,0,0.2-0.2,0.2-0.3
		c0-0.1,0-0.1-0.1-0.1l-2-1.9c-0.1-0.1-0.2-0.1-0.3-0.1l-3.6,0.9c-0.1,0-0.2,0.2-0.2,0.3C5486.2-554,5486.2-554,5486.2-554
		L5486.2-554z"/>
	<path id="Path_322" class="st17" d="M5480.4-552.6l1.8,1.9c0.1,0.1,0.2,0.1,0.2,0.1l3.9-0.9c0.1,0,0.2-0.2,0.2-0.3
		c0-0.1,0-0.1-0.1-0.1l-2-1.9c-0.1-0.1-0.2-0.1-0.2-0.1l-3.7,0.9c-0.1,0-0.2,0.2-0.2,0.3C5480.3-552.6,5480.4-552.6,5480.4-552.6
		L5480.4-552.6z"/>
	<path id="Path_323" class="st17" d="M5502.8-557.7l1.7,1.9c0.1,0.1,0.2,0.1,0.3,0.1l3.9-0.9c0.1,0,0.2-0.2,0.2-0.3
		c0-0.1,0-0.1-0.1-0.1l-2-1.9c-0.1-0.1-0.2-0.1-0.3-0.1l-3.6,0.9c-0.1,0-0.2,0.2-0.2,0.3C5502.7-557.8,5502.8-557.7,5502.8-557.7
		L5502.8-557.7z"/>
	<path id="Path_324" class="st17" d="M5493.5-558.8l1.7,1.9c0.1,0.1,0.2,0.1,0.3,0.1l3.9-0.9c0.1,0,0.2-0.2,0.2-0.3
		c0,0,0-0.1-0.1-0.1l-2-1.9c-0.1-0.1-0.2-0.1-0.3-0.1l-3.6,0.9C5493.4-559.2,5493.4-559,5493.5-558.8
		C5493.4-558.8,5493.4-558.8,5493.5-558.8L5493.5-558.8z"/>
	<path id="Path_325" class="st17" d="M5514-567l1.9,2.1c0,0,0.1,0.1,0.2,0l4.1-1c0.1,0,0.1-0.1,0.1-0.2c0,0,0-0.1,0-0.1l-2.2-2.1
		c0,0-0.1-0.1-0.1,0l-3.9,1C5514-567.2,5514-567.1,5514-567C5514-567,5514-567,5514-567L5514-567z"/>
	<path id="Path_326" class="st17" d="M5519-568.1l1.9,2.1c0,0,0.1,0.1,0.2,0l4.1-1c0.1,0,0.1-0.1,0.1-0.2c0,0,0-0.1,0-0.1l-2.2-2.1
		c0,0-0.1-0.1-0.1,0l-3.9,1C5519-568.3,5518.9-568.3,5519-568.1C5518.9-568.1,5519-568.1,5519-568.1L5519-568.1z"/>
	<path id="Path_327" class="st17" d="M5524.1-569.3l1.7,1.9c0,0,0.1,0.1,0.2,0l3.8-1c0.1,0,0.1-0.1,0.1-0.2c0,0,0-0.1,0-0.1l-2-1.7
		c0,0-0.1,0-0.1,0l-3.6,0.8C5524.1-569.4,5524-569.3,5524.1-569.3C5524.1-569.3,5524.1-569.3,5524.1-569.3L5524.1-569.3z"/>
	<path id="Path_328" class="st17" d="M5529.5-567.5l1.7,1.9c0,0,0.1,0.1,0.2,0l3.8-1c0.1,0,0.1-0.1,0.1-0.2c0,0,0-0.1-0.1-0.1
		l-2-1.7c0,0-0.1,0-0.1,0l-3.6,0.8C5529.4-567.7,5529.4-567.6,5529.5-567.5C5529.5-567.5,5529.5-567.5,5529.5-567.5L5529.5-567.5z"
		/>
	<path id="Path_329" class="st17" d="M5528.8-564l1.7,1.8c0.1,0.1,0.1,0.1,0.2,0.1l3.7-1c0.1,0,0.2-0.2,0.2-0.3c0,0,0-0.1-0.1-0.1
		l-1.9-1.6c-0.1,0-0.1,0-0.2,0l-3.5,0.8C5528.8-564.3,5528.8-564.1,5528.8-564C5528.8-564,5528.8-564,5528.8-564L5528.8-564z"/>
	<path id="Path_330" class="st17" d="M5524.4-559.5l1.7,1.8c0.1,0.1,0.1,0.1,0.2,0.1l3.7-1c0.1,0,0.2-0.2,0.2-0.3c0,0,0-0.1-0.1-0.1
		l-1.9-1.6c0,0-0.1-0.1-0.2,0l-3.5,0.8c-0.1,0-0.2,0.1-0.2,0.2C5524.4-559.6,5524.4-559.6,5524.4-559.5L5524.4-559.5z"/>
	<path id="Path_331" class="st17" d="M5519.2-558.2l1.7,1.8c0.1,0.1,0.1,0.1,0.2,0.1l3.7-1c0.1,0,0.2-0.2,0.2-0.3c0,0,0-0.1-0.1-0.1
		l-1.9-1.6c0,0-0.1-0.1-0.2,0l-3.5,0.8c-0.1,0-0.2,0.1-0.2,0.3C5519.2-558.3,5519.2-558.2,5519.2-558.2L5519.2-558.2z"/>
	<path id="Path_332" class="st17" d="M5529.4-560.9l1.7,1.8c0.1,0.1,0.1,0.1,0.2,0.1l3.7-1c0.1,0,0.2-0.2,0.2-0.3c0,0,0-0.1-0.1-0.1
		l-1.9-1.6c-0.1,0-0.1-0.1-0.2,0l-3.5,0.8c-0.1,0-0.2,0.1-0.2,0.2C5529.3-560.9,5529.4-560.9,5529.4-560.9L5529.4-560.9z"/>
	<path id="Path_333" class="st17" d="M5528.5-556.9l2.5,2.3c0.1,0.1,0.1,0.1,0.2,0l3.7-1c0.1,0,0.2-0.2,0.2-0.3c0,0,0-0.1-0.1-0.1
		l-2.7-2.4c-0.1-0.1-0.1-0.1-0.2,0l-3.5,1.2C5528.5-557.3,5528.4-557.1,5528.5-556.9C5528.5-557,5528.5-557,5528.5-556.9
		L5528.5-556.9z"/>
	<path id="Path_334" class="st17" d="M5519.6-565l1.7,1.9c0,0,0.1,0.1,0.2,0.1l3.8-1c0.1,0,0.1-0.1,0.1-0.2c0,0,0-0.1-0.1-0.1
		l-2-1.7c0,0-0.1,0-0.1,0l-3.6,0.8C5519.6-565.2,5519.6-565.1,5519.6-565C5519.6-565,5519.6-565,5519.6-565L5519.6-565z"/>
	<path id="Path_335" class="st17" d="M5514.7-563.8l1.7,1.8c0.1,0.1,0.1,0.1,0.2,0.1l3.7-1c0.1,0,0.2-0.2,0.2-0.3c0,0,0-0.1-0.1-0.1
		l-1.9-1.6c-0.1,0-0.1,0-0.2,0l-3.5,0.8C5514.7-564.1,5514.6-563.9,5514.7-563.8C5514.7-563.8,5514.7-563.8,5514.7-563.8
		L5514.7-563.8z"/>
	<path id="Path_336" class="st17" d="M5513.7-560.2l1.7,1.8c0.1,0.1,0.1,0.1,0.2,0.1l3.7-1c0.1,0,0.2-0.2,0.1-0.3c0,0,0-0.1-0.1-0.1
		l-1.9-1.6c-0.1-0.1-0.1-0.1-0.2-0.1l-3.5,0.8c-0.1,0-0.2,0.1-0.2,0.2C5513.6-560.3,5513.6-560.3,5513.7-560.2L5513.7-560.2z"/>
	<path id="Path_337" class="st17" d="M5508.4-559l1.7,1.8c0.1,0.1,0.1,0.1,0.2,0.1l3.7-1c0.1,0,0.2-0.2,0.1-0.3c0,0,0-0.1-0.1-0.1
		l-1.9-1.6c-0.1,0-0.1-0.1-0.2,0l-3.5,0.8C5508.4-559.3,5508.4-559.2,5508.4-559C5508.4-559,5508.4-559,5508.4-559L5508.4-559z"/>
	<path id="Path_338" class="st17" d="M5509.4-562.6l1.7,1.8c0.1,0.1,0.1,0.1,0.2,0.1l3.7-1c0.1,0,0.2-0.2,0.2-0.3c0,0,0-0.1-0.1-0.1
		l-1.9-1.6c-0.1,0-0.1-0.1-0.2-0.1l-3.5,0.8c-0.1,0-0.2,0.1-0.2,0.2C5509.3-562.7,5509.4-562.6,5509.4-562.6L5509.4-562.6z"/>
	<path id="Path_339" class="st17" d="M5513.8-557l1.7,1.8c0.1,0.1,0.1,0.1,0.2,0.1l3.7-1c0.1,0,0.2-0.2,0.2-0.3c0,0,0-0.1-0.1-0.1
		l-1.9-1.6c-0.1,0-0.1,0-0.2,0l-3.5,0.8C5513.8-557.3,5513.7-557.2,5513.8-557C5513.7-557.1,5513.7-557,5513.8-557L5513.8-557z"/>
	<path id="Path_340" class="st17" d="M5508.6-555.6l1.6,1.7c0.1,0.1,0.2,0.1,0.3,0.1l3.6-1c0.1,0,0.2-0.2,0.2-0.3
		c0-0.1,0-0.1-0.1-0.1l-1.7-1.5c-0.1-0.1-0.2-0.1-0.2-0.1l-3.4,0.8c-0.2,0-0.3,0.2-0.2,0.3C5508.6-555.7,5508.6-555.7,5508.6-555.6
		L5508.6-555.6z"/>
	<path id="Path_341" class="st17" d="M5524.7-566.3l1.7,1.9c0,0,0.1,0.1,0.2,0.1l3.8-1c0.1,0,0.1-0.1,0.1-0.2c0,0,0-0.1-0.1-0.1
		l-2-1.7c0,0-0.1,0-0.1,0l-3.6,0.8C5524.7-566.5,5524.6-566.4,5524.7-566.3C5524.7-566.3,5524.7-566.3,5524.7-566.3L5524.7-566.3z"
		/>
	<path id="Path_342" class="st17" d="M5524-562.8l1.7,1.8c0.1,0.1,0.1,0.1,0.2,0.1l3.7-1c0.1,0,0.2-0.2,0.1-0.3c0,0,0-0.1-0.1-0.1
		l-1.9-1.6c-0.1,0-0.1-0.1-0.2,0l-3.5,0.8c-0.1,0-0.2,0.1-0.2,0.2C5524-562.9,5524-562.8,5524-562.8L5524-562.8z"/>
	<path id="Path_343" class="st17" d="M5519-561.4l1.7,1.8c0.1,0.1,0.1,0.1,0.2,0.1l3.7-1c0.1,0,0.2-0.2,0.2-0.3c0,0,0-0.1-0.1-0.1
		l-1.9-1.6c-0.1,0-0.1-0.1-0.2,0l-3.5,0.8c-0.1,0-0.2,0.1-0.2,0.3C5518.9-561.5,5518.9-561.5,5519-561.4L5519-561.4z"/>
	<path id="Path_344" class="st17" d="M5498.7-563.4l1.8,2c0.1,0.1,0.1,0.1,0.2,0.1l4-0.9c0.1,0,0.2-0.1,0.2-0.3c0,0,0-0.1-0.1-0.1
		l-2.1-2c-0.1-0.1-0.1-0.1-0.2-0.1l-3.8,0.9c-0.1,0-0.2,0.1-0.2,0.2C5498.7-563.5,5498.7-563.5,5498.7-563.4L5498.7-563.4z"/>
	<path id="Path_345" class="st17" d="M5493.4-562.1l1.7,1.9c0.1,0.1,0.2,0.1,0.3,0.1l3.9-0.9c0.1,0,0.2-0.2,0.2-0.3
		c0-0.1,0-0.1-0.1-0.1l-2-1.9c-0.1-0.1-0.2-0.1-0.3-0.1l-3.6,0.9C5493.4-562.5,5493.3-562.4,5493.4-562.1
		C5493.4-562.2,5493.4-562.1,5493.4-562.1L5493.4-562.1z"/>
	<path id="Path_346" class="st17" d="M5487.7-557.7l1.3,2.1c0.1,0.1,0.2,0.1,0.3,0.1l4.5-1c0.1,0,0.2-0.2,0.2-0.3c0,0,0-0.1,0-0.1
		l-1.5-2c-0.1-0.1-0.2-0.1-0.3-0.1l-4.3,0.9C5487.7-558.1,5487.7-557.9,5487.7-557.7C5487.7-557.8,5487.7-557.7,5487.7-557.7
		L5487.7-557.7z"/>
	<path id="Path_347" class="st17" d="M5458.5-556.9l4.4-1c0.1,0,0.2,0,0.3,0.1l0.8,1c0.1,0.1,0.1,0.3,0,0.4c0,0-0.1,0-0.1,0
		l-4.6,1.1c-0.1,0-0.2,0-0.3-0.1l-0.6-1.1C5458.3-556.7,5458.3-556.8,5458.5-556.9C5458.4-556.9,5458.5-556.9,5458.5-556.9
		L5458.5-556.9z"/>
	<path id="Path_348" class="st17" d="M5464.5-558.2l4.4-1c0.1,0,0.2,0,0.3,0.1l0.8,1c0.1,0.1,0.1,0.3,0,0.4c0,0-0.1,0-0.1,0
		l-4.6,1.1c-0.1,0-0.2,0-0.3-0.1l-0.6-1.1c-0.1-0.1,0-0.3,0.1-0.3C5464.5-558.2,5464.5-558.2,5464.5-558.2L5464.5-558.2z"/>
	<path id="Path_349" class="st17" d="M5470.4-559.5l4.4-1c0.1,0,0.2,0,0.3,0.1l0.8,1c0.1,0.1,0.1,0.3-0.1,0.4c0,0-0.1,0-0.1,0
		l-4.6,1.1c-0.1,0-0.2,0-0.3-0.1l-0.6-1.1C5470.2-559.2,5470.2-559.4,5470.4-559.5C5470.4-559.5,5470.4-559.5,5470.4-559.5
		L5470.4-559.5z"/>
	<path id="Path_350" class="st17" d="M5476.1-560.8l4.4-1c0.1,0,0.2,0,0.3,0.1l0.8,1c0.1,0.1,0.1,0.3,0,0.4c0,0-0.1,0-0.1,0
		l-4.6,1.1c-0.1,0-0.2,0-0.3-0.1l-0.6-1.1C5475.8-560.5,5475.9-560.7,5476.1-560.8C5476.1-560.8,5476.1-560.8,5476.1-560.8
		L5476.1-560.8z"/>
	<path id="Path_351" class="st17" d="M5481.9-562.1l4.4-1c0.1,0,0.2,0,0.3,0.1l0.8,1c0.1,0.1,0.1,0.3-0.1,0.4c0,0-0.1,0-0.1,0
		l-4.5,1.1c-0.1,0-0.2,0-0.3-0.1l-0.6-1C5481.6-561.8,5481.7-562,5481.9-562.1C5481.8-562.1,5481.9-562.1,5481.9-562.1L5481.9-562.1
		z"/>
	<path id="Path_352" class="st17" d="M5487.5-563.2l4.4-1c0.1,0,0.2,0,0.3,0.1l0.8,1c0.1,0.1,0.1,0.3-0.1,0.4c0,0-0.1,0-0.1,0
		l-4.5,1.1c-0.1,0-0.2,0-0.3-0.1l-0.6-1C5487.3-563,5487.3-563.2,5487.5-563.2C5487.5-563.2,5487.5-563.2,5487.5-563.2L5487.5-563.2
		z"/>
	<path id="Path_353" class="st17" d="M5493-564.4l4-1c0.1,0,0.2,0,0.3,0.1l0.8,0.9c0.1,0.1,0.1,0.3,0,0.4c0,0-0.1,0-0.1,0.1l-4,0.9
		c-0.1,0-0.2,0-0.3-0.1l-0.9-0.9c-0.1-0.1-0.1-0.3,0.1-0.4C5493-564.4,5493-564.4,5493-564.4L5493-564.4z"/>
	<path id="Path_354" class="st17" d="M5498.4-565.6l4.2-1c0.1,0,0.2,0,0.2,0.1l0.9,0.9c0.1,0.1,0.1,0.2,0,0.3c0,0-0.1,0-0.1,0.1
		l-4.1,1c-0.1,0-0.2,0-0.2-0.1l-0.9-0.9C5498.2-565.4,5498.2-565.5,5498.4-565.6C5498.3-565.6,5498.4-565.6,5498.4-565.6
		L5498.4-565.6z"/>
	<path id="Path_355" class="st17" d="M5503.7-566.9l4.2-1c0.1,0,0.2,0,0.2,0.1l0.9,0.9c0.1,0.1,0.1,0.2,0,0.3c0,0-0.1,0-0.1,0.1
		l-4.1,1c-0.1,0-0.2,0-0.2-0.1l-0.9-0.9C5503.6-566.6,5503.6-566.7,5503.7-566.9C5503.7-566.9,5503.7-566.9,5503.7-566.9
		L5503.7-566.9z"/>
	<path id="Path_356" class="st17" d="M5509.1-568l4.2-1c0.1,0,0.2,0,0.2,0.1l0.9,0.9c0.1,0.1,0.1,0.2,0,0.3c0,0-0.1,0-0.1,0.1
		l-4.1,1c-0.1,0-0.2,0-0.2-0.1l-0.9-0.9C5508.9-567.7,5508.9-567.8,5509.1-568C5509-567.9,5509-568,5509.1-568L5509.1-568z"/>
	<path id="Path_357" class="st17" d="M5514.1-569.2l4.3-1c0.1,0,0.1,0,0.2,0l1,1c0.1,0.1,0.1,0.2,0,0.2c0,0,0,0-0.1,0l-4.2,1.1
		c-0.1,0-0.1,0-0.2,0l-1-1C5514-569,5514-569.1,5514.1-569.2C5514.1-569.2,5514.1-569.2,5514.1-569.2L5514.1-569.2z"/>
	<path id="Path_358" class="st17" d="M5519.2-570.3l4.3-1c0.1,0,0.1,0,0.1,0l1,1c0.1,0.1,0.1,0.2,0,0.2c0,0,0,0-0.1,0l-4.2,1.1
		c-0.1,0-0.1,0-0.2,0l-1-1C5519.1-570.1,5519.1-570.2,5519.2-570.3C5519.2-570.3,5519.2-570.3,5519.2-570.3L5519.2-570.3z"/>
	<path id="Path_359" class="st17" d="M5524.3-571.5l4-0.9c0.1,0,0.1,0,0.2,0.1l0.8,0.9c0.1,0.1,0,0.2,0,0.2c0,0,0,0-0.1,0l-3.7,1
		c-0.1,0-0.1,0-0.2,0l-1-1c-0.1-0.1-0.1-0.2,0-0.2C5524.2-571.4,5524.3-571.5,5524.3-571.5L5524.3-571.5z"/>
	<path id="Path_360" class="st17" d="M5529.2-572.6l4-0.9c0.1,0,0.1,0,0.2,0.1l0.8,0.9c0.1,0.1,0.1,0.2,0,0.2c0,0,0,0-0.1,0l-3.7,1
		c-0.1,0-0.1,0-0.2,0l-1-1c-0.1,0-0.1-0.2,0-0.2C5529.1-572.5,5529.2-572.6,5529.2-572.6L5529.2-572.6z"/>
	<path id="Path_361" class="st17" d="M5461.6-551.7l1.5,2.1c0.1,0.1,0.2,0.1,0.3,0.1l7.6-1.8c0.1,0,0.2-0.2,0.2-0.3c0,0,0-0.1,0-0.1
		l-1.6-2.1c-0.1-0.1-0.2-0.1-0.3-0.1l-7.5,1.8C5461.6-552.1,5461.5-551.9,5461.6-551.7C5461.5-551.8,5461.6-551.7,5461.6-551.7
		L5461.6-551.7z"/>
	<path id="Path_362" class="st17" d="M5463.9-548.9l1.5,2.3c0.1,0.1,0.2,0.1,0.3,0.1l9.2-2.2c0.1,0,0.2-0.2,0.2-0.3
		c0,0,0-0.1-0.1-0.1l-1.8-2.3c-0.1-0.1-0.2-0.1-0.3-0.1l-8.9,2.1C5463.9-549.2,5463.8-549.1,5463.9-548.9
		C5463.9-548.9,5463.9-548.9,5463.9-548.9L5463.9-548.9z"/>
	<path id="Path_363" class="st17" d="M5466-545.8l1.7,2.5c0.1,0.1,0.2,0.1,0.3,0.1l12.2-3c0.1,0,0.2-0.2,0.2-0.3c0,0,0-0.1,0-0.1
		l-2-2.5c-0.1-0.1-0.2-0.1-0.3-0.1l-12.1,3C5465.9-546.1,5465.9-546,5466-545.8C5466-545.8,5466-545.8,5466-545.8L5466-545.8z"/>
	<path id="Path_364" class="st17" d="M5493.9-548.5l2.2,2.7c0.1,0.1,0.2,0.1,0.3,0.1l26.9-6.7c0.1,0,0.2-0.2,0.2-0.3
		c0,0,0-0.1-0.1-0.1l-2.7-2.7c-0.1-0.1-0.2-0.1-0.3-0.1l-26.4,6.7c-0.1,0-0.2,0.2-0.2,0.3C5493.9-548.6,5493.9-548.6,5493.9-548.5
		L5493.9-548.5z"/>
	<path id="Path_365" class="st17" d="M5521.7-555.5l2.6,2.6c0.1,0.1,0.1,0.1,0.2,0.1l5.5-1.5c0.1,0,0.2-0.1,0.2-0.3
		c0,0,0-0.1-0.1-0.1l-2.7-2.7c-0.1-0.1-0.1-0.1-0.2-0.1l-5.4,1.5c-0.1,0-0.2,0.2-0.2,0.3C5521.6-555.6,5521.6-555.5,5521.7-555.5
		L5521.7-555.5z"/>
	<path id="Path_366" class="st17" d="M5535-557.2l1.2,1.3c0,0,0.1,0.1,0.2,0l4.1-1.1c0.1,0,0.1-0.1,0.1-0.2c0,0,0-0.1,0-0.1
		l-1.4-1.4c0,0-0.1-0.1-0.2,0l-3.8,1.2C5534.9-557.4,5534.9-557.3,5535-557.2C5534.9-557.2,5534.9-557.2,5535-557.2L5535-557.2z"/>
	<path id="Path_367" class="st17" d="M5538.4-559.9l1.4,1.5c0.1,0,0.1,0,0.2,0l3.7-1.3c0.1,0,0.1-0.1,0.1-0.2c0,0,0-0.1,0-0.1
		l-1.4-1.2c0,0-0.1,0-0.1,0l-3.8,1.1C5538.4-560.1,5538.4-560,5538.4-559.9C5538.4-559.9,5538.4-559.9,5538.4-559.9L5538.4-559.9z"
		/>
	<path id="Path_368" class="st17" d="M5541.2-557.3l-1-0.8c-0.1,0-0.1-0.1-0.1-0.2c0,0,0,0,0.1-0.1l3.7-1.3c0.1,0,0.1,0,0.2,0
		l1.2,1.1c0.1,0.1,0.1,0.2,0,0.2c0,0,0,0-0.1,0L5541.2-557.3C5541.3-557.3,5541.2-557.3,5541.2-557.3L5541.2-557.3z"/>
	<path id="Path_369" class="st17" d="M5545-559.5c0.3,0.3,0.9,0.9,1.1,1.1c0,0,0.1,0.1,0.2,0l3.9-1c0.1,0,0.1-0.1,0.1-0.2
		c0,0,0-0.1,0-0.1l-1.4-1.2c-0.1,0-0.1,0-0.2,0l-3.6,1.2C5545-559.7,5545-559.6,5545-559.5C5545-559.6,5545-559.5,5545-559.5
		L5545-559.5z"/>
	<path id="Path_370" class="st17" d="M5534.1-562l2.1,2c0,0,0.1,0,0.2,0l10-2.6c0.1,0,0.1-0.1,0.1-0.2c0,0,0-0.1-0.1-0.1l-2.4-2
		c0,0-0.1,0-0.1,0l-9.7,2.6C5534.1-562.3,5534-562.2,5534.1-562C5534.1-562.1,5534.1-562.1,5534.1-562L5534.1-562z"/>
	<path id="Path_371" class="st17" d="M5533.4-565.1l2.1,1.9c0,0,0.1,0,0.1,0l7.5-1.7c0.1,0,0.1-0.1,0.1-0.2c0,0,0-0.1-0.1-0.1
		l-2.5-2.1c0,0-0.1,0-0.1,0l-7.2,1.9C5533.4-565.3,5533.4-565.2,5533.4-565.1C5533.4-565.1,5533.4-565.1,5533.4-565.1L5533.4-565.1z
		"/>
	<path id="Path_379" class="st4" d="M5701.8-560.3c0,0-99.9,5.6-115.6,10.7s37.4,4.2,94.8,0c57.3-4.2,192.7-10.2,151.1-12.9
		C5790.4-565.3,5701.8-560.3,5701.8-560.3z"/>
	<path id="Path_372" class="st17" d="M5534.1-568.4l2,1.8c0,0,0.1,0,0.1,0l3.9-0.9c0.1,0,0.1-0.1,0.1-0.2c0,0,0-0.1-0.1-0.1
		l-2.4-2.1c0,0-0.1,0-0.1,0l-3.5,1.1C5534.1-568.7,5534-568.6,5534.1-568.4C5534.1-568.5,5534.1-568.4,5534.1-568.4z"/>
	<path id="Path_373" class="st17" d="M5528.8-570.2l2,1.8c0,0,0.1,0,0.1,0l6.1-1.4c0.1,0,0.1-0.1,0.1-0.2c0,0,0-0.1-0.1-0.1l-2.3-2
		c0,0-0.1,0-0.1,0l-5.8,1.6C5528.8-570.5,5528.7-570.4,5528.8-570.2C5528.8-570.3,5528.8-570.2,5528.8-570.2L5528.8-570.2z"/>
	<path id="Path_201" class="st17" d="M5727.6-602.4v42l-43.6,1.3v-42L5727.6-602.4z"/>
	<path id="Path_203" class="st17" d="M5740.9-558.3l-67.8,2.5l0,0c0-3.7,3-6.6,6.6-6.6l54.5-2.5C5737.9-565,5740.9-562,5740.9-558.3
		L5740.9-558.3z"/>
</g>
</svg>
