<?xml version="1.0" encoding="utf-8"?>
<!-- Generator: Adobe Illustrator 23.0.6, SVG Export Plug-In . SVG Version: 6.00 Build 0)  -->
<svg version="1.1" id="Capa_1" xmlns="http://www.w3.org/2000/svg" xmlns:xlink="http://www.w3.org/1999/xlink" x="0px" y="0px"
	 viewBox="0 0 271.4 341.8" style="enable-background:new 0 0 271.4 341.8;" xml:space="preserve">
<style type="text/css">
	.st0{opacity:0.2;}
	.st1{fill:#BF5B04;}
	.st2{fill:#E2DEAD;}
	.st3{fill:#160063;}
	.st4{fill:#2703A6;}
</style>
<g class="st0">
	<path class="st1" d="M8.4,284.7c-0.3-0.2-0.6-0.4-0.9-0.7c0,1.7,0,3.3,0,5c0.3-0.3,0.6-0.5,0.9-0.7C8.4,287.2,8.4,285.9,8.4,284.7z
		"/>
	<path class="st1" d="M8.4,284C8.4,284,8.4,284,8.4,284c-0.3,0-0.6,0-0.9,0c0.3,0.3,0.6,0.5,0.9,0.7C8.4,284.5,8.4,284.2,8.4,284z"
		/>
	<path class="st1" d="M8.4,288.4c-0.3,0.2-0.6,0.4-0.9,0.7c0.3,0,0.6,0,0.9,0C8.4,288.8,8.4,288.6,8.4,288.4z"/>
	<path class="st1" d="M9.7,288.2c1.1,0.4,1.3,1.6,1.6,2.6c4,11.6,12.9,18.2,23.4,23.2c13.5,6.4,27.9,9.9,42.6,12.2
		c19.1,3.1,38.3,4.4,57.6,5.5c12.5,0.7,25,1.1,37.4,0.7c22.1-0.8,44.3-1.9,65.9-7c5.2-1.2,10.3-2.8,15.2-5c2.9-1.3,5.9-2.9,6.1-6.6
		c0.1-3.5-2.7-5.1-5.2-6.7c-0.7-0.5-1.4-0.9-2.2-1.2c-13.2-6.3-15.2-14.8-13.8-27.9c0.5-5,1.9-9.8,2.5-14.8
		c1.4-13.3-3-19.7-16.1-22.6c-14.5-3.2-29.2-2.7-43.8-1.3c-50.6,5-100.4,15.2-150.4,24.4c-1.4,0.3-2.3,0.3-2.6,2.1
		c-0.2,1.3-1.9,1.8-3,2.4c-6.4,3.2-10.9,8.1-13.7,14.6c-0.4,0.8-0.6,1.8-1.5,2.1C11.1,286,11.1,287.1,9.7,288.2z"/>
	<path class="st1" d="M11.2,282.8c2.8-6.6,7.3-11.4,13.7-14.6c1.2-0.6,2.9-1.1,3-2.4c0.3-1.8,1.2-1.9,2.6-2.1
		c49.9-9.2,99.7-19.4,150.4-24.4c14.6-1.4,29.3-2,43.8,1.3c13.1,2.9,17.5,9.3,16.1,22.6c-0.5,5-1.9,9.8-2.5,14.8
		c-1.4,13.1,0.6,21.6,13.8,27.9c0.8,0.4,1.5,0.8,2.2,1.2c2.5,1.6,5.4,3.2,5.2,6.7c-0.1,3.7-3.1,5.3-6.1,6.6c-4.9,2.2-10,3.8-15.2,5
		c-21.7,5.1-43.8,6.3-65.9,7c-12.5,0.4-24.9,0-37.4-0.7c-19.3-1-38.5-2.4-57.6-5.5c-14.7-2.4-29.1-5.8-42.6-12.2
		c-10.5-5-19.5-11.6-23.4-23.2c-0.3-1-0.5-2.2-1.6-2.6c-0.3,0.3-0.8,0.6-1.3,0.8c1.2,6.6,4.3,12.1,9.3,16.7
		c11.2,10.5,25.2,15.3,39.6,19c29.6,7.7,59.9,8.9,90.2,10.1c20.5,0.8,41-0.1,61.4-2.1c14.4-1.4,28.8-3.4,42.5-8.6
		c3.8-1.4,7.5-2.9,10.3-5.9c3.1-3.3,3.1-6.4-0.1-9.6c-2.3-2.3-5.1-3.7-7.9-5.2c-11.2-5.9-14.4-12.2-12.7-24.8
		c0.7-5.1,1.9-10.2,2.5-15.3c1.8-15.3-3.2-22.4-18.3-25.8c-1.3-0.3-2.6-0.5-3.9-0.7c-13.8-2.2-27.6-1.8-41.3-0.4
		c-49,4.8-97.1,14.7-145.4,23.6c-4.2,0.8-8.3,1.9-13.8,3.2c4.7,1.1,3.7,2,1.5,3.2c-7,3.9-12,9.5-13.8,17.5c0,0,0,0,0,0
		c0.5,0.3,0.9,0.6,1.3,0.8C10.5,284.5,10.8,283.6,11.2,282.8z"/>
	<path class="st1" d="M9.7,288.2c1.4-1.1,1.4-2.3,0-3.4c-0.2,0.1-0.5,0.1-0.8,0.1c-0.2-0.1-0.3-0.2-0.5-0.3c0,1.2,0,2.4,0,3.7
		c0.2-0.1,0.3-0.2,0.5-0.3C9.2,288.1,9.4,288.2,9.7,288.2z"/>
	<path class="st1" d="M8.9,285c0.3,0,0.6,0,0.8-0.1c-0.3-0.3-0.8-0.6-1.3-0.8c0,0.2,0,0.5,0,0.7C8.5,284.8,8.7,284.9,8.9,285z"/>
	<path class="st1" d="M8.9,288.1c-0.2,0.1-0.3,0.2-0.5,0.3c0,0.2,0,0.5,0,0.7c0.5-0.3,0.9-0.6,1.3-0.8
		C9.4,288.2,9.2,288.1,8.9,288.1z"/>
</g>
<g id="Group_451" transform="translate(-5985.344 571.885)">
	<path id="Path_74" class="st2" d="M6134.3-364.5l-15.1-0.8l-1-43.3l-0.2-10.3l15.9-2.9l0.1,13.3L6134.3-364.5z"/>
	<path id="Path_75" class="st2" d="M6122.6-372l-77.5,48.1l-1.7,14.7l8.4,0.4v-10.5l50.7-28.5l-61.1,75.8v11.7h10l-0.8-13l70.8-80.4
		l8.8,0.8l74.5,84.6l1.7,14.2l10,0.4l-1.7-14.7l-59-73.7l39.4,27.2l0.8,11.7l8,0.4l-0.8-14.2l-74.9-57.8L6122.6-372z"/>
	<path id="Path_76" class="st3" d="M6025.3-454.4c7.3-9.1,13.5-19.1,18.3-29.7c5.3-11.8,11.2-25.4,11.6-29.4
		c0.9-7.5,22.2-22.6,45.6-23.4c15.3-0.5,39.1-12.5,53.8-20.7c13.9-7.9,29.3-12.6,45.2-14c17.2-1.3,33.5,2.1,25.3,22.1l-109.7,132.7
		c0,0-93.5,16.5-99.2-10c-0.3-1.3-0.8-2.6-1.3-3.9C6013.8-433.2,6013.5-439.7,6025.3-454.4z"/>
	<path id="Path_128" class="st4" d="M6051-412.6c0,0,31-2.4,42.6-25.1c0,0,23.6-47.4,42.8-52.7c19.2-5.3,54.8-17,69.6-35.3
		s21-32.2,21-32.2s3.8,14.8-8.2,32.2c-12,17.4-16.4,44.2-24.8,72.5c-8.4,28.3-11.6,39.7-26.8,41.3c-11.5,1.2-72.1,0.6-101,0
		C6056.7-412,6051-412.6,6051-412.6z"/>
</g>
</svg>
